G04*
G04 #@! TF.GenerationSoftware,Altium Limited,Altium Designer,24.4.1 (13)*
G04*
G04 Layer_Color=16711935*
%FSLAX25Y25*%
%MOIN*%
G70*
G04*
G04 #@! TF.SameCoordinates,2570C4FB-6661-4DCD-87E8-F51DF0FCECC1*
G04*
G04*
G04 #@! TF.FilePolarity,Positive*
G04*
G01*
G75*
%ADD10C,0.00787*%
%ADD11C,0.00000*%
%ADD12C,0.00500*%
%ADD13C,0.00600*%
%ADD15C,0.00394*%
%ADD16C,0.00200*%
%ADD104C,0.01042*%
%ADD105C,0.01043*%
%ADD106C,0.01042*%
%ADD107C,0.01042*%
G36*
X446900Y412400D02*
X448700D01*
Y414700D01*
X446900D01*
Y412400D01*
D02*
G37*
G36*
X454300D02*
X456100D01*
Y414700D01*
X454300D01*
Y412400D01*
D02*
G37*
G36*
X450600Y420300D02*
X452400D01*
Y422600D01*
X450600D01*
Y420300D01*
D02*
G37*
D10*
X391795Y243689D02*
G03*
X391795Y243689I-394J0D01*
G01*
Y292689D02*
G03*
X391795Y292689I-394J0D01*
G01*
X293374Y291500D02*
G03*
X293374Y291500I-394J0D01*
G01*
X303689Y334579D02*
G03*
X303689Y334579I-394J0D01*
G01*
X390051Y382465D02*
G03*
X390051Y382465I-394J0D01*
G01*
X430394Y404795D02*
G03*
X430394Y404795I-394J0D01*
G01*
X237804Y404093D02*
G03*
X237804Y404093I-394J0D01*
G01*
X335232Y306685D02*
G03*
X335232Y306685I-394J0D01*
G01*
X372732D02*
G03*
X372732Y306685I-394J0D01*
G01*
X430394Y380795D02*
G03*
X430394Y380795I-394J0D01*
G01*
X391795Y268189D02*
G03*
X391795Y268189I-394J0D01*
G01*
Y218689D02*
G03*
X391795Y218689I-394J0D01*
G01*
X484146Y381374D02*
G03*
X484146Y381374I-394J0D01*
G01*
X371867Y366904D02*
G03*
X371867Y366904I-394J0D01*
G01*
X238343Y289904D02*
G03*
X238343Y289904I-394J0D01*
G01*
X300894Y432205D02*
G03*
X300894Y432205I-394J0D01*
G01*
X583394Y358465D02*
G03*
X583394Y358465I-394J0D01*
G01*
X309547Y421153D02*
X365453D01*
Y377847D02*
Y421153D01*
X309547Y377847D02*
X365453D01*
X309547D02*
Y421153D01*
D11*
X556300Y371000D02*
G03*
X558700Y371000I1200J0D01*
G01*
D12*
X458000Y280500D02*
G03*
X468000Y270500I10000J0D01*
G01*
Y375500D02*
G03*
X458000Y365500I0J-10000D01*
G01*
X538000D02*
G03*
X528000Y375500I-10000J0D01*
G01*
Y270500D02*
G03*
X538000Y280500I0J10000D01*
G01*
X422122Y404500D02*
G03*
X422122Y404500I-23622J0D01*
G01*
X387268Y248610D02*
Y262390D01*
X420732D01*
Y248610D02*
Y262390D01*
X387268Y248610D02*
X420732D01*
X387268Y297610D02*
X420732D01*
Y311390D01*
X387268D02*
X420732D01*
X387268Y297610D02*
Y311390D01*
X375500Y216500D02*
Y296500D01*
X295500Y216500D02*
X375500D01*
X295500D02*
Y296500D01*
X375500D01*
X540669Y379335D02*
X549331D01*
X540669Y373665D02*
X549331D01*
Y379335D01*
X540669Y373665D02*
Y379335D01*
X458000Y280500D02*
Y365500D01*
X468000Y375500D02*
X528000D01*
X538000Y280500D02*
Y365500D01*
X468000Y270500D02*
X528000D01*
X468331Y395665D02*
Y401335D01*
X459669Y395665D02*
Y401335D01*
X468331D01*
X459669Y395665D02*
X468331D01*
X474331Y410165D02*
Y415835D01*
X465669Y410165D02*
Y415835D01*
X474331D01*
X465669Y410165D02*
X474331D01*
X335169Y346335D02*
X343831D01*
X335169Y340665D02*
X343831D01*
Y346335D01*
X335169Y340665D02*
Y346335D01*
X283217Y317098D02*
Y323161D01*
X247783Y317098D02*
Y323161D01*
Y317098D02*
X283217D01*
X230500Y405839D02*
X300500D01*
Y323161D02*
Y405839D01*
X230500Y323161D02*
X247783D01*
X283217D02*
X300500D01*
X230500D02*
Y405839D01*
X499082Y214482D02*
X520518Y235918D01*
X499918Y256518D02*
X520518Y235918D01*
X478482Y235082D02*
X499918Y256518D01*
X478482Y235082D02*
X499082Y214482D01*
X375091Y322622D02*
X423910D01*
Y375378D01*
X375091D02*
X423910D01*
X375091Y322622D02*
Y375378D01*
X425000Y407000D02*
X435000D01*
Y427000D01*
X425000D02*
X435000D01*
X425000Y407000D02*
Y427000D01*
X233276Y409014D02*
X266741D01*
Y422793D01*
X233276D02*
X266741D01*
X233276Y409014D02*
Y422793D01*
X318665Y279114D02*
X324335D01*
X318665Y287776D02*
X324335D01*
Y279114D02*
Y287776D01*
X318665Y279114D02*
Y287776D01*
X406669Y423165D02*
Y428835D01*
X415331Y423165D02*
Y428835D01*
X406669Y423165D02*
X415331D01*
X406669Y428835D02*
X415331D01*
X327555Y299008D02*
X331492Y302945D01*
X305508Y299008D02*
X327555D01*
X305508D02*
Y324992D01*
X327555D01*
X331492Y321055D01*
Y302945D02*
Y321055D01*
X365055Y299008D02*
X368992Y302945D01*
X343008Y299008D02*
X365055D01*
X343008D02*
Y324992D01*
X365055D01*
X368992Y321055D01*
Y302945D02*
Y321055D01*
X447335Y395520D02*
Y404181D01*
X441665Y395520D02*
Y404181D01*
Y395520D02*
X447335D01*
X441665Y404181D02*
X447335D01*
X327169Y334835D02*
X335831D01*
X327169Y329165D02*
X335831D01*
Y334835D01*
X327169Y329165D02*
Y334835D01*
X294331Y308665D02*
Y314335D01*
X285669Y308665D02*
Y314335D01*
X294331D01*
X285669Y308665D02*
X294331D01*
X569831Y372665D02*
Y378335D01*
X561169Y372665D02*
Y378335D01*
X569831D01*
X561169Y372665D02*
X569831D01*
X563331Y266165D02*
Y271835D01*
X554669Y266165D02*
Y271835D01*
X563331D01*
X554669Y266165D02*
X563331D01*
X265331Y390165D02*
Y395835D01*
X256669Y390165D02*
Y395835D01*
X265331D01*
X256669Y390165D02*
X265331D01*
X425000Y383000D02*
X435000D01*
Y403000D01*
X425000D02*
X435000D01*
X425000Y383000D02*
Y403000D01*
X387268Y273110D02*
Y286890D01*
X420732D01*
Y273110D02*
Y286890D01*
X387268Y273110D02*
X420732D01*
X387268Y223610D02*
X420732D01*
Y237390D01*
X387268D02*
X420732D01*
X387268Y223610D02*
Y237390D01*
X368993Y361904D02*
Y371904D01*
X307024D02*
X368993D01*
X307024Y361904D02*
Y371904D01*
Y361904D02*
X368993D01*
X295500Y430000D02*
X305500D01*
X295500Y410000D02*
Y430000D01*
Y410000D02*
X305500D01*
Y430000D01*
X588000Y294016D02*
Y355984D01*
X578000Y294016D02*
X588000D01*
X578000D02*
Y355984D01*
X588000D01*
D13*
X462500Y244000D02*
G03*
X462500Y244000I-2000J0D01*
G01*
X445500Y243500D02*
G03*
X445500Y243500I-2000J0D01*
G01*
Y227000D02*
G03*
X445500Y227000I-2000J0D01*
G01*
X462500D02*
G03*
X462500Y227000I-2000J0D01*
G01*
X540500D02*
G03*
X540500Y227000I-2000J0D01*
G01*
X557500Y227500D02*
G03*
X557500Y227500I-2000J0D01*
G01*
Y244000D02*
G03*
X557500Y244000I-2000J0D01*
G01*
X540500D02*
G03*
X540500Y244000I-2000J0D01*
G01*
X571500Y279000D02*
Y371000D01*
X558700D02*
X571500D01*
X556300D02*
X558700D01*
X543500D02*
X556300D01*
X543500Y279000D02*
Y371000D01*
Y279000D02*
X571500D01*
X540600Y367000D02*
X543500D01*
X540600Y363000D02*
Y367000D01*
Y363000D02*
X543500D01*
Y367000D01*
X540600Y357000D02*
X543500D01*
X540600Y353000D02*
Y357000D01*
Y353000D02*
X543500D01*
Y357000D01*
X540600Y347000D02*
X543500D01*
X540600Y343000D02*
Y347000D01*
Y343000D02*
X543500D01*
Y347000D01*
X540600Y337000D02*
X543500D01*
X540600Y333000D02*
Y337000D01*
Y333000D02*
X543500D01*
Y337000D01*
X540600Y327000D02*
X543500D01*
X540600Y323000D02*
Y327000D01*
Y323000D02*
X543500D01*
Y327000D01*
X540600Y317000D02*
X543500D01*
X540600Y313000D02*
Y317000D01*
Y313000D02*
X543500D01*
Y317000D01*
X540600Y307000D02*
X543500D01*
X540600Y303000D02*
Y307000D01*
Y303000D02*
X543500D01*
Y307000D01*
X540600Y297000D02*
X543500D01*
X540500Y293100D02*
X540600Y297000D01*
X540500Y293100D02*
X543500Y293000D01*
Y297000D01*
X540500Y287000D02*
X543500D01*
X540500Y283100D02*
Y287000D01*
Y283100D02*
X543500Y283000D01*
Y287000D01*
X571500Y283000D02*
X574400D01*
X574500Y286900D01*
X571500Y287000D02*
X574500Y286900D01*
X571500Y283000D02*
Y287000D01*
Y293000D02*
X574500D01*
Y297000D01*
X571500D02*
X574500D01*
X571500Y293000D02*
Y297000D01*
Y303000D02*
X574500D01*
Y307000D01*
X571500D02*
X574500D01*
X571500Y303000D02*
Y307000D01*
Y313000D02*
X574500D01*
Y317000D01*
X571500D02*
X574500D01*
X571500Y313000D02*
Y317000D01*
Y323000D02*
X574500D01*
Y327000D01*
X571500D02*
X574500D01*
X571500Y323000D02*
Y327000D01*
Y333000D02*
X574500D01*
Y337000D01*
X571500D02*
X574500D01*
X571500Y333000D02*
Y337000D01*
Y343000D02*
X574500D01*
Y347000D01*
X571500D02*
X574500D01*
X571500Y343000D02*
Y347000D01*
Y353000D02*
X574500D01*
Y357000D01*
X571500D02*
X574500D01*
X571500Y353000D02*
Y357000D01*
Y363000D02*
X574500D01*
Y367000D01*
X571500D02*
X574500D01*
X571500Y363000D02*
Y367000D01*
X445900Y414900D02*
Y420100D01*
Y414900D02*
X457100D01*
Y420100D01*
X445900D02*
X457100D01*
X440000Y225500D02*
Y231500D01*
Y225500D02*
X442000Y223500D01*
X440000Y245500D02*
X442000Y247500D01*
X440000Y239500D02*
Y245500D01*
X462000Y223500D02*
X464000Y225500D01*
Y231500D01*
X462000Y247500D02*
X464000Y245500D01*
Y239500D02*
Y245500D01*
X442000Y247500D02*
X443500D01*
X460500D02*
X462000D01*
X460500Y223500D02*
X462000D01*
X442000D02*
X443500D01*
X447000Y244000D02*
X457000D01*
X447000Y226500D02*
X457000D01*
X461500Y230500D02*
Y233500D01*
Y237500D02*
Y240500D01*
X460500Y237000D02*
X461500Y233500D01*
X559000Y239500D02*
Y245500D01*
X557000Y247500D02*
X559000Y245500D01*
X557000Y223500D02*
X559000Y225500D01*
Y231500D01*
X535000Y245500D02*
X537000Y247500D01*
X535000Y239500D02*
Y245500D01*
Y225500D02*
X537000Y223500D01*
X535000Y225500D02*
Y231500D01*
X555500Y223500D02*
X557000D01*
X537000D02*
X538500D01*
X537000Y247500D02*
X538500D01*
X555500D02*
X557000D01*
X542000Y227000D02*
X552000D01*
X542000Y244500D02*
X552000D01*
X537500Y237500D02*
Y240500D01*
Y230500D02*
Y233500D01*
Y237500D02*
X538500Y234000D01*
D15*
X370252Y372335D02*
Y426665D01*
X304110Y372335D02*
Y426665D01*
X370252D01*
X304110Y372335D02*
X370252D01*
X240508Y284904D02*
Y294904D01*
Y284904D02*
X290508D01*
Y294904D01*
X240508D02*
X290508D01*
X240508Y284904D02*
Y294904D01*
Y284904D02*
X290508D01*
Y294904D01*
D16*
X454500Y235500D02*
G03*
X454500Y235500I-2500J0D01*
G01*
X549500D02*
G03*
X549500Y235500I-2500J0D01*
G01*
X457000Y230500D02*
Y240500D01*
X447000D02*
X457000D01*
X447000Y230500D02*
Y240500D01*
Y230500D02*
X457000D01*
X542000D02*
Y240500D01*
Y230500D02*
X552000D01*
Y240500D01*
X542000D02*
X552000D01*
D104*
X469013Y228995D02*
X467346D01*
X468179D01*
Y223993D01*
X469013Y224827D01*
X529987Y242005D02*
X531655D01*
X530821D01*
Y247007D01*
X529987Y246173D01*
D105*
X434641Y229491D02*
X437979D01*
X434641Y226153D01*
Y225319D01*
X435476Y224485D01*
X437144D01*
X437979Y225319D01*
X564359Y241509D02*
X561021D01*
X564359Y244847D01*
Y245681D01*
X563524Y246515D01*
X561856D01*
X561021Y245681D01*
D106*
X470016Y242341D02*
X469182Y241507D01*
X467515D01*
X466681Y242341D01*
Y243175D01*
X467515Y244008D01*
X468348D01*
X467515D01*
X466681Y244842D01*
Y245676D01*
X467515Y246510D01*
X469182D01*
X470016Y245676D01*
X528984Y228659D02*
X529818Y229493D01*
X531486D01*
X532319Y228659D01*
Y227825D01*
X531486Y226992D01*
X530652D01*
X531486D01*
X532319Y226158D01*
Y225324D01*
X531486Y224490D01*
X529818D01*
X528984Y225324D01*
D107*
X435485Y246511D02*
Y241508D01*
X437986Y244009D01*
X434651D01*
X563515Y224489D02*
Y229492D01*
X561014Y226991D01*
X564349D01*
M02*
