G04*
G04 #@! TF.GenerationSoftware,Altium Limited,Altium Designer,24.4.1 (13)*
G04*
G04 Layer_Color=65535*
%FSLAX25Y25*%
%MOIN*%
G70*
G04*
G04 #@! TF.SameCoordinates,2570C4FB-6661-4DCD-87E8-F51DF0FCECC1*
G04*
G04*
G04 #@! TF.FilePolarity,Positive*
G04*
G01*
G75*
%ADD10C,0.00787*%
%ADD11C,0.00000*%
%ADD12C,0.00500*%
%ADD13C,0.00600*%
%ADD14C,0.01000*%
%ADD15C,0.00394*%
%ADD16C,0.00200*%
%ADD17C,0.00300*%
G36*
X295680Y311875D02*
X296506Y312261D01*
X296180Y311236D01*
X297012Y311156D01*
X296426Y310310D01*
X297372Y309757D01*
X296426Y309185D01*
X296992Y308299D01*
X296180Y308245D01*
X296513Y307213D01*
X295347Y307713D01*
X294828Y307073D01*
X294149Y307593D01*
X293429Y307000D01*
X292717Y307593D01*
X292038Y307073D01*
X291518Y307713D01*
X290353Y307213D01*
X290686Y308245D01*
X289873Y308299D01*
X290439Y309185D01*
X289500Y309757D01*
X290439Y310310D01*
X289853Y311156D01*
X290686Y311236D01*
X290353Y312261D01*
X291518Y311769D01*
X292038Y312408D01*
X292717Y311888D01*
X293436Y312488D01*
X294149Y311888D01*
X294828Y312408D01*
X295054Y312128D01*
X296446Y313154D01*
X295680Y311875D01*
D02*
G37*
G36*
X293156Y304044D02*
X293181Y304040D01*
X293214Y304032D01*
X293247Y304019D01*
X293281Y304003D01*
X293310Y303978D01*
X293314Y303974D01*
X293322Y303965D01*
X293335Y303949D01*
X293351Y303932D01*
X293368Y303907D01*
X293380Y303878D01*
X293389Y303845D01*
X293393Y303807D01*
Y303803D01*
Y303795D01*
Y303782D01*
X293389Y303766D01*
X293380Y303720D01*
X293360Y303666D01*
X293314Y303558D01*
X292623Y301848D01*
X292960D01*
X292977Y301844D01*
X293023Y301839D01*
X293073Y301823D01*
X293118Y301802D01*
X293164Y301769D01*
X293181Y301748D01*
X293193Y301723D01*
X293202Y301694D01*
X293206Y301661D01*
Y301657D01*
Y301640D01*
X293202Y301615D01*
X293193Y301586D01*
X293181Y301553D01*
X293164Y301519D01*
X293143Y301486D01*
X293110Y301457D01*
X293106Y301453D01*
X293093Y301444D01*
X293073Y301436D01*
X293043Y301424D01*
X293006Y301407D01*
X292960Y301399D01*
X292906Y301390D01*
X292848Y301386D01*
X292444D01*
X292407Y301390D01*
X292365Y301399D01*
X292316Y301407D01*
X292266Y301419D01*
X292216Y301440D01*
X292170Y301469D01*
X292166Y301473D01*
X292153Y301486D01*
X292137Y301503D01*
X292116Y301532D01*
X292095Y301565D01*
X292078Y301607D01*
X292066Y301652D01*
X292062Y301706D01*
Y301711D01*
Y301727D01*
X292066Y301748D01*
X292070Y301781D01*
X292083Y301823D01*
X292095Y301877D01*
X292116Y301935D01*
X292141Y302002D01*
X292636Y303162D01*
X292266Y302763D01*
X292261Y302759D01*
X292245Y302742D01*
X292216Y302717D01*
X292182Y302692D01*
X292145Y302667D01*
X292103Y302642D01*
X292058Y302626D01*
X292012Y302622D01*
X292003D01*
X291987Y302626D01*
X291962Y302634D01*
X291929Y302647D01*
X291895Y302672D01*
X291862Y302713D01*
X291845Y302734D01*
X291833Y302763D01*
X291821Y302796D01*
X291808Y302834D01*
X291754Y303071D01*
X291284Y301910D01*
X291280Y301902D01*
X291271Y301885D01*
X291259Y301856D01*
X291242Y301815D01*
X291226Y301769D01*
X291201Y301711D01*
X291176Y301652D01*
X291147Y301590D01*
X291088Y301453D01*
X291026Y301320D01*
X290997Y301257D01*
X290968Y301199D01*
X290939Y301149D01*
X290914Y301103D01*
Y301099D01*
X290909Y301095D01*
X290901Y301082D01*
X290889Y301066D01*
X290864Y301028D01*
X290826Y300974D01*
X290776Y300916D01*
X290722Y300854D01*
X290656Y300791D01*
X290585Y300729D01*
X290581Y300725D01*
X290573Y300721D01*
X290556Y300708D01*
X290535Y300691D01*
X290506Y300675D01*
X290473Y300658D01*
X290435Y300637D01*
X290389Y300617D01*
X290344Y300591D01*
X290290Y300571D01*
X290177Y300537D01*
X290048Y300508D01*
X289982Y300504D01*
X289911Y300500D01*
X289874D01*
X289844Y300504D01*
X289807Y300508D01*
X289770Y300513D01*
X289724Y300521D01*
X289674Y300533D01*
X289570Y300562D01*
X289516Y300583D01*
X289462Y300608D01*
X289404Y300637D01*
X289349Y300675D01*
X289300Y300712D01*
X289250Y300758D01*
X289245Y300762D01*
X289237Y300770D01*
X289225Y300783D01*
X289212Y300804D01*
X289191Y300829D01*
X289171Y300862D01*
X289150Y300895D01*
X289125Y300937D01*
X289100Y300983D01*
X289079Y301032D01*
X289058Y301087D01*
X289037Y301145D01*
X289025Y301207D01*
X289013Y301274D01*
X289004Y301344D01*
X289000Y301419D01*
Y301428D01*
Y301444D01*
X289004Y301473D01*
X289008Y301511D01*
X289013Y301557D01*
X289021Y301611D01*
X289033Y301673D01*
X289050Y301740D01*
X289071Y301810D01*
X289096Y301885D01*
X289129Y301964D01*
X289166Y302047D01*
X289212Y302127D01*
X289266Y302210D01*
X289324Y302289D01*
X289395Y302368D01*
X289399Y302372D01*
X289404Y302376D01*
X289416Y302389D01*
X289433Y302405D01*
X289453Y302422D01*
X289483Y302443D01*
X289545Y302493D01*
X289620Y302547D01*
X289711Y302605D01*
X289815Y302663D01*
X289932Y302717D01*
X289936D01*
X289944Y302721D01*
X289965Y302730D01*
X289986Y302738D01*
X290015Y302751D01*
X290048Y302759D01*
X290090Y302771D01*
X290131Y302788D01*
X290227Y302813D01*
X290335Y302834D01*
X290448Y302850D01*
X290564Y302855D01*
X290589D01*
X290618Y302850D01*
X290656Y302846D01*
X290697Y302838D01*
X290739Y302825D01*
X290780Y302809D01*
X290818Y302784D01*
X290822Y302780D01*
X290835Y302771D01*
X290847Y302759D01*
X290868Y302738D01*
X290884Y302713D01*
X290897Y302680D01*
X290909Y302647D01*
X290914Y302605D01*
Y302601D01*
Y302584D01*
X290909Y302563D01*
X290901Y302538D01*
X290889Y302505D01*
X290868Y302476D01*
X290843Y302443D01*
X290810Y302414D01*
X290805D01*
X290797Y302405D01*
X290780Y302401D01*
X290760Y302393D01*
X290731Y302380D01*
X290689Y302372D01*
X290643Y302364D01*
X290585Y302355D01*
X290568D01*
X290547Y302351D01*
X290523Y302347D01*
X290489Y302343D01*
X290452Y302339D01*
X290410Y302330D01*
X290365Y302322D01*
X290265Y302297D01*
X290161Y302268D01*
X290061Y302231D01*
X289965Y302181D01*
X289961D01*
X289957Y302176D01*
X289932Y302160D01*
X289899Y302135D01*
X289853Y302097D01*
X289803Y302056D01*
X289753Y302002D01*
X289699Y301939D01*
X289653Y301873D01*
X289649Y301865D01*
X289636Y301839D01*
X289616Y301802D01*
X289599Y301752D01*
X289578Y301694D01*
X289557Y301627D01*
X289545Y301553D01*
X289541Y301478D01*
Y301473D01*
Y301469D01*
Y301457D01*
Y301440D01*
X289545Y301403D01*
X289553Y301353D01*
X289566Y301299D01*
X289587Y301245D01*
X289612Y301186D01*
X289649Y301136D01*
X289653Y301132D01*
X289670Y301116D01*
X289695Y301095D01*
X289728Y301074D01*
X289774Y301049D01*
X289828Y301028D01*
X289886Y301012D01*
X289957Y301008D01*
X289982D01*
X289998Y301012D01*
X290040Y301020D01*
X290098Y301032D01*
X290161Y301057D01*
X290227Y301091D01*
X290298Y301141D01*
X290331Y301174D01*
X290365Y301207D01*
X290369Y301211D01*
X290373Y301216D01*
X290381Y301228D01*
X290394Y301245D01*
X290410Y301270D01*
X290431Y301299D01*
X290452Y301332D01*
X290477Y301369D01*
X290506Y301415D01*
X290535Y301465D01*
X290564Y301523D01*
X290597Y301590D01*
X290631Y301661D01*
X290668Y301735D01*
X290706Y301819D01*
X290743Y301910D01*
X291513Y303799D01*
Y303803D01*
X291517Y303811D01*
X291525Y303824D01*
X291529Y303836D01*
X291554Y303878D01*
X291583Y303924D01*
X291621Y303969D01*
X291671Y304011D01*
X291696Y304024D01*
X291721Y304036D01*
X291754Y304044D01*
X291783Y304048D01*
X291800D01*
X291821Y304044D01*
X291845Y304040D01*
X291870Y304032D01*
X291899Y304019D01*
X291929Y304003D01*
X291954Y303978D01*
X291958Y303974D01*
X291966Y303965D01*
X291974Y303944D01*
X291991Y303920D01*
X292008Y303886D01*
X292024Y303845D01*
X292045Y303795D01*
X292062Y303732D01*
X292178Y303287D01*
X292757Y303857D01*
X292761Y303861D01*
X292765Y303865D01*
X292790Y303886D01*
X292827Y303920D01*
X292873Y303953D01*
X292927Y303986D01*
X292989Y304019D01*
X293052Y304040D01*
X293081Y304048D01*
X293135D01*
X293156Y304044D01*
D02*
G37*
G36*
X298805Y303753D02*
X298851Y303745D01*
X298909Y303728D01*
X298967Y303699D01*
X299013Y303657D01*
X299034Y303632D01*
X299051Y303603D01*
X299059Y303566D01*
X299063Y303524D01*
Y303520D01*
Y303508D01*
X299059Y303483D01*
X299055Y303458D01*
X299042Y303429D01*
X299030Y303395D01*
X299009Y303362D01*
X298984Y303333D01*
X298522Y302834D01*
X298526Y302830D01*
X298535Y302825D01*
X298551Y302813D01*
X298568Y302796D01*
X298593Y302776D01*
X298618Y302751D01*
X298643Y302721D01*
X298672Y302692D01*
X298726Y302613D01*
X298776Y302518D01*
X298793Y302464D01*
X298809Y302409D01*
X298818Y302347D01*
X298822Y302285D01*
Y302280D01*
Y302272D01*
Y302260D01*
X298818Y302239D01*
Y302214D01*
X298813Y302189D01*
X298801Y302122D01*
X298784Y302043D01*
X298755Y301956D01*
X298718Y301865D01*
X298668Y301769D01*
X298664Y301765D01*
X298655Y301752D01*
X298643Y301731D01*
X298622Y301702D01*
X298593Y301673D01*
X298560Y301636D01*
X298522Y301598D01*
X298481Y301561D01*
X298431Y301519D01*
X298373Y301482D01*
X298314Y301444D01*
X298243Y301415D01*
X298173Y301386D01*
X298094Y301365D01*
X298011Y301353D01*
X297919Y301349D01*
X297890D01*
X297865Y301353D01*
X297840D01*
X297807Y301357D01*
X297736Y301369D01*
X297653Y301390D01*
X297565Y301419D01*
X297482Y301461D01*
X297403Y301519D01*
Y301523D01*
X297395Y301528D01*
X297374Y301553D01*
X297341Y301590D01*
X297307Y301640D01*
X297274Y301706D01*
X297241Y301781D01*
X297220Y301873D01*
X297216Y301923D01*
X297212Y301973D01*
Y301977D01*
Y301981D01*
Y302006D01*
X297216Y302043D01*
X297224Y302089D01*
X297237Y302139D01*
X297253Y302197D01*
X297274Y302251D01*
X297307Y302305D01*
X297312Y302310D01*
X297324Y302326D01*
X297345Y302351D01*
X297374Y302376D01*
X297407Y302401D01*
X297449Y302426D01*
X297495Y302443D01*
X297545Y302447D01*
X297557D01*
X297574Y302443D01*
X297590Y302439D01*
X297636Y302422D01*
X297661Y302409D01*
X297682Y302389D01*
X297686Y302384D01*
X297690Y302380D01*
X297703Y302368D01*
X297715Y302351D01*
X297736Y302310D01*
X297740Y302285D01*
X297744Y302256D01*
Y302247D01*
Y302235D01*
X297740Y302222D01*
X297736Y302201D01*
X297732Y302176D01*
X297724Y302143D01*
X297715Y302106D01*
Y302102D01*
X297711Y302093D01*
X297707Y302077D01*
Y302060D01*
X297699Y302018D01*
X297694Y302002D01*
Y301985D01*
Y301981D01*
Y301969D01*
X297699Y301952D01*
X297703Y301931D01*
X297711Y301906D01*
X297719Y301881D01*
X297736Y301856D01*
X297757Y301831D01*
X297761Y301827D01*
X297769Y301823D01*
X297782Y301815D01*
X297803Y301806D01*
X297823Y301794D01*
X297852Y301785D01*
X297886Y301781D01*
X297923Y301777D01*
X297932D01*
X297948Y301781D01*
X297981Y301785D01*
X298019Y301798D01*
X298065Y301815D01*
X298110Y301844D01*
X298160Y301881D01*
X298210Y301931D01*
X298214Y301939D01*
X298231Y301960D01*
X298252Y301989D01*
X298277Y302035D01*
X298298Y302085D01*
X298318Y302147D01*
X298335Y302210D01*
X298339Y302280D01*
Y302285D01*
Y302289D01*
Y302301D01*
X298335Y302318D01*
X298327Y302360D01*
X298310Y302405D01*
X298281Y302459D01*
X298264Y302484D01*
X298239Y302509D01*
X298210Y302534D01*
X298181Y302555D01*
X298144Y302576D01*
X298102Y302592D01*
X298094Y302597D01*
X298077Y302605D01*
X298052Y302617D01*
X298023Y302638D01*
X297994Y302663D01*
X297969Y302696D01*
X297952Y302734D01*
X297944Y302780D01*
Y302784D01*
Y302792D01*
X297948Y302809D01*
X297952Y302830D01*
X297969Y302880D01*
X297981Y302909D01*
X298002Y302934D01*
X298044Y302975D01*
X298364Y303333D01*
X297907D01*
X297890Y303337D01*
X297852Y303341D01*
X297807Y303354D01*
X297761Y303375D01*
X297724Y303404D01*
X297707Y303425D01*
X297699Y303445D01*
X297690Y303474D01*
X297686Y303503D01*
Y303508D01*
Y303520D01*
X297690Y303541D01*
X297694Y303566D01*
X297707Y303595D01*
X297719Y303624D01*
X297740Y303653D01*
X297765Y303682D01*
X297769Y303687D01*
X297778Y303695D01*
X297798Y303707D01*
X297819Y303720D01*
X297848Y303732D01*
X297882Y303745D01*
X297919Y303753D01*
X297961Y303757D01*
X298784D01*
X298805Y303753D01*
D02*
G37*
G36*
X294591Y304015D02*
X294612Y304011D01*
X294658Y303999D01*
X294683Y303982D01*
X294703Y303965D01*
X294707Y303961D01*
X294712Y303957D01*
X294720Y303944D01*
X294732Y303928D01*
X294753Y303886D01*
X294757Y303861D01*
X294762Y303832D01*
Y303828D01*
Y303824D01*
Y303811D01*
X294757Y303795D01*
X294749Y303753D01*
X294728Y303699D01*
X294707Y303649D01*
X294217Y302439D01*
X294649Y302759D01*
X294653Y302763D01*
X294674Y302776D01*
X294699Y302792D01*
X294728Y302813D01*
X294766Y302830D01*
X294807Y302846D01*
X294845Y302859D01*
X294882Y302863D01*
X294895D01*
X294911Y302859D01*
X294928Y302855D01*
X294974Y302842D01*
X294995Y302825D01*
X295015Y302809D01*
X295020Y302805D01*
X295024Y302800D01*
X295032Y302788D01*
X295044Y302771D01*
X295065Y302730D01*
X295069Y302709D01*
X295074Y302680D01*
Y302676D01*
X295069Y302659D01*
X295065Y302634D01*
X295057Y302601D01*
X295036Y302563D01*
X295011Y302526D01*
X294978Y302484D01*
X294928Y302443D01*
X294882Y302409D01*
X294595Y302201D01*
X294895Y301731D01*
X294899Y301727D01*
X294903Y301719D01*
X294911Y301702D01*
X294924Y301681D01*
X294945Y301631D01*
X294949Y301611D01*
X294953Y301586D01*
Y301582D01*
Y301569D01*
X294949Y301553D01*
X294945Y301532D01*
X294936Y301511D01*
X294920Y301482D01*
X294903Y301457D01*
X294878Y301428D01*
X294874Y301424D01*
X294866Y301415D01*
X294849Y301407D01*
X294828Y301394D01*
X294803Y301378D01*
X294778Y301369D01*
X294745Y301361D01*
X294712Y301357D01*
X294699D01*
X294683Y301361D01*
X294662Y301369D01*
X294641Y301378D01*
X294616Y301390D01*
X294595Y301411D01*
X294570Y301440D01*
X294545Y301478D01*
X294096Y302147D01*
X293880Y301611D01*
Y301607D01*
X293876Y301598D01*
X293867Y301586D01*
X293859Y301573D01*
X293838Y301532D01*
X293805Y301486D01*
X293759Y301436D01*
X293709Y301399D01*
X293680Y301382D01*
X293647Y301369D01*
X293613Y301361D01*
X293576Y301357D01*
X293564D01*
X293547Y301361D01*
X293526Y301365D01*
X293480Y301378D01*
X293460Y301390D01*
X293435Y301407D01*
X293430Y301411D01*
X293426Y301415D01*
X293410Y301440D01*
X293389Y301482D01*
X293385Y301507D01*
X293380Y301532D01*
Y301536D01*
Y301540D01*
Y301553D01*
X293385Y301569D01*
X293393Y301611D01*
X293410Y301661D01*
X293430Y301711D01*
X294258Y303749D01*
X294279Y303803D01*
Y303807D01*
X294283Y303811D01*
X294296Y303836D01*
X294317Y303870D01*
X294346Y303911D01*
X294387Y303953D01*
X294437Y303986D01*
X294495Y304011D01*
X294529Y304015D01*
X294562Y304019D01*
X294574D01*
X294591Y304015D01*
D02*
G37*
G36*
X295539Y301865D02*
X295565Y301860D01*
X295594Y301848D01*
X295627Y301835D01*
X295660Y301815D01*
X295689Y301790D01*
X295693Y301785D01*
X295702Y301777D01*
X295714Y301761D01*
X295731Y301735D01*
X295743Y301706D01*
X295756Y301677D01*
X295764Y301640D01*
X295768Y301598D01*
Y301594D01*
Y301582D01*
X295764Y301557D01*
X295760Y301532D01*
X295747Y301503D01*
X295735Y301469D01*
X295714Y301436D01*
X295689Y301407D01*
X295685Y301403D01*
X295677Y301394D01*
X295660Y301382D01*
X295635Y301369D01*
X295606Y301357D01*
X295577Y301344D01*
X295539Y301336D01*
X295498Y301332D01*
X295481D01*
X295456Y301336D01*
X295431Y301340D01*
X295402Y301349D01*
X295369Y301365D01*
X295336Y301382D01*
X295307Y301407D01*
X295302Y301411D01*
X295294Y301419D01*
X295282Y301436D01*
X295269Y301461D01*
X295257Y301490D01*
X295244Y301519D01*
X295236Y301557D01*
X295232Y301598D01*
Y301602D01*
Y301619D01*
X295236Y301640D01*
X295240Y301665D01*
X295248Y301694D01*
X295265Y301727D01*
X295282Y301761D01*
X295307Y301790D01*
X295311Y301794D01*
X295319Y301802D01*
X295336Y301815D01*
X295361Y301831D01*
X295390Y301844D01*
X295419Y301856D01*
X295456Y301865D01*
X295498Y301869D01*
X295519D01*
X295539Y301865D01*
D02*
G37*
G36*
X257125Y310888D02*
X257200Y310875D01*
X257288Y310838D01*
X257387Y310800D01*
X257488Y310737D01*
X257575Y310663D01*
X257588Y310650D01*
X257612Y310625D01*
X257650Y310575D01*
X257700Y310500D01*
X257737Y310413D01*
X257775Y310325D01*
X257800Y310212D01*
X257812Y310087D01*
Y310075D01*
Y310037D01*
X257800Y309963D01*
X257787Y309888D01*
X257750Y309800D01*
X257713Y309700D01*
X257650Y309600D01*
X257575Y309512D01*
X257562Y309500D01*
X257538Y309475D01*
X257488Y309437D01*
X257413Y309400D01*
X257325Y309363D01*
X257238Y309325D01*
X257125Y309300D01*
X257000Y309288D01*
X256950D01*
X256875Y309300D01*
X256800Y309313D01*
X256713Y309337D01*
X256612Y309387D01*
X256512Y309437D01*
X256425Y309512D01*
X256413Y309525D01*
X256387Y309550D01*
X256350Y309600D01*
X256312Y309675D01*
X256275Y309763D01*
X256238Y309850D01*
X256212Y309963D01*
X256200Y310087D01*
Y310100D01*
Y310150D01*
X256212Y310212D01*
X256225Y310287D01*
X256250Y310375D01*
X256300Y310475D01*
X256350Y310575D01*
X256425Y310663D01*
X256437Y310675D01*
X256463Y310700D01*
X256512Y310737D01*
X256588Y310788D01*
X256675Y310825D01*
X256763Y310862D01*
X256875Y310888D01*
X257000Y310900D01*
X257063D01*
X257125Y310888D01*
D02*
G37*
G36*
X261475Y309113D02*
X261588Y309100D01*
X261725Y309063D01*
X261888Y309013D01*
X262050Y308925D01*
X262212Y308812D01*
X262363Y308663D01*
X262375Y308637D01*
X262425Y308575D01*
X262488Y308475D01*
X262550Y308337D01*
X262625Y308162D01*
X262675Y307962D01*
X262725Y307713D01*
X262737Y307450D01*
Y307437D01*
Y307387D01*
Y307312D01*
X262725Y307212D01*
X262713Y307087D01*
X262687Y306950D01*
X262663Y306800D01*
X262625Y306625D01*
X262575Y306450D01*
X262512Y306262D01*
X262450Y306063D01*
X262363Y305862D01*
X262250Y305675D01*
X262138Y305487D01*
X262000Y305300D01*
X261838Y305125D01*
X261825Y305113D01*
X261788Y305075D01*
X261725Y305025D01*
X261650Y304962D01*
X261562Y304888D01*
X261462Y304825D01*
X261350Y304763D01*
X261238Y304713D01*
X261225D01*
X261188Y304700D01*
X261112Y304688D01*
X261025Y304662D01*
X260900Y304650D01*
X260750Y304625D01*
X260588Y304612D01*
X260188D01*
X260063Y304625D01*
X259800Y304650D01*
X259675Y304662D01*
X259575Y304688D01*
X259562D01*
X259538Y304700D01*
X259488Y304725D01*
X259437Y304763D01*
X259363Y304813D01*
X259288Y304888D01*
X259200Y304962D01*
X259113Y305063D01*
X257600Y301350D01*
Y301338D01*
X257588Y301312D01*
X257562Y301275D01*
X257550Y301225D01*
X257475Y301100D01*
X257375Y300962D01*
X257250Y300825D01*
X257087Y300700D01*
X257000Y300650D01*
X256900Y300612D01*
X256800Y300588D01*
X256687Y300575D01*
X256650D01*
X256612Y300588D01*
X256550Y300600D01*
X256425Y300650D01*
X256363Y300688D01*
X256300Y300738D01*
X256288Y300750D01*
X256275Y300763D01*
X256212Y300837D01*
X256150Y300950D01*
X256137Y301025D01*
X256125Y301100D01*
Y301113D01*
Y301137D01*
X256137Y301175D01*
X256150Y301238D01*
X256163Y301312D01*
X256188Y301413D01*
X256225Y301525D01*
X256275Y301650D01*
X259063Y308525D01*
X259075Y308550D01*
X259100Y308612D01*
X259162Y308687D01*
X259238Y308787D01*
X259337Y308888D01*
X259462Y308962D01*
X259612Y309025D01*
X259800Y309050D01*
X259862D01*
X259925Y309037D01*
X260013Y309013D01*
X260100Y308962D01*
X260200Y308900D01*
X260287Y308812D01*
X260375Y308700D01*
X260400Y308713D01*
X260450Y308763D01*
X260538Y308838D01*
X260650Y308912D01*
X260800Y308987D01*
X260975Y309063D01*
X261162Y309113D01*
X261375Y309125D01*
X261400D01*
X261475Y309113D01*
D02*
G37*
G36*
X267725Y307562D02*
X267812Y307550D01*
X267925Y307512D01*
X268025Y307450D01*
X268112Y307363D01*
X268175Y307238D01*
X268200Y307162D01*
Y307075D01*
Y307050D01*
X268187Y307000D01*
X268175Y306925D01*
X268125Y306838D01*
X268062Y306737D01*
X267963Y306663D01*
X267825Y306612D01*
X267738Y306588D01*
X266425D01*
X266375Y306600D01*
X266325D01*
X266200Y306638D01*
X266075Y306713D01*
Y306725D01*
X266050Y306737D01*
X266000Y306813D01*
X265950Y306925D01*
X265937Y307000D01*
X265925Y307075D01*
Y307087D01*
Y307113D01*
X265937Y307150D01*
Y307200D01*
X265987Y307325D01*
X266013Y307387D01*
X266062Y307437D01*
X266075Y307450D01*
X266088Y307463D01*
X266125Y307488D01*
X266175Y307512D01*
X266300Y307550D01*
X266375Y307575D01*
X267663D01*
X267725Y307562D01*
D02*
G37*
G36*
X287762Y309037D02*
X287825Y309025D01*
X287963Y308975D01*
X288037Y308938D01*
X288100Y308875D01*
X288112Y308862D01*
X288125Y308850D01*
X288150Y308812D01*
X288188Y308763D01*
X288250Y308637D01*
X288263Y308562D01*
X288275Y308475D01*
Y308463D01*
Y308450D01*
Y308413D01*
X288263Y308363D01*
X288238Y308238D01*
X288188Y308075D01*
X288112Y307925D01*
X286663Y304375D01*
X287400D01*
X287450Y304363D01*
X287575Y304350D01*
X287713Y304312D01*
X287838Y304250D01*
X287963Y304163D01*
X288013Y304100D01*
X288037Y304037D01*
X288063Y303950D01*
X288075Y303863D01*
Y303850D01*
Y303800D01*
X288063Y303737D01*
X288037Y303662D01*
X288013Y303575D01*
X287963Y303487D01*
X287900Y303400D01*
X287812Y303312D01*
X287800Y303300D01*
X287762Y303288D01*
X287700Y303250D01*
X287625Y303212D01*
X287525Y303175D01*
X287400Y303150D01*
X287250Y303125D01*
X287087Y303113D01*
X286150D01*
X286138Y303087D01*
X286112Y303025D01*
X286075Y302912D01*
X286013Y302763D01*
X285925Y302575D01*
X285825Y302350D01*
X285687Y302087D01*
X285538Y301800D01*
X285525Y301787D01*
X285500Y301737D01*
X285462Y301662D01*
X285400Y301575D01*
X285313Y301463D01*
X285225Y301338D01*
X285100Y301200D01*
X284975Y301075D01*
X284825Y300938D01*
X284663Y300800D01*
X284475Y300675D01*
X284275Y300563D01*
X284063Y300475D01*
X283825Y300400D01*
X283575Y300350D01*
X283313Y300338D01*
X283225D01*
X283162Y300350D01*
X283087D01*
X283000Y300362D01*
X282800Y300413D01*
X282562Y300475D01*
X282325Y300575D01*
X282075Y300712D01*
X281950Y300800D01*
X281838Y300900D01*
X281825Y300912D01*
X281813Y300925D01*
X281737Y301000D01*
X281650Y301125D01*
X281538Y301288D01*
X281425Y301487D01*
X281325Y301712D01*
X281250Y301988D01*
X281238Y302125D01*
X281225Y302275D01*
Y302288D01*
Y302300D01*
Y302375D01*
X281238Y302487D01*
X281262Y302625D01*
X281312Y302787D01*
X281363Y302975D01*
X281450Y303163D01*
X281562Y303350D01*
X281575Y303375D01*
X281625Y303437D01*
X281700Y303525D01*
X281787Y303638D01*
X281912Y303750D01*
X282063Y303875D01*
X282238Y304000D01*
X282425Y304100D01*
X282437D01*
X282450Y304113D01*
X282488Y304125D01*
X282538Y304137D01*
X282600Y304163D01*
X282675Y304187D01*
X282775Y304212D01*
X282875Y304238D01*
X283000Y304262D01*
X283125Y304288D01*
X283275Y304312D01*
X283437Y304338D01*
X283612Y304350D01*
X283800Y304363D01*
X284013Y304375D01*
X285175D01*
X285337Y304787D01*
X285325Y304775D01*
X285262Y304763D01*
X285188Y304737D01*
X285075Y304700D01*
X284963Y304662D01*
X284825Y304638D01*
X284687Y304625D01*
X284550Y304612D01*
X284450D01*
X284337Y304625D01*
X284188Y304650D01*
X284025Y304688D01*
X283862Y304750D01*
X283687Y304825D01*
X283538Y304925D01*
X283525Y304938D01*
X283475Y304988D01*
X283425Y305050D01*
X283350Y305150D01*
X283288Y305262D01*
X283225Y305400D01*
X283175Y305562D01*
X283162Y305737D01*
Y305750D01*
Y305800D01*
X283175Y305875D01*
X283200Y305975D01*
X283225Y306100D01*
X283262Y306262D01*
X283325Y306450D01*
X283413Y306663D01*
X284037Y308225D01*
X284100Y308387D01*
Y308400D01*
X284113Y308413D01*
X284150Y308488D01*
X284225Y308600D01*
X284313Y308725D01*
X284437Y308838D01*
X284588Y308950D01*
X284775Y309025D01*
X284862Y309037D01*
X284975Y309050D01*
X285013D01*
X285063Y309037D01*
X285125Y309025D01*
X285262Y308987D01*
X285337Y308938D01*
X285400Y308888D01*
X285413Y308875D01*
X285425Y308862D01*
X285450Y308825D01*
X285488Y308775D01*
X285550Y308650D01*
X285562Y308562D01*
X285575Y308475D01*
Y308463D01*
Y308437D01*
X285562Y308400D01*
X285550Y308337D01*
X285538Y308262D01*
X285512Y308175D01*
X285462Y308063D01*
X285413Y307925D01*
X284850Y306538D01*
Y306525D01*
X284825Y306487D01*
X284812Y306425D01*
X284788Y306363D01*
X284737Y306212D01*
X284725Y306150D01*
X284713Y306100D01*
Y306087D01*
Y306063D01*
X284725Y306013D01*
X284750Y305962D01*
X284788Y305912D01*
X284850Y305862D01*
X284938Y305837D01*
X285063Y305825D01*
X285113D01*
X285162Y305837D01*
X285238Y305850D01*
X285313Y305862D01*
X285413Y305888D01*
X285512Y305925D01*
X285613Y305975D01*
X285625Y305988D01*
X285663Y306000D01*
X285700Y306037D01*
X285763Y306075D01*
X285875Y306188D01*
X285925Y306262D01*
X285963Y306325D01*
X286750Y308225D01*
X286800Y308387D01*
Y308400D01*
X286812Y308413D01*
X286850Y308488D01*
X286925Y308600D01*
X287013Y308725D01*
X287138Y308838D01*
X287287Y308950D01*
X287462Y309025D01*
X287562Y309037D01*
X287675Y309050D01*
X287713D01*
X287762Y309037D01*
D02*
G37*
G36*
X281250Y309113D02*
X281325D01*
X281400Y309100D01*
X281600Y309063D01*
X281813Y309000D01*
X282050Y308900D01*
X282275Y308763D01*
X282387Y308687D01*
X282488Y308588D01*
X282500D01*
X282512Y308562D01*
X282575Y308488D01*
X282663Y308375D01*
X282763Y308212D01*
X282862Y308025D01*
X282950Y307787D01*
X283013Y307525D01*
X283037Y307375D01*
Y307225D01*
Y307212D01*
Y307200D01*
Y307162D01*
Y307125D01*
X283025Y307000D01*
X283000Y306838D01*
X282962Y306663D01*
X282912Y306450D01*
X282850Y306225D01*
X282750Y306000D01*
Y305988D01*
X282737Y305975D01*
X282700Y305900D01*
X282638Y305787D01*
X282550Y305650D01*
X282450Y305487D01*
X282312Y305325D01*
X282175Y305175D01*
X282013Y305025D01*
X282000Y305012D01*
X281962Y304988D01*
X281900Y304950D01*
X281825Y304900D01*
X281725Y304837D01*
X281625Y304787D01*
X281512Y304737D01*
X281387Y304700D01*
X281375D01*
X281325Y304688D01*
X281262Y304675D01*
X281163Y304662D01*
X281025Y304638D01*
X280875Y304625D01*
X280700Y304612D01*
X280338D01*
X280262Y304625D01*
X280175D01*
X279975Y304638D01*
X279763Y304662D01*
X279562Y304713D01*
X279375Y304763D01*
X279288Y304800D01*
X279225Y304837D01*
X279212Y304850D01*
X279187Y304862D01*
X279150Y304888D01*
X279100Y304938D01*
X278975Y305063D01*
X278837Y305238D01*
X278700Y305450D01*
X278575Y305725D01*
X278525Y305875D01*
X278487Y306050D01*
X278463Y306225D01*
X278450Y306413D01*
Y306425D01*
Y306463D01*
Y306525D01*
X278463Y306600D01*
X278475Y306687D01*
X278487Y306800D01*
X278513Y306925D01*
X278550Y307063D01*
X278638Y307363D01*
X278713Y307512D01*
X278787Y307675D01*
X278875Y307838D01*
X278975Y308000D01*
X279100Y308162D01*
X279238Y308313D01*
X279250Y308325D01*
X279275Y308350D01*
X279312Y308387D01*
X279375Y308437D01*
X279450Y308500D01*
X279550Y308575D01*
X279650Y308637D01*
X279763Y308725D01*
X279900Y308800D01*
X280037Y308862D01*
X280363Y309000D01*
X280538Y309050D01*
X280725Y309087D01*
X280912Y309113D01*
X281113Y309125D01*
X281188D01*
X281250Y309113D01*
D02*
G37*
G36*
X256713Y309037D02*
X256763Y309025D01*
X256900Y308987D01*
X256975Y308938D01*
X257037Y308888D01*
X257050Y308875D01*
X257063Y308862D01*
X257100Y308825D01*
X257137Y308775D01*
X257200Y308650D01*
X257212Y308575D01*
X257225Y308488D01*
Y308475D01*
Y308450D01*
X257212Y308413D01*
X257200Y308350D01*
X257188Y308275D01*
X257162Y308175D01*
X257113Y308063D01*
X257063Y307925D01*
X256238Y305875D01*
X256950D01*
X257000Y305862D01*
X257125Y305850D01*
X257262Y305813D01*
X257387Y305750D01*
X257512Y305650D01*
X257562Y305600D01*
X257588Y305525D01*
X257612Y305437D01*
X257625Y305350D01*
Y305338D01*
Y305288D01*
X257612Y305225D01*
X257588Y305150D01*
X257562Y305063D01*
X257512Y304975D01*
X257450Y304888D01*
X257363Y304800D01*
X257350Y304787D01*
X257312Y304775D01*
X257250Y304737D01*
X257175Y304713D01*
X257075Y304675D01*
X256950Y304638D01*
X256813Y304625D01*
X256650Y304612D01*
X255638D01*
X255550Y304625D01*
X255437Y304638D01*
X255300Y304662D01*
X255175Y304700D01*
X255037Y304750D01*
X254925Y304813D01*
X254912Y304825D01*
X254875Y304850D01*
X254837Y304900D01*
X254787Y304962D01*
X254725Y305050D01*
X254688Y305150D01*
X254650Y305262D01*
X254638Y305387D01*
Y305400D01*
Y305425D01*
X254650Y305463D01*
Y305525D01*
X254662Y305588D01*
X254688Y305675D01*
X254750Y305875D01*
X255700Y308225D01*
X255775Y308387D01*
Y308400D01*
X255787Y308413D01*
X255825Y308488D01*
X255888Y308600D01*
X255975Y308725D01*
X256100Y308838D01*
X256250Y308950D01*
X256425Y309025D01*
X256525Y309037D01*
X256625Y309050D01*
X256663D01*
X256713Y309037D01*
D02*
G37*
G36*
X252238Y312600D02*
X252288Y312587D01*
X252425Y312550D01*
X252500Y312500D01*
X252562Y312450D01*
X252575Y312438D01*
X252588Y312425D01*
X252612Y312387D01*
X252650Y312337D01*
X252712Y312212D01*
X252725Y312150D01*
X252737Y312063D01*
Y312050D01*
Y312025D01*
X252725Y311987D01*
X252712Y311925D01*
X252700Y311850D01*
X252675Y311750D01*
X252625Y311637D01*
X252575Y311512D01*
X251475Y308800D01*
X251487D01*
X251500Y308812D01*
X251575Y308850D01*
X251688Y308900D01*
X251837Y308962D01*
X251988Y309025D01*
X252163Y309075D01*
X252325Y309113D01*
X252487Y309125D01*
X252575D01*
X252675Y309113D01*
X252813Y309087D01*
X252950Y309050D01*
X253100Y308987D01*
X253262Y308912D01*
X253400Y308812D01*
X253413Y308800D01*
X253463Y308763D01*
X253513Y308687D01*
X253588Y308600D01*
X253650Y308475D01*
X253713Y308337D01*
X253750Y308188D01*
X253763Y308013D01*
Y308000D01*
Y307962D01*
X253750Y307900D01*
Y307825D01*
X253725Y307737D01*
X253700Y307625D01*
X253662Y307512D01*
X253612Y307387D01*
X253000Y305875D01*
X253737D01*
X253787Y305862D01*
X253912Y305850D01*
X254050Y305813D01*
X254175Y305750D01*
X254300Y305650D01*
X254350Y305600D01*
X254375Y305525D01*
X254400Y305437D01*
X254413Y305350D01*
Y305338D01*
Y305288D01*
X254400Y305225D01*
X254375Y305150D01*
X254350Y305063D01*
X254300Y304975D01*
X254238Y304888D01*
X254150Y304800D01*
X254137Y304787D01*
X254100Y304775D01*
X254037Y304737D01*
X253962Y304713D01*
X253863Y304675D01*
X253737Y304638D01*
X253588Y304625D01*
X253425Y304612D01*
X252187D01*
X252125Y304625D01*
X252038Y304638D01*
X251938Y304662D01*
X251837Y304700D01*
X251737Y304750D01*
X251638Y304813D01*
X251625Y304825D01*
X251600Y304850D01*
X251562Y304900D01*
X251513Y304962D01*
X251463Y305037D01*
X251425Y305125D01*
X251400Y305225D01*
X251388Y305338D01*
Y305350D01*
Y305375D01*
X251400Y305413D01*
Y305475D01*
X251413Y305550D01*
X251437Y305650D01*
X251475Y305750D01*
X251513Y305862D01*
X252050Y307175D01*
Y307188D01*
X252063Y307212D01*
X252087Y307262D01*
X252100Y307312D01*
X252137Y307437D01*
X252150Y307550D01*
Y307562D01*
X252137Y307600D01*
X252125Y307663D01*
X252100Y307725D01*
X252038Y307775D01*
X251962Y307838D01*
X251850Y307875D01*
X251700Y307888D01*
X251675D01*
X251600Y307875D01*
X251487Y307838D01*
X251350Y307763D01*
X251275Y307713D01*
X251200Y307638D01*
X251113Y307562D01*
X251025Y307463D01*
X250950Y307350D01*
X250863Y307212D01*
X250775Y307050D01*
X250700Y306875D01*
X250050Y305275D01*
Y305262D01*
X250038Y305238D01*
X250012Y305200D01*
X250000Y305163D01*
X249925Y305037D01*
X249825Y304900D01*
X249700Y304763D01*
X249537Y304638D01*
X249450Y304600D01*
X249350Y304562D01*
X249250Y304538D01*
X249137Y304525D01*
X249100D01*
X249050Y304538D01*
X249000Y304550D01*
X248875Y304588D01*
X248800Y304625D01*
X248738Y304675D01*
X248725Y304688D01*
X248712Y304700D01*
X248662Y304775D01*
X248600Y304888D01*
X248587Y304962D01*
X248575Y305037D01*
Y305050D01*
Y305063D01*
Y305100D01*
X248587Y305150D01*
X248612Y305262D01*
X248650Y305413D01*
X248725Y305575D01*
X251250Y311800D01*
Y311812D01*
X251262Y311838D01*
X251288Y311875D01*
X251312Y311925D01*
X251388Y312063D01*
X251487Y312212D01*
X251612Y312350D01*
X251763Y312488D01*
X251850Y312538D01*
X251950Y312575D01*
X252050Y312600D01*
X252150Y312613D01*
X252187D01*
X252238Y312600D01*
D02*
G37*
G36*
X247887Y312637D02*
X247950D01*
X248038Y312625D01*
X248237Y312587D01*
X248463Y312525D01*
X248700Y312425D01*
X248938Y312287D01*
X249050Y312212D01*
X249163Y312112D01*
X249175D01*
X249187Y312087D01*
X249250Y312013D01*
X249338Y311900D01*
X249450Y311750D01*
X249550Y311550D01*
X249638Y311325D01*
X249700Y311063D01*
X249725Y310925D01*
Y310775D01*
Y310763D01*
Y310725D01*
X249712Y310663D01*
Y310588D01*
X249688Y310488D01*
X249662Y310375D01*
X249638Y310250D01*
X249587Y310113D01*
X249537Y309975D01*
X249463Y309825D01*
X249375Y309675D01*
X249262Y309525D01*
X249137Y309387D01*
X249000Y309250D01*
X248825Y309113D01*
X248638Y308987D01*
X248625D01*
X248600Y308975D01*
X248563Y308950D01*
X248500Y308925D01*
X248412Y308888D01*
X248325Y308862D01*
X248200Y308825D01*
X248075Y308787D01*
X247913Y308737D01*
X247738Y308700D01*
X247550Y308675D01*
X247338Y308637D01*
X247112Y308612D01*
X246863Y308588D01*
X246587Y308575D01*
X244788D01*
X244775Y308562D01*
X244750Y308512D01*
X244712Y308437D01*
X244675Y308337D01*
X244613Y308212D01*
X244550Y308075D01*
X244475Y307912D01*
X244412Y307725D01*
X244338Y307538D01*
X244263Y307325D01*
X244150Y306888D01*
X244100Y306663D01*
X244062Y306437D01*
X244038Y306212D01*
X244025Y305988D01*
Y305975D01*
Y305950D01*
Y305912D01*
X244038Y305850D01*
X244050Y305700D01*
X244075Y305512D01*
X244112Y305312D01*
X244187Y305113D01*
X244275Y304938D01*
X244400Y304775D01*
X244425Y304763D01*
X244475Y304725D01*
X244575Y304662D01*
X244700Y304600D01*
X244887Y304525D01*
X245100Y304475D01*
X245362Y304425D01*
X245675Y304413D01*
X248975D01*
X249025Y304400D01*
X249150Y304387D01*
X249300Y304350D01*
X249450Y304288D01*
X249575Y304187D01*
X249625Y304125D01*
X249662Y304050D01*
X249688Y303975D01*
X249700Y303875D01*
Y303863D01*
Y303813D01*
X249688Y303737D01*
X249662Y303650D01*
X249625Y303550D01*
X249575Y303437D01*
X249513Y303338D01*
X249412Y303250D01*
X249400Y303238D01*
X249362Y303212D01*
X249300Y303175D01*
X249213Y303137D01*
X249100Y303100D01*
X248962Y303063D01*
X248813Y303038D01*
X248625Y303025D01*
X245125D01*
X245050Y303038D01*
X244975D01*
X244775Y303050D01*
X244563Y303087D01*
X244338Y303125D01*
X244112Y303187D01*
X243913Y303262D01*
X243900D01*
X243887Y303275D01*
X243850Y303300D01*
X243800Y303325D01*
X243675Y303400D01*
X243513Y303513D01*
X243337Y303650D01*
X243150Y303825D01*
X242975Y304025D01*
X242812Y304262D01*
Y304275D01*
X242800Y304288D01*
X242775Y304325D01*
X242750Y304375D01*
X242725Y304437D01*
X242688Y304513D01*
X242625Y304700D01*
X242550Y304925D01*
X242488Y305188D01*
X242438Y305487D01*
X242425Y305800D01*
Y305813D01*
Y305850D01*
Y305912D01*
X242438Y306000D01*
X242450Y306113D01*
X242462Y306250D01*
X242488Y306400D01*
X242512Y306575D01*
X242550Y306775D01*
X242600Y306988D01*
X242650Y307212D01*
X242725Y307463D01*
X242800Y307713D01*
X242900Y307987D01*
X243000Y308275D01*
X243125Y308575D01*
X242625D01*
X242550Y308588D01*
X242450Y308600D01*
X242325Y308650D01*
X242200Y308713D01*
X242100Y308812D01*
X242025Y308950D01*
X242013Y309025D01*
X242000Y309125D01*
Y309138D01*
Y309188D01*
X242013Y309250D01*
X242038Y309325D01*
X242062Y309425D01*
X242112Y309525D01*
X242175Y309625D01*
X242263Y309713D01*
X242275Y309725D01*
X242313Y309750D01*
X242362Y309788D01*
X242438Y309838D01*
X242537Y309888D01*
X242650Y309925D01*
X242775Y309950D01*
X242913Y309963D01*
X243913D01*
X243925Y309975D01*
X243937Y310000D01*
X243963Y310050D01*
X244012Y310113D01*
X244062Y310188D01*
X244125Y310275D01*
X244275Y310500D01*
X244475Y310750D01*
X244725Y311025D01*
X245000Y311325D01*
X245312Y311625D01*
X245325Y311637D01*
X245362Y311675D01*
X245425Y311725D01*
X245513Y311788D01*
X245613Y311862D01*
X245738Y311950D01*
X245875Y312037D01*
X246038Y312138D01*
X246213Y312238D01*
X246400Y312325D01*
X246813Y312488D01*
X247038Y312550D01*
X247263Y312613D01*
X247500Y312637D01*
X247738Y312650D01*
X247825D01*
X247887Y312637D01*
D02*
G37*
G36*
X276238Y312512D02*
X276338D01*
X276437Y312500D01*
X276700Y312462D01*
X276975Y312400D01*
X277275Y312313D01*
X277562Y312188D01*
X277813Y312013D01*
X277825D01*
X277837Y311987D01*
X277912Y311925D01*
X278012Y311800D01*
X278125Y311650D01*
X278238Y311450D01*
X278338Y311200D01*
X278413Y310912D01*
X278425Y310763D01*
X278437Y310588D01*
Y310575D01*
Y310550D01*
Y310512D01*
X278425Y310450D01*
Y310387D01*
X278413Y310300D01*
X278375Y310113D01*
X278325Y309888D01*
X278238Y309650D01*
X278125Y309400D01*
X277962Y309150D01*
Y309138D01*
X277938Y309125D01*
X277875Y309050D01*
X277775Y308938D01*
X277638Y308800D01*
X277463Y308650D01*
X277250Y308500D01*
X277000Y308363D01*
X276725Y308250D01*
X276737D01*
X276775Y308225D01*
X276825Y308188D01*
X276887Y308150D01*
X276975Y308087D01*
X277063Y308013D01*
X277163Y307938D01*
X277262Y307838D01*
X277350Y307713D01*
X277450Y307588D01*
X277537Y307437D01*
X277625Y307275D01*
X277688Y307100D01*
X277737Y306912D01*
X277775Y306700D01*
X277787Y306475D01*
Y306463D01*
Y306437D01*
Y306400D01*
X277775Y306337D01*
Y306262D01*
X277763Y306175D01*
X277737Y305975D01*
X277675Y305725D01*
X277600Y305463D01*
X277487Y305175D01*
X277338Y304888D01*
Y304875D01*
X277312Y304850D01*
X277288Y304813D01*
X277262Y304763D01*
X277163Y304625D01*
X277025Y304450D01*
X276863Y304250D01*
X276662Y304050D01*
X276437Y303850D01*
X276187Y303662D01*
X276175Y303650D01*
X276137Y303638D01*
X276087Y303600D01*
X276000Y303562D01*
X275900Y303513D01*
X275775Y303463D01*
X275625Y303400D01*
X275463Y303350D01*
X275262Y303288D01*
X275050Y303225D01*
X274800Y303175D01*
X274537Y303125D01*
X274262Y303087D01*
X273950Y303050D01*
X273612Y303038D01*
X273263Y303025D01*
X272412D01*
X272338Y302875D01*
Y302863D01*
X272325Y302837D01*
X272300Y302787D01*
X272275Y302725D01*
X272237Y302650D01*
X272200Y302575D01*
X272112Y302375D01*
X272012Y302163D01*
X271900Y301962D01*
X271800Y301763D01*
X271700Y301600D01*
X271688Y301588D01*
X271662Y301537D01*
X271613Y301463D01*
X271537Y301375D01*
X271462Y301262D01*
X271362Y301137D01*
X271237Y301012D01*
X271112Y300887D01*
X271100Y300875D01*
X271062Y300850D01*
X271012Y300800D01*
X270937Y300750D01*
X270850Y300688D01*
X270738Y300612D01*
X270613Y300525D01*
X270475Y300450D01*
X270312Y300362D01*
X270150Y300275D01*
X269762Y300137D01*
X269563Y300087D01*
X269350Y300038D01*
X269125Y300012D01*
X268900Y300000D01*
X268800D01*
X268738Y300012D01*
X268650Y300025D01*
X268550Y300038D01*
X268313Y300075D01*
X268050Y300150D01*
X267762Y300262D01*
X267625Y300325D01*
X267488Y300413D01*
X267350Y300500D01*
X267225Y300612D01*
X267213Y300625D01*
X267200Y300638D01*
X267162Y300675D01*
X267125Y300725D01*
X267075Y300775D01*
X267013Y300850D01*
X266900Y301025D01*
X266775Y301250D01*
X266663Y301513D01*
X266587Y301813D01*
X266575Y301975D01*
X266563Y302150D01*
Y302163D01*
Y302175D01*
Y302250D01*
X266575Y302362D01*
X266600Y302513D01*
X266637Y302675D01*
X266687Y302863D01*
X266750Y303063D01*
X266850Y303262D01*
X266863Y303288D01*
X266900Y303350D01*
X266963Y303437D01*
X267050Y303550D01*
X267162Y303675D01*
X267300Y303813D01*
X267450Y303938D01*
X267625Y304050D01*
X267637D01*
X267650Y304063D01*
X267688Y304087D01*
X267738Y304113D01*
X267800Y304137D01*
X267875Y304163D01*
X267963Y304200D01*
X268062Y304238D01*
X268187Y304262D01*
X268313Y304300D01*
X268600Y304363D01*
X268937Y304400D01*
X269325Y304413D01*
X271350D01*
X274088Y311138D01*
X273250D01*
X273175Y311150D01*
X273075Y311162D01*
X272962Y311212D01*
X272837Y311275D01*
X272738Y311375D01*
X272662Y311512D01*
X272650Y311588D01*
X272638Y311687D01*
Y311700D01*
Y311750D01*
X272650Y311812D01*
X272675Y311888D01*
X272700Y311987D01*
X272750Y312087D01*
X272813Y312188D01*
X272900Y312275D01*
X272913Y312287D01*
X272950Y312313D01*
X273000Y312350D01*
X273075Y312400D01*
X273175Y312450D01*
X273275Y312488D01*
X273400Y312512D01*
X273537Y312525D01*
X276163D01*
X276238Y312512D01*
D02*
G37*
%LPC*%
G36*
X295887Y312548D02*
X295880Y312541D01*
X295854Y312521D01*
X295814Y312494D01*
X295754Y312448D01*
X295680Y312388D01*
X295587Y312321D01*
X295481Y312235D01*
X295361Y312141D01*
X295214Y312028D01*
X295061Y311908D01*
X294888Y311769D01*
X294695Y311622D01*
X294482Y311455D01*
X294262Y311282D01*
X294016Y311089D01*
X293756Y310883D01*
X293429Y311755D01*
X291258Y308139D01*
X293416Y309970D01*
X293789Y308965D01*
X295887Y312548D01*
D02*
G37*
G36*
X260963Y307987D02*
X260838D01*
X260763Y307975D01*
X260663Y307950D01*
X260538Y307900D01*
X260400Y307825D01*
X260262Y307700D01*
X260188Y307625D01*
X260125Y307525D01*
X260063Y307425D01*
X260013Y307300D01*
Y307288D01*
X260000Y307262D01*
X259975Y307175D01*
X259588Y306238D01*
X259600Y306225D01*
X259612Y306200D01*
X259637Y306150D01*
X259675Y306100D01*
X259763Y306000D01*
X259800Y305950D01*
X259850Y305912D01*
X259862D01*
X259875Y305900D01*
X259912Y305888D01*
X259950Y305875D01*
X260013Y305862D01*
X260087Y305850D01*
X260175Y305837D01*
X260337D01*
X260413Y305850D01*
X260512Y305875D01*
X260613Y305912D01*
X260725Y305962D01*
X260825Y306037D01*
X260925Y306137D01*
Y306150D01*
X260950Y306163D01*
X260975Y306200D01*
X261000Y306250D01*
X261075Y306375D01*
X261162Y306538D01*
X261250Y306725D01*
X261325Y306938D01*
X261375Y307175D01*
X261400Y307413D01*
Y307425D01*
Y307437D01*
X261387Y307500D01*
X261375Y307600D01*
X261337Y307700D01*
X261275Y307800D01*
X261175Y307900D01*
X261037Y307962D01*
X260963Y307987D01*
D02*
G37*
G36*
X284763Y303113D02*
X283825D01*
X283737Y303100D01*
X283637Y303087D01*
X283525Y303075D01*
X283288Y303012D01*
X283050Y302912D01*
X282938Y302850D01*
X282838Y302763D01*
X282750Y302675D01*
X282687Y302562D01*
X282638Y302437D01*
X282625Y302288D01*
Y302275D01*
Y302238D01*
X282638Y302187D01*
X282650Y302113D01*
X282675Y302038D01*
X282700Y301962D01*
X282750Y301887D01*
X282812Y301813D01*
X282825Y301800D01*
X282850Y301787D01*
X282888Y301750D01*
X282938Y301725D01*
X283000Y301688D01*
X283087Y301650D01*
X283188Y301638D01*
X283288Y301625D01*
X283363D01*
X283437Y301638D01*
X283538Y301662D01*
X283663Y301712D01*
X283787Y301763D01*
X283912Y301850D01*
X284037Y301962D01*
X284050Y301975D01*
X284100Y302025D01*
X284162Y302113D01*
X284250Y302225D01*
X284363Y302387D01*
X284488Y302588D01*
X284625Y302825D01*
X284763Y303113D01*
D02*
G37*
G36*
X280975Y307888D02*
X280900D01*
X280825Y307862D01*
X280725Y307838D01*
X280600Y307787D01*
X280475Y307713D01*
X280338Y307600D01*
X280200Y307463D01*
X280188Y307437D01*
X280150Y307387D01*
X280087Y307300D01*
X280025Y307188D01*
X279962Y307050D01*
X279900Y306888D01*
X279862Y306713D01*
X279850Y306525D01*
Y306512D01*
Y306500D01*
X279862Y306425D01*
X279888Y306312D01*
X279938Y306200D01*
X280025Y306075D01*
X280087Y306013D01*
X280163Y305962D01*
X280250Y305925D01*
X280350Y305888D01*
X280463Y305875D01*
X280588Y305862D01*
X280662D01*
X280737Y305875D01*
X280837Y305900D01*
X280950Y305925D01*
X281063Y305975D01*
X281163Y306037D01*
X281262Y306125D01*
X281275Y306150D01*
X281325Y306200D01*
X281387Y306300D01*
X281463Y306425D01*
X281538Y306575D01*
X281600Y306750D01*
X281650Y306938D01*
X281663Y307150D01*
Y307162D01*
Y307200D01*
X281650Y307262D01*
X281638Y307337D01*
X281612Y307425D01*
X281575Y307512D01*
X281525Y307600D01*
X281463Y307675D01*
X281450Y307687D01*
X281425Y307713D01*
X281387Y307737D01*
X281337Y307787D01*
X281262Y307825D01*
X281175Y307850D01*
X281087Y307875D01*
X280975Y307888D01*
D02*
G37*
G36*
X247537Y311287D02*
X247463D01*
X247375Y311275D01*
X247250Y311238D01*
X247112Y311200D01*
X246950Y311138D01*
X246775Y311050D01*
X246587Y310925D01*
X246563Y310912D01*
X246500Y310862D01*
X246400Y310775D01*
X246275Y310675D01*
X246137Y310525D01*
X245975Y310363D01*
X245813Y310175D01*
X245650Y309963D01*
X246913D01*
X247000Y309975D01*
X247112Y309987D01*
X247225Y310000D01*
X247500Y310063D01*
X247762Y310150D01*
X247875Y310212D01*
X247988Y310287D01*
X248075Y310375D01*
X248150Y310475D01*
X248200Y310588D01*
X248213Y310725D01*
Y310737D01*
Y310763D01*
X248200Y310812D01*
X248187Y310875D01*
X248163Y310938D01*
X248125Y311000D01*
X248075Y311063D01*
X248012Y311125D01*
X248000Y311138D01*
X247975Y311150D01*
X247937Y311175D01*
X247887Y311212D01*
X247813Y311238D01*
X247738Y311262D01*
X247638Y311275D01*
X247537Y311287D01*
D02*
G37*
G36*
X275975Y311138D02*
X275712D01*
X274825Y308962D01*
X275250D01*
X275312Y308975D01*
X275450Y308987D01*
X275638Y309013D01*
X275837Y309063D01*
X276038Y309125D01*
X276225Y309225D01*
X276400Y309350D01*
X276413Y309363D01*
X276437Y309387D01*
X276475Y309425D01*
X276537Y309488D01*
X276588Y309550D01*
X276650Y309637D01*
X276712Y309737D01*
X276775Y309850D01*
X276787Y309862D01*
X276800Y309900D01*
X276825Y309963D01*
X276850Y310037D01*
X276875Y310125D01*
X276900Y310225D01*
X276925Y310337D01*
Y310437D01*
Y310462D01*
Y310512D01*
X276900Y310600D01*
X276875Y310700D01*
X276825Y310800D01*
X276750Y310900D01*
X276638Y310987D01*
X276500Y311063D01*
X276487D01*
X276463Y311075D01*
X276413Y311087D01*
X276350Y311100D01*
X276250Y311112D01*
X276137Y311125D01*
X275975Y311138D01*
D02*
G37*
G36*
X274738Y307588D02*
X274262D01*
X272975Y304413D01*
X273575D01*
X273650Y304425D01*
X273762D01*
X273875Y304437D01*
X274012Y304450D01*
X274150Y304463D01*
X274450Y304513D01*
X274775Y304588D01*
X275075Y304700D01*
X275213Y304763D01*
X275338Y304837D01*
X275350Y304850D01*
X275413Y304888D01*
X275487Y304950D01*
X275575Y305037D01*
X275688Y305137D01*
X275800Y305275D01*
X275912Y305425D01*
X276012Y305588D01*
X276025Y305612D01*
X276050Y305675D01*
X276100Y305763D01*
X276150Y305888D01*
X276187Y306037D01*
X276238Y306200D01*
X276262Y306375D01*
X276275Y306550D01*
Y306562D01*
Y306575D01*
Y306638D01*
X276262Y306737D01*
X276238Y306862D01*
X276187Y306988D01*
X276125Y307125D01*
X276038Y307250D01*
X275925Y307350D01*
X275912Y307363D01*
X275863Y307387D01*
X275775Y307425D01*
X275650Y307475D01*
X275487Y307512D01*
X275288Y307550D01*
X275038Y307575D01*
X274738Y307588D01*
D02*
G37*
G36*
X270788Y303025D02*
X269175D01*
X269100Y303012D01*
X269012Y303000D01*
X268925Y302988D01*
X268725Y302925D01*
X268513Y302825D01*
X268425Y302763D01*
X268337Y302688D01*
X268263Y302600D01*
X268213Y302487D01*
X268175Y302362D01*
X268162Y302225D01*
Y302213D01*
Y302175D01*
X268175Y302113D01*
X268187Y302038D01*
X268225Y301950D01*
X268263Y301863D01*
X268325Y301763D01*
X268400Y301675D01*
X268412Y301662D01*
X268450Y301638D01*
X268500Y301600D01*
X268575Y301562D01*
X268663Y301525D01*
X268762Y301487D01*
X268875Y301463D01*
X269000Y301450D01*
X269025D01*
X269088Y301463D01*
X269187Y301475D01*
X269325Y301500D01*
X269475Y301550D01*
X269650Y301625D01*
X269825Y301737D01*
X270000Y301875D01*
X270025Y301900D01*
X270075Y301950D01*
X270163Y302050D01*
X270275Y302175D01*
X270400Y302338D01*
X270537Y302537D01*
X270662Y302763D01*
X270788Y303025D01*
D02*
G37*
%LPD*%
D10*
X391795Y243689D02*
G03*
X391795Y243689I-394J0D01*
G01*
Y292689D02*
G03*
X391795Y292689I-394J0D01*
G01*
X303689Y334579D02*
G03*
X303689Y334579I-394J0D01*
G01*
X390051Y382465D02*
G03*
X390051Y382465I-394J0D01*
G01*
X430394Y404795D02*
G03*
X430394Y404795I-394J0D01*
G01*
X369390Y380602D02*
G03*
X369390Y379815I0J-394D01*
G01*
D02*
G03*
X369390Y380602I0J394D01*
G01*
X237804Y404093D02*
G03*
X237804Y404093I-394J0D01*
G01*
X335232Y306685D02*
G03*
X335232Y306685I-394J0D01*
G01*
X372732D02*
G03*
X372732Y306685I-394J0D01*
G01*
X430394Y380795D02*
G03*
X430394Y380795I-394J0D01*
G01*
X391795Y268189D02*
G03*
X391795Y268189I-394J0D01*
G01*
Y218689D02*
G03*
X391795Y218689I-394J0D01*
G01*
X484146Y381374D02*
G03*
X484146Y381374I-394J0D01*
G01*
X371867Y366904D02*
G03*
X371867Y366904I-394J0D01*
G01*
X238343Y289904D02*
G03*
X238343Y289904I-394J0D01*
G01*
X300894Y432205D02*
G03*
X300894Y432205I-394J0D01*
G01*
X583394Y358465D02*
G03*
X583394Y358465I-394J0D01*
G01*
X240508Y294904D02*
X290508D01*
X240508Y284904D02*
X290508D01*
X240508D02*
Y294904D01*
X290508Y284904D02*
Y294904D01*
D11*
X269583Y422299D02*
G03*
X269583Y422299I-500J0D01*
G01*
X586799Y388917D02*
G03*
X586799Y388917I-500J0D01*
G01*
Y283917D02*
G03*
X586799Y283917I-500J0D01*
G01*
D12*
X417745Y404404D02*
G03*
X417745Y404404I-19237J0D01*
G01*
X387268Y248610D02*
X390181D01*
X387268D02*
Y262390D01*
X390181D01*
X417819D02*
X420732D01*
Y248610D02*
Y262390D01*
X417819Y248610D02*
X420732D01*
X417819Y297610D02*
X420732D01*
Y311390D01*
X417819D02*
X420732D01*
X387268D02*
X390181D01*
X387268Y297610D02*
Y311390D01*
Y297610D02*
X390181D01*
X295500Y216500D02*
Y296500D01*
X375500D01*
Y216500D02*
Y296500D01*
X295500Y216500D02*
X375500D01*
X283217Y317098D02*
Y323161D01*
X247783Y317098D02*
Y323161D01*
Y317098D02*
X283217D01*
X230500Y405839D02*
X300500D01*
Y323161D02*
Y405839D01*
X230500Y323161D02*
X247783D01*
X283217D02*
X300500D01*
X230500D02*
Y405839D01*
X414146Y322622D02*
X423910D01*
X375091D02*
X384854D01*
X423910D02*
Y335929D01*
Y362071D02*
Y375378D01*
X414146D02*
X423910D01*
X375091D02*
X384854D01*
X394461D02*
X404539D01*
X375091Y322622D02*
Y335929D01*
Y362071D02*
Y375378D01*
X263827Y409014D02*
X266741D01*
Y422793D01*
X263827D02*
X266741D01*
X233276D02*
X236190D01*
X233276Y409014D02*
Y422793D01*
Y409014D02*
X236190D01*
X305508Y316409D02*
Y324992D01*
Y299008D02*
Y307591D01*
X331492Y316409D02*
Y321055D01*
Y302945D02*
Y307591D01*
X327555Y299008D02*
X331492Y302945D01*
X305508Y299008D02*
X327555D01*
X305508Y324992D02*
X327555D01*
X331492Y321055D01*
X343008Y316409D02*
Y324992D01*
Y299008D02*
Y307591D01*
X368992Y316409D02*
Y321055D01*
Y302945D02*
Y307591D01*
X365055Y299008D02*
X368992Y302945D01*
X343008Y299008D02*
X365055D01*
X343008Y324992D02*
X365055D01*
X368992Y321055D01*
X387268Y273110D02*
X390181D01*
X387268D02*
Y286890D01*
X390181D01*
X417819D02*
X420732D01*
Y273110D02*
Y286890D01*
X417819Y273110D02*
X420732D01*
X417819Y223610D02*
X420732D01*
Y237390D01*
X417819D02*
X420732D01*
X387268D02*
X390181D01*
X387268Y223610D02*
Y237390D01*
Y223610D02*
X390181D01*
X368993Y361904D02*
Y371904D01*
X307024D02*
X368993D01*
X307024Y361904D02*
Y371904D01*
Y361904D02*
X368993D01*
X588000Y294016D02*
Y355984D01*
X578000Y294016D02*
X588000D01*
X578000D02*
Y355984D01*
X588000D01*
X422000Y423000D02*
Y421667D01*
X422666Y422334D02*
X421333D01*
X422000Y413003D02*
Y411670D01*
X422500Y387500D02*
Y388833D01*
X421834Y388166D02*
X423167D01*
X422500Y397497D02*
Y398830D01*
X400166Y268999D02*
X398500D01*
Y267750D01*
X399333D01*
X398500D01*
Y266500D01*
X400999Y268999D02*
Y266500D01*
X402665D01*
X403498D02*
Y268166D01*
X404331Y268999D01*
X405164Y268166D01*
Y266500D01*
Y267750D01*
X403498D01*
X407664Y268583D02*
X407247Y268999D01*
X406414D01*
X405998Y268583D01*
Y268166D01*
X406414Y267750D01*
X407247D01*
X407664Y267333D01*
Y266916D01*
X407247Y266500D01*
X406414D01*
X405998Y266916D01*
X408497Y268999D02*
Y266500D01*
Y267750D01*
X410163D01*
Y268999D01*
Y266500D01*
X398500Y293499D02*
Y291000D01*
X400166D01*
X400999D02*
Y292666D01*
X401832Y293499D01*
X402665Y292666D01*
Y291000D01*
Y292250D01*
X400999D01*
X405164Y293083D02*
X404748Y293499D01*
X403915D01*
X403498Y293083D01*
Y292666D01*
X403915Y292250D01*
X404748D01*
X405164Y291833D01*
Y291417D01*
X404748Y291000D01*
X403915D01*
X403498Y291417D01*
X407664Y293499D02*
X405998D01*
Y291000D01*
X407664D01*
X405998Y292250D02*
X406831D01*
X408497Y291000D02*
Y293499D01*
X409746D01*
X410163Y293083D01*
Y292250D01*
X409746Y291833D01*
X408497D01*
X409330D02*
X410163Y291000D01*
X399918Y244250D02*
X401584D01*
X400751D01*
Y241750D01*
X403667Y244250D02*
X402834D01*
X402417Y243833D01*
Y242167D01*
X402834Y241750D01*
X403667D01*
X404083Y242167D01*
Y243833D01*
X403667Y244250D01*
X404916Y241750D02*
Y244250D01*
X406583Y241750D01*
Y244250D01*
X409082D02*
X407416D01*
Y241750D01*
X409082D01*
X407416Y243000D02*
X408249D01*
X246500Y417499D02*
Y415500D01*
X247833D01*
X249832Y417499D02*
X248499D01*
Y415500D01*
X249832D01*
X248499Y416500D02*
X249166D01*
X250499Y417499D02*
Y415500D01*
X251498D01*
X251832Y415833D01*
Y417166D01*
X251498Y417499D01*
X250499D01*
X252498Y417166D02*
X252831Y417499D01*
X253498D01*
X253831Y417166D01*
Y416833D01*
X253498Y416500D01*
X253165D01*
X253498D01*
X253831Y416166D01*
Y415833D01*
X253498Y415500D01*
X252831D01*
X252498Y415833D01*
X572501Y269000D02*
X574500D01*
Y270333D01*
X572501Y272332D02*
Y270999D01*
X574500D01*
Y272332D01*
X573500Y270999D02*
Y271666D01*
X572501Y272999D02*
X574500D01*
Y273998D01*
X574167Y274332D01*
X572834D01*
X572501Y273998D01*
Y272999D01*
X574500Y276331D02*
Y274998D01*
X573167Y276331D01*
X572834D01*
X572501Y275998D01*
Y275331D01*
X572834Y274998D01*
X572501Y374000D02*
X574500D01*
Y375333D01*
X572501Y377332D02*
Y375999D01*
X574500D01*
Y377332D01*
X573500Y375999D02*
Y376666D01*
X572501Y377999D02*
X574500D01*
Y378998D01*
X574167Y379332D01*
X572834D01*
X572501Y378998D01*
Y377999D01*
X574500Y379998D02*
Y380664D01*
Y380331D01*
X572501D01*
X572834Y379998D01*
X230001Y412333D02*
Y411000D01*
X231000D01*
Y411666D01*
Y411000D01*
X232000D01*
X230001Y412999D02*
X232000D01*
Y414332D01*
Y414999D02*
X230667D01*
X230001Y415665D01*
X230667Y416332D01*
X232000D01*
X231000D01*
Y414999D01*
X230334Y418331D02*
X230001Y417998D01*
Y417331D01*
X230334Y416998D01*
X230667D01*
X231000Y417331D01*
Y417998D01*
X231334Y418331D01*
X231667D01*
X232000Y417998D01*
Y417331D01*
X231667Y416998D01*
X230001Y418997D02*
X232000D01*
X231000D01*
Y420330D01*
X230001D01*
X232000D01*
X520333Y247166D02*
X520000Y247499D01*
X519333D01*
X519000Y247166D01*
Y245833D01*
X519333Y245500D01*
X520000D01*
X520333Y245833D01*
Y246500D01*
X519666D01*
X520999Y245500D02*
Y247499D01*
X521999D01*
X522332Y247166D01*
Y246500D01*
X521999Y246166D01*
X520999D01*
X524332Y247499D02*
X522999D01*
Y246500D01*
X523665Y246833D01*
X523998D01*
X524332Y246500D01*
Y245833D01*
X523998Y245500D01*
X523332D01*
X522999Y245833D01*
X476333Y224666D02*
X476000Y224999D01*
X475333D01*
X475000Y224666D01*
Y223333D01*
X475333Y223000D01*
X476000D01*
X476333Y223333D01*
Y224000D01*
X475666D01*
X476999Y223000D02*
Y224999D01*
X477999D01*
X478332Y224666D01*
Y224000D01*
X477999Y223666D01*
X476999D01*
X480332Y223000D02*
X478999D01*
X480332Y224333D01*
Y224666D01*
X479998Y224999D01*
X479332D01*
X478999Y224666D01*
X479833Y220666D02*
X479500Y220999D01*
X478833D01*
X478500Y220666D01*
Y219333D01*
X478833Y219000D01*
X479500D01*
X479833Y219333D01*
Y220000D01*
X479166D01*
X480499Y219000D02*
Y220999D01*
X481499D01*
X481832Y220666D01*
Y220000D01*
X481499Y219666D01*
X480499D01*
X483832Y220999D02*
X483165Y220666D01*
X482499Y220000D01*
Y219333D01*
X482832Y219000D01*
X483498D01*
X483832Y219333D01*
Y219666D01*
X483498Y220000D01*
X482499D01*
X484333Y216666D02*
X484000Y216999D01*
X483333D01*
X483000Y216666D01*
Y215333D01*
X483333Y215000D01*
X484000D01*
X484333Y215333D01*
Y216000D01*
X483666D01*
X484999Y215000D02*
Y216999D01*
X485999D01*
X486332Y216666D01*
Y216000D01*
X485999Y215666D01*
X484999D01*
X487998Y215000D02*
Y216999D01*
X486999Y216000D01*
X488332D01*
X512333Y255166D02*
X512000Y255499D01*
X511333D01*
X511000Y255166D01*
Y253833D01*
X511333Y253500D01*
X512000D01*
X512333Y253833D01*
Y254500D01*
X511666D01*
X512999Y253500D02*
Y255499D01*
X513999D01*
X514332Y255166D01*
Y254500D01*
X513999Y254166D01*
X512999D01*
X514999Y255166D02*
X515332Y255499D01*
X515998D01*
X516332Y255166D01*
Y254833D01*
X515998Y254500D01*
X515665D01*
X515998D01*
X516332Y254166D01*
Y253833D01*
X515998Y253500D01*
X515332D01*
X514999Y253833D01*
X516333Y251166D02*
X516000Y251499D01*
X515333D01*
X515000Y251166D01*
Y249833D01*
X515333Y249500D01*
X516000D01*
X516333Y249833D01*
Y250500D01*
X515666D01*
X516999Y249500D02*
Y251499D01*
X518332Y249500D01*
Y251499D01*
X518999D02*
Y249500D01*
X519998D01*
X520332Y249833D01*
Y251166D01*
X519998Y251499D01*
X518999D01*
X398500Y217000D02*
Y219499D01*
X399750D01*
X400166Y219083D01*
Y218250D01*
X399750Y217833D01*
X398500D01*
X402249Y219499D02*
X401416D01*
X400999Y219083D01*
Y217417D01*
X401416Y217000D01*
X402249D01*
X402665Y217417D01*
Y219083D01*
X402249Y219499D01*
X403498D02*
Y217000D01*
X404331Y217833D01*
X405164Y217000D01*
Y219499D01*
X407664D02*
X405998D01*
Y217000D01*
X407664D01*
X405998Y218250D02*
X406831D01*
X408497Y217000D02*
Y219499D01*
X409746D01*
X410163Y219083D01*
Y218250D01*
X409746Y217833D01*
X408497D01*
X409330D02*
X410163Y217000D01*
X293000Y414500D02*
Y415833D01*
X292334Y415166D02*
X293667D01*
X293000Y424497D02*
Y425830D01*
X388333Y321666D02*
X388000Y321999D01*
X387333D01*
X387000Y321666D01*
Y320333D01*
X387333Y320000D01*
X388000D01*
X388333Y320333D01*
Y321000D01*
X387666D01*
X388999Y320000D02*
Y321999D01*
X390332Y320000D01*
Y321999D01*
X390999D02*
Y320000D01*
X391998D01*
X392332Y320333D01*
Y321666D01*
X391998Y321999D01*
X390999D01*
X409333Y321666D02*
X409000Y321999D01*
X408333D01*
X408000Y321666D01*
Y320333D01*
X408333Y320000D01*
X409000D01*
X409333Y320333D01*
Y321000D01*
X408666D01*
X409999Y321999D02*
X411332D01*
Y321666D01*
X409999Y320333D01*
Y320000D01*
X408000Y327499D02*
Y325500D01*
X409000D01*
X409333Y325833D01*
Y327166D01*
X409000Y327499D01*
X408000D01*
X409999D02*
X411332D01*
Y327166D01*
X409999Y325833D01*
Y325500D01*
X398333Y327166D02*
X398000Y327499D01*
X397333D01*
X397000Y327166D01*
Y325833D01*
X397333Y325500D01*
X398000D01*
X398333Y325833D01*
Y326500D01*
X397666D01*
X398999Y325500D02*
Y327499D01*
X400332Y325500D01*
Y327499D01*
X400999D02*
Y325500D01*
X401998D01*
X402332Y325833D01*
Y327166D01*
X401998Y327499D01*
X400999D01*
X388000D02*
Y325500D01*
X389000D01*
X389333Y325833D01*
Y327166D01*
X389000Y327499D01*
X388000D01*
X389999Y327166D02*
X390333Y327499D01*
X390999D01*
X391332Y327166D01*
Y326833D01*
X390999Y326500D01*
X391332Y326166D01*
Y325833D01*
X390999Y325500D01*
X390333D01*
X389999Y325833D01*
Y326166D01*
X390333Y326500D01*
X389999Y326833D01*
Y327166D01*
X390333Y326500D02*
X390999D01*
X483333Y367666D02*
X483000Y367999D01*
X482333D01*
X482000Y367666D01*
Y366333D01*
X482333Y366000D01*
X483000D01*
X483333Y366333D01*
Y367000D01*
X482666D01*
X483999Y366000D02*
Y367999D01*
X485332Y366000D01*
Y367999D01*
X485999D02*
Y366000D01*
X486998D01*
X487332Y366333D01*
Y367666D01*
X486998Y367999D01*
X485999D01*
X492000D02*
Y366666D01*
X492666Y366000D01*
X493333Y366666D01*
Y367999D01*
X495332Y367666D02*
X494999Y367999D01*
X494333D01*
X493999Y367666D01*
Y366333D01*
X494333Y366000D01*
X494999D01*
X495332Y366333D01*
X497332Y367666D02*
X496998Y367999D01*
X496332D01*
X495999Y367666D01*
Y366333D01*
X496332Y366000D01*
X496998D01*
X497332Y366333D01*
X503333Y367666D02*
X503000Y367999D01*
X502333D01*
X502000Y367666D01*
Y367333D01*
X502333Y367000D01*
X503000D01*
X503333Y366666D01*
Y366333D01*
X503000Y366000D01*
X502333D01*
X502000Y366333D01*
X505332Y367666D02*
X504999Y367999D01*
X504333D01*
X503999Y367666D01*
Y366333D01*
X504333Y366000D01*
X504999D01*
X505332Y366333D01*
X505999Y367999D02*
Y366000D01*
X507332D01*
X513333Y367666D02*
X513000Y367999D01*
X512333D01*
X512000Y367666D01*
Y367333D01*
X512333Y367000D01*
X513000D01*
X513333Y366666D01*
Y366333D01*
X513000Y366000D01*
X512333D01*
X512000Y366333D01*
X513999Y367999D02*
Y366000D01*
X514999D01*
X515332Y366333D01*
Y367666D01*
X514999Y367999D01*
X513999D01*
X515999Y366000D02*
Y367333D01*
X516665Y367999D01*
X517332Y367333D01*
Y366000D01*
Y367000D01*
X515999D01*
X564000Y295999D02*
Y294000D01*
X565000D01*
X565333Y294333D01*
Y295666D01*
X565000Y295999D01*
X564000D01*
X567332D02*
X566666Y295666D01*
X565999Y295000D01*
Y294333D01*
X566333Y294000D01*
X566999D01*
X567332Y294333D01*
Y294666D01*
X566999Y295000D01*
X565999D01*
X241833Y344666D02*
X241500Y344999D01*
X240833D01*
X240500Y344666D01*
Y343333D01*
X240833Y343000D01*
X241500D01*
X241833Y343333D01*
Y344000D01*
X241166D01*
X242499Y343000D02*
Y344999D01*
X243832Y343000D01*
Y344999D01*
X244499D02*
Y343000D01*
X245498D01*
X245832Y343333D01*
Y344666D01*
X245498Y344999D01*
X244499D01*
X240500Y355166D02*
X240833Y355499D01*
X241500D01*
X241833Y355166D01*
Y354833D01*
X241500Y354500D01*
X241166D01*
X241500D01*
X241833Y354166D01*
Y353833D01*
X241500Y353500D01*
X240833D01*
X240500Y353833D01*
X242499Y355499D02*
Y354166D01*
X243166Y353500D01*
X243832Y354166D01*
Y355499D01*
X244499Y355166D02*
X244832Y355499D01*
X245498D01*
X245832Y355166D01*
Y354833D01*
X245498Y354500D01*
X245165D01*
X245498D01*
X245832Y354166D01*
Y353833D01*
X245498Y353500D01*
X244832D01*
X244499Y353833D01*
X241000Y385499D02*
Y383500D01*
X242000D01*
X242333Y383833D01*
Y385166D01*
X242000Y385499D01*
X241000D01*
X242999Y385166D02*
X243333Y385499D01*
X243999D01*
X244332Y385166D01*
Y384833D01*
X243999Y384500D01*
X244332Y384166D01*
Y383833D01*
X243999Y383500D01*
X243333D01*
X242999Y383833D01*
Y384166D01*
X243333Y384500D01*
X242999Y384833D01*
Y385166D01*
X243333Y384500D02*
X243999D01*
X240500Y365499D02*
Y363500D01*
X241500D01*
X241833Y363833D01*
Y365166D01*
X241500Y365499D01*
X240500D01*
X242499Y363500D02*
X243166D01*
X242833D01*
Y365499D01*
X242499Y365166D01*
X244165D02*
X244499Y365499D01*
X245165D01*
X245498Y365166D01*
Y363833D01*
X245165Y363500D01*
X244499D01*
X244165Y363833D01*
Y365166D01*
X286833Y335166D02*
X286500Y335499D01*
X285833D01*
X285500Y335166D01*
Y334833D01*
X285833Y334500D01*
X286500D01*
X286833Y334166D01*
Y333833D01*
X286500Y333500D01*
X285833D01*
X285500Y333833D01*
X287499Y335499D02*
Y333500D01*
X288499D01*
X288832Y333833D01*
Y335166D01*
X288499Y335499D01*
X287499D01*
X289499Y333500D02*
Y334833D01*
X290165Y335499D01*
X290832Y334833D01*
Y333500D01*
Y334500D01*
X289499D01*
X241000Y375499D02*
Y373500D01*
X242000D01*
X242333Y373833D01*
Y375166D01*
X242000Y375499D01*
X241000D01*
X242999Y373833D02*
X243333Y373500D01*
X243999D01*
X244332Y373833D01*
Y375166D01*
X243999Y375499D01*
X243333D01*
X242999Y375166D01*
Y374833D01*
X243333Y374500D01*
X244332D01*
X287000Y355499D02*
Y353500D01*
X288000D01*
X288333Y353833D01*
Y355166D01*
X288000Y355499D01*
X287000D01*
X290332Y353500D02*
X288999D01*
X290332Y354833D01*
Y355166D01*
X289999Y355499D01*
X289333D01*
X288999Y355166D01*
X286833Y345166D02*
X286500Y345499D01*
X285833D01*
X285500Y345166D01*
Y344833D01*
X285833Y344500D01*
X286500D01*
X286833Y344166D01*
Y343833D01*
X286500Y343500D01*
X285833D01*
X285500Y343833D01*
X288832Y345166D02*
X288499Y345499D01*
X287833D01*
X287499Y345166D01*
Y343833D01*
X287833Y343500D01*
X288499D01*
X288832Y343833D01*
X289499Y345499D02*
Y343500D01*
X290832D01*
X287000Y365499D02*
Y363500D01*
X288000D01*
X288333Y363833D01*
Y365166D01*
X288000Y365499D01*
X287000D01*
X288999Y365166D02*
X289333Y365499D01*
X289999D01*
X290332Y365166D01*
Y364833D01*
X289999Y364500D01*
X289666D01*
X289999D01*
X290332Y364166D01*
Y363833D01*
X289999Y363500D01*
X289333D01*
X288999Y363833D01*
X287000Y375499D02*
Y373500D01*
X288000D01*
X288333Y373833D01*
Y375166D01*
X288000Y375499D01*
X287000D01*
X289999Y373500D02*
Y375499D01*
X288999Y374500D01*
X290332D01*
X287000Y385499D02*
Y383500D01*
X288000D01*
X288333Y383833D01*
Y385166D01*
X288000Y385499D01*
X287000D01*
X290332D02*
X288999D01*
Y384500D01*
X289666Y384833D01*
X289999D01*
X290332Y384500D01*
Y383833D01*
X289999Y383500D01*
X289333D01*
X288999Y383833D01*
X287000Y395499D02*
Y393500D01*
X288000D01*
X288333Y393833D01*
Y395166D01*
X288000Y395499D01*
X287000D01*
X290332D02*
X289666Y395166D01*
X288999Y394500D01*
Y393833D01*
X289333Y393500D01*
X289999D01*
X290332Y393833D01*
Y394166D01*
X289999Y394500D01*
X288999D01*
X241000Y395499D02*
Y393500D01*
X242000D01*
X242333Y393833D01*
Y395166D01*
X242000Y395499D01*
X241000D01*
X242999D02*
X244332D01*
Y395166D01*
X242999Y393833D01*
Y393500D01*
X564333Y285666D02*
X564000Y285999D01*
X563333D01*
X563000Y285666D01*
Y284333D01*
X563333Y284000D01*
X564000D01*
X564333Y284333D01*
Y285000D01*
X563666D01*
X564999Y284000D02*
Y285999D01*
X566332Y284000D01*
Y285999D01*
X566999D02*
Y284000D01*
X567998D01*
X568332Y284333D01*
Y285666D01*
X567998Y285999D01*
X566999D01*
X559000Y314000D02*
Y315999D01*
X560000D01*
X560333Y315666D01*
Y315000D01*
X560000Y314666D01*
X559000D01*
X559666D02*
X560333Y314000D01*
X562332Y315999D02*
X560999D01*
Y314000D01*
X562332D01*
X560999Y315000D02*
X561666D01*
X564332Y315666D02*
X563998Y315999D01*
X563332D01*
X562999Y315666D01*
Y315333D01*
X563332Y315000D01*
X563998D01*
X564332Y314666D01*
Y314333D01*
X563998Y314000D01*
X563332D01*
X562999Y314333D01*
X566331Y315999D02*
X564998D01*
Y314000D01*
X566331D01*
X564998Y315000D02*
X565664D01*
X566997Y315999D02*
X568330D01*
X567664D01*
Y314000D01*
X547000Y365666D02*
X547333Y365999D01*
X548000D01*
X548333Y365666D01*
Y365333D01*
X548000Y365000D01*
X547666D01*
X548000D01*
X548333Y364666D01*
Y364333D01*
X548000Y364000D01*
X547333D01*
X547000Y364333D01*
X548999Y365999D02*
Y364666D01*
X549666Y364000D01*
X550332Y364666D01*
Y365999D01*
X550999Y365666D02*
X551332Y365999D01*
X551998D01*
X552332Y365666D01*
Y365333D01*
X551998Y365000D01*
X551665D01*
X551998D01*
X552332Y364666D01*
Y364333D01*
X551998Y364000D01*
X551332D01*
X550999Y364333D01*
X564333Y356166D02*
X564000Y356499D01*
X563333D01*
X563000Y356166D01*
Y355833D01*
X563333Y355500D01*
X564000D01*
X564333Y355166D01*
Y354833D01*
X564000Y354500D01*
X563333D01*
X563000Y354833D01*
X564999Y356499D02*
Y354500D01*
X565999D01*
X566332Y354833D01*
Y356166D01*
X565999Y356499D01*
X564999D01*
X566999Y354500D02*
Y355833D01*
X567665Y356499D01*
X568332Y355833D01*
Y354500D01*
Y355500D01*
X566999D01*
X564333Y365666D02*
X564000Y365999D01*
X563333D01*
X563000Y365666D01*
Y365333D01*
X563333Y365000D01*
X564000D01*
X564333Y364666D01*
Y364333D01*
X564000Y364000D01*
X563333D01*
X563000Y364333D01*
X566332Y365666D02*
X565999Y365999D01*
X565333D01*
X564999Y365666D01*
Y364333D01*
X565333Y364000D01*
X565999D01*
X566332Y364333D01*
X566999Y365999D02*
Y364000D01*
X568332D01*
X548333Y355666D02*
X548000Y355999D01*
X547333D01*
X547000Y355666D01*
Y354333D01*
X547333Y354000D01*
X548000D01*
X548333Y354333D01*
Y355000D01*
X547666D01*
X548999Y354000D02*
Y355999D01*
X549999D01*
X550332Y355666D01*
Y355000D01*
X549999Y354666D01*
X548999D01*
X550999Y355999D02*
X552332D01*
Y355666D01*
X550999Y354333D01*
Y354000D01*
X548333Y345666D02*
X548000Y345999D01*
X547333D01*
X547000Y345666D01*
Y344333D01*
X547333Y344000D01*
X548000D01*
X548333Y344333D01*
Y345000D01*
X547666D01*
X548999Y344000D02*
Y345999D01*
X549999D01*
X550332Y345666D01*
Y345000D01*
X549999Y344666D01*
X548999D01*
X552332Y345999D02*
X551665Y345666D01*
X550999Y345000D01*
Y344333D01*
X551332Y344000D01*
X551998D01*
X552332Y344333D01*
Y344666D01*
X551998Y345000D01*
X550999D01*
X548333Y335666D02*
X548000Y335999D01*
X547333D01*
X547000Y335666D01*
Y334333D01*
X547333Y334000D01*
X548000D01*
X548333Y334333D01*
Y335000D01*
X547666D01*
X548999Y334000D02*
Y335999D01*
X549999D01*
X550332Y335666D01*
Y335000D01*
X549999Y334666D01*
X548999D01*
X552332Y335999D02*
X550999D01*
Y335000D01*
X551665Y335333D01*
X551998D01*
X552332Y335000D01*
Y334333D01*
X551998Y334000D01*
X551332D01*
X550999Y334333D01*
X548333Y325666D02*
X548000Y325999D01*
X547333D01*
X547000Y325666D01*
Y324333D01*
X547333Y324000D01*
X548000D01*
X548333Y324333D01*
Y325000D01*
X547666D01*
X548999Y324000D02*
Y325999D01*
X549999D01*
X550332Y325666D01*
Y325000D01*
X549999Y324666D01*
X548999D01*
X551998Y324000D02*
Y325999D01*
X550999Y325000D01*
X552332D01*
X548333Y315666D02*
X548000Y315999D01*
X547333D01*
X547000Y315666D01*
Y314333D01*
X547333Y314000D01*
X548000D01*
X548333Y314333D01*
Y315000D01*
X547666D01*
X548999Y314000D02*
Y315999D01*
X549999D01*
X550332Y315666D01*
Y315000D01*
X549999Y314666D01*
X548999D01*
X550999Y315666D02*
X551332Y315999D01*
X551998D01*
X552332Y315666D01*
Y315333D01*
X551998Y315000D01*
X551665D01*
X551998D01*
X552332Y314666D01*
Y314333D01*
X551998Y314000D01*
X551332D01*
X550999Y314333D01*
X548333Y305666D02*
X548000Y305999D01*
X547333D01*
X547000Y305666D01*
Y304333D01*
X547333Y304000D01*
X548000D01*
X548333Y304333D01*
Y305000D01*
X547666D01*
X548999Y304000D02*
Y305999D01*
X549999D01*
X550332Y305666D01*
Y305000D01*
X549999Y304666D01*
X548999D01*
X552332Y304000D02*
X550999D01*
X552332Y305333D01*
Y305666D01*
X551998Y305999D01*
X551332D01*
X550999Y305666D01*
X548833Y295666D02*
X548500Y295999D01*
X547833D01*
X547500Y295666D01*
Y294333D01*
X547833Y294000D01*
X548500D01*
X548833Y294333D01*
Y295000D01*
X548166D01*
X549499Y294000D02*
Y295999D01*
X550499D01*
X550832Y295666D01*
Y295000D01*
X550499Y294666D01*
X549499D01*
X551499Y294000D02*
X552165D01*
X551832D01*
Y295999D01*
X551499Y295666D01*
X548833Y285666D02*
X548500Y285999D01*
X547833D01*
X547500Y285666D01*
Y284333D01*
X547833Y284000D01*
X548500D01*
X548833Y284333D01*
Y285000D01*
X548166D01*
X549499Y284000D02*
Y285999D01*
X550499D01*
X550832Y285666D01*
Y285000D01*
X550499Y284666D01*
X549499D01*
X551499Y285666D02*
X551832Y285999D01*
X552498D01*
X552832Y285666D01*
Y284333D01*
X552498Y284000D01*
X551832D01*
X551499Y284333D01*
Y285666D01*
X341833Y358166D02*
X341500Y358499D01*
X340833D01*
X340500Y358166D01*
Y357833D01*
X340833Y357500D01*
X341500D01*
X341833Y357166D01*
Y356833D01*
X341500Y356500D01*
X340833D01*
X340500Y356833D01*
X343832Y358166D02*
X343499Y358499D01*
X342833D01*
X342499Y358166D01*
Y356833D01*
X342833Y356500D01*
X343499D01*
X343832Y356833D01*
X344499Y358499D02*
Y356500D01*
X345832D01*
X331333Y358166D02*
X331000Y358499D01*
X330333D01*
X330000Y358166D01*
Y357833D01*
X330333Y357500D01*
X331000D01*
X331333Y357166D01*
Y356833D01*
X331000Y356500D01*
X330333D01*
X330000Y356833D01*
X331999Y358499D02*
Y356500D01*
X332999D01*
X333332Y356833D01*
Y358166D01*
X332999Y358499D01*
X331999D01*
X333999Y356500D02*
Y357833D01*
X334665Y358499D01*
X335332Y357833D01*
Y356500D01*
Y357500D01*
X333999D01*
X351833Y358166D02*
X351500Y358499D01*
X350833D01*
X350500Y358166D01*
Y356833D01*
X350833Y356500D01*
X351500D01*
X351833Y356833D01*
Y357500D01*
X351166D01*
X352499Y356500D02*
Y358499D01*
X353832Y356500D01*
Y358499D01*
X354499D02*
Y356500D01*
X355498D01*
X355832Y356833D01*
Y358166D01*
X355498Y358499D01*
X354499D01*
X360500Y358166D02*
X360833Y358499D01*
X361500D01*
X361833Y358166D01*
Y357833D01*
X361500Y357500D01*
X361166D01*
X361500D01*
X361833Y357166D01*
Y356833D01*
X361500Y356500D01*
X360833D01*
X360500Y356833D01*
X362499Y358499D02*
Y357166D01*
X363166Y356500D01*
X363832Y357166D01*
Y358499D01*
X364499Y358166D02*
X364832Y358499D01*
X365498D01*
X365832Y358166D01*
Y357833D01*
X365498Y357500D01*
X365165D01*
X365498D01*
X365832Y357166D01*
Y356833D01*
X365498Y356500D01*
X364832D01*
X364499Y356833D01*
X305833Y232166D02*
X305500Y232499D01*
X304833D01*
X304500Y232166D01*
Y230833D01*
X304833Y230500D01*
X305500D01*
X305833Y230833D01*
Y231500D01*
X305166D01*
X306499Y230500D02*
Y232499D01*
X307832Y230500D01*
Y232499D01*
X308499D02*
Y230500D01*
X309498D01*
X309832Y230833D01*
Y232166D01*
X309498Y232499D01*
X308499D01*
X304500Y292499D02*
Y291166D01*
X305166Y290500D01*
X305833Y291166D01*
Y292499D01*
X307832Y292166D02*
X307499Y292499D01*
X306833D01*
X306499Y292166D01*
Y290833D01*
X306833Y290500D01*
X307499D01*
X307832Y290833D01*
X309832Y292166D02*
X309498Y292499D01*
X308832D01*
X308499Y292166D01*
Y290833D01*
X308832Y290500D01*
X309498D01*
X309832Y290833D01*
X305000Y282499D02*
Y280500D01*
X306000D01*
X306333Y280833D01*
Y282166D01*
X306000Y282499D01*
X305000D01*
X306999Y280833D02*
X307333Y280500D01*
X307999D01*
X308332Y280833D01*
Y282166D01*
X307999Y282499D01*
X307333D01*
X306999Y282166D01*
Y281833D01*
X307333Y281500D01*
X308332D01*
X305000Y272499D02*
Y270500D01*
X306000D01*
X306333Y270833D01*
Y272166D01*
X306000Y272499D01*
X305000D01*
X306999Y270500D02*
X307666D01*
X307333D01*
Y272499D01*
X306999Y272166D01*
X308665D02*
X308999Y272499D01*
X309665D01*
X309998Y272166D01*
Y270833D01*
X309665Y270500D01*
X308999D01*
X308665Y270833D01*
Y272166D01*
X305833Y242166D02*
X305500Y242499D01*
X304833D01*
X304500Y242166D01*
Y241833D01*
X304833Y241500D01*
X305500D01*
X305833Y241166D01*
Y240833D01*
X305500Y240500D01*
X304833D01*
X304500Y240833D01*
X306499Y240500D02*
Y242499D01*
X307499D01*
X307832Y242166D01*
Y241500D01*
X307499Y241166D01*
X306499D01*
X308499Y242499D02*
Y240500D01*
Y241166D01*
X309832Y242499D01*
X308832Y241500D01*
X309832Y240500D01*
X310498D02*
X311164D01*
X310831D01*
Y242499D01*
X310498Y242166D01*
X305833Y222166D02*
X305500Y222499D01*
X304833D01*
X304500Y222166D01*
Y221833D01*
X304833Y221500D01*
X305500D01*
X305833Y221166D01*
Y220833D01*
X305500Y220500D01*
X304833D01*
X304500Y220833D01*
X306499Y220500D02*
Y222499D01*
X307499D01*
X307832Y222166D01*
Y221500D01*
X307499Y221166D01*
X306499D01*
X308499Y222499D02*
Y220500D01*
Y221166D01*
X309832Y222499D01*
X308832Y221500D01*
X309832Y220500D01*
X311831D02*
X310498D01*
X311831Y221833D01*
Y222166D01*
X311498Y222499D01*
X310831D01*
X310498Y222166D01*
X572833Y310666D02*
X572500Y310999D01*
X571833D01*
X571500Y310666D01*
Y309333D01*
X571833Y309000D01*
X572500D01*
X572833Y309333D01*
Y310000D01*
X572166D01*
X573499Y309000D02*
Y310999D01*
X574832Y309000D01*
Y310999D01*
X575499D02*
Y309000D01*
X576498D01*
X576832Y309333D01*
Y310666D01*
X576498Y310999D01*
X575499D01*
X571500Y300666D02*
X571833Y300999D01*
X572500D01*
X572833Y300666D01*
Y300333D01*
X572500Y300000D01*
X572166D01*
X572500D01*
X572833Y299666D01*
Y299333D01*
X572500Y299000D01*
X571833D01*
X571500Y299333D01*
X573499Y300999D02*
Y299666D01*
X574166Y299000D01*
X574832Y299666D01*
Y300999D01*
X575499Y300666D02*
X575832Y300999D01*
X576498D01*
X576832Y300666D01*
Y300333D01*
X576498Y300000D01*
X576165D01*
X576498D01*
X576832Y299666D01*
Y299333D01*
X576498Y299000D01*
X575832D01*
X575499Y299333D01*
X572833Y320666D02*
X572500Y320999D01*
X571833D01*
X571500Y320666D01*
Y320333D01*
X571833Y320000D01*
X572500D01*
X572833Y319666D01*
Y319333D01*
X572500Y319000D01*
X571833D01*
X571500Y319333D01*
X573499Y320999D02*
Y319000D01*
X574499D01*
X574832Y319333D01*
Y320666D01*
X574499Y320999D01*
X573499D01*
X575499Y319000D02*
Y320333D01*
X576165Y320999D01*
X576832Y320333D01*
Y319000D01*
Y320000D01*
X575499D01*
X572833Y330666D02*
X572500Y330999D01*
X571833D01*
X571500Y330666D01*
Y330333D01*
X571833Y330000D01*
X572500D01*
X572833Y329666D01*
Y329333D01*
X572500Y329000D01*
X571833D01*
X571500Y329333D01*
X574832Y330666D02*
X574499Y330999D01*
X573833D01*
X573499Y330666D01*
Y329333D01*
X573833Y329000D01*
X574499D01*
X574832Y329333D01*
X575499Y330999D02*
Y329000D01*
X576832D01*
X469000Y298166D02*
X469333Y298499D01*
X470000D01*
X470333Y298166D01*
Y297833D01*
X470000Y297500D01*
X469666D01*
X470000D01*
X470333Y297166D01*
Y296833D01*
X470000Y296500D01*
X469333D01*
X469000Y296833D01*
X470999Y298499D02*
Y297166D01*
X471666Y296500D01*
X472332Y297166D01*
Y298499D01*
X472999Y298166D02*
X473332Y298499D01*
X473998D01*
X474332Y298166D01*
Y297833D01*
X473998Y297500D01*
X473665D01*
X473998D01*
X474332Y297166D01*
Y296833D01*
X473998Y296500D01*
X473332D01*
X472999Y296833D01*
X470333Y318666D02*
X470000Y318999D01*
X469333D01*
X469000Y318666D01*
Y317333D01*
X469333Y317000D01*
X470000D01*
X470333Y317333D01*
Y318000D01*
X469666D01*
X470999Y317000D02*
Y318999D01*
X472332Y317000D01*
Y318999D01*
X472999D02*
Y317000D01*
X473998D01*
X474332Y317333D01*
Y318666D01*
X473998Y318999D01*
X472999D01*
X254333Y282666D02*
X254000Y282999D01*
X253333D01*
X253000Y282666D01*
Y281333D01*
X253333Y281000D01*
X254000D01*
X254333Y281333D01*
Y282000D01*
X253666D01*
X254999Y281000D02*
Y282999D01*
X256332Y281000D01*
Y282999D01*
X256999D02*
Y281000D01*
X257998D01*
X258332Y281333D01*
Y282666D01*
X257998Y282999D01*
X256999D01*
X243000Y282666D02*
X243333Y282999D01*
X244000D01*
X244333Y282666D01*
Y282333D01*
X244000Y282000D01*
X243666D01*
X244000D01*
X244333Y281666D01*
Y281333D01*
X244000Y281000D01*
X243333D01*
X243000Y281333D01*
X244999Y282999D02*
Y281666D01*
X245666Y281000D01*
X246332Y281666D01*
Y282999D01*
X246999Y282666D02*
X247332Y282999D01*
X247998D01*
X248332Y282666D01*
Y282333D01*
X247998Y282000D01*
X247665D01*
X247998D01*
X248332Y281666D01*
Y281333D01*
X247998Y281000D01*
X247332D01*
X246999Y281333D01*
X274500Y282999D02*
Y281000D01*
X275500D01*
X275833Y281333D01*
Y282666D01*
X275500Y282999D01*
X274500D01*
X277499Y281000D02*
Y282999D01*
X276499Y282000D01*
X277832D01*
X264000Y282999D02*
Y281000D01*
X265000D01*
X265333Y281333D01*
Y282666D01*
X265000Y282999D01*
X264000D01*
X267332D02*
X265999D01*
Y282000D01*
X266666Y282333D01*
X266999D01*
X267332Y282000D01*
Y281333D01*
X266999Y281000D01*
X266333D01*
X265999Y281333D01*
X470333Y338666D02*
X470000Y338999D01*
X469333D01*
X469000Y338666D01*
Y338333D01*
X469333Y338000D01*
X470000D01*
X470333Y337666D01*
Y337333D01*
X470000Y337000D01*
X469333D01*
X469000Y337333D01*
X472332Y338666D02*
X471999Y338999D01*
X471333D01*
X470999Y338666D01*
Y337333D01*
X471333Y337000D01*
X471999D01*
X472332Y337333D01*
X472999Y338999D02*
Y337000D01*
X474332D01*
X470333Y328666D02*
X470000Y328999D01*
X469333D01*
X469000Y328666D01*
Y328333D01*
X469333Y328000D01*
X470000D01*
X470333Y327666D01*
Y327333D01*
X470000Y327000D01*
X469333D01*
X469000Y327333D01*
X470999Y328999D02*
Y327000D01*
X471999D01*
X472332Y327333D01*
Y328666D01*
X471999Y328999D01*
X470999D01*
X472999Y327000D02*
Y328333D01*
X473665Y328999D01*
X474332Y328333D01*
Y327000D01*
Y328000D01*
X472999D01*
X429667Y418000D02*
X429000D01*
X429334D01*
Y416334D01*
X429000Y416000D01*
X428667D01*
X428334Y416334D01*
X430333Y417666D02*
X430666Y418000D01*
X431333D01*
X431666Y417666D01*
Y417333D01*
X431333Y417000D01*
X431000D01*
X431333D01*
X431666Y416667D01*
Y416334D01*
X431333Y416000D01*
X430666D01*
X430333Y416334D01*
X430000Y394000D02*
X429334D01*
X429667D01*
Y392334D01*
X429334Y392000D01*
X429000D01*
X428667Y392334D01*
X430666Y392000D02*
X431333D01*
X431000D01*
Y394000D01*
X430666Y393667D01*
X317667Y302666D02*
X317334Y303000D01*
X316667D01*
X316334Y302666D01*
Y301334D01*
X316667Y301000D01*
X317334D01*
X317667Y301334D01*
X319333Y301000D02*
Y303000D01*
X318333Y302000D01*
X319666D01*
X355167Y302666D02*
X354834Y303000D01*
X354167D01*
X353834Y302666D01*
Y301334D01*
X354167Y301000D01*
X354834D01*
X355167Y301334D01*
X355833Y302666D02*
X356167Y303000D01*
X356833D01*
X357166Y302666D01*
Y302333D01*
X356833Y302000D01*
X356500D01*
X356833D01*
X357166Y301667D01*
Y301334D01*
X356833Y301000D01*
X356167D01*
X355833Y301334D01*
X546167Y220500D02*
Y218500D01*
X547167D01*
X547500Y218834D01*
Y219167D01*
X547167Y219500D01*
X546167D01*
X547167D01*
X547500Y219833D01*
Y220166D01*
X547167Y220500D01*
X546167D01*
X548166Y218500D02*
X548833D01*
X548500D01*
Y220500D01*
X548166Y220166D01*
X450834Y221000D02*
Y219000D01*
X451834D01*
X452167Y219334D01*
Y219667D01*
X451834Y220000D01*
X450834D01*
X451834D01*
X452167Y220333D01*
Y220667D01*
X451834Y221000D01*
X450834D01*
X452833Y220667D02*
X453166Y221000D01*
X453833D01*
X454166Y220667D01*
Y219334D01*
X453833Y219000D01*
X453166D01*
X452833Y219334D01*
Y220667D01*
D13*
X459000Y235500D02*
G03*
X459000Y235500I-7000J0D01*
G01*
X453000D02*
G03*
X453000Y235500I-1000J0D01*
G01*
X554000D02*
G03*
X554000Y235500I-7000J0D01*
G01*
X548000D02*
G03*
X548000Y235500I-1000J0D01*
G01*
X457000Y247500D02*
X460500D01*
X443500Y223500D02*
X447000D01*
X457000D01*
X460500D01*
X447500Y247500D02*
X457000D01*
X443500D02*
X447500D01*
X440000Y238500D02*
Y239500D01*
Y231500D02*
Y232500D01*
X464000Y238500D02*
Y239500D01*
Y231500D02*
Y232500D01*
X538500Y223500D02*
X542000D01*
X552000Y247500D02*
X555500D01*
X542000D02*
X552000D01*
X538500D02*
X542000D01*
Y223500D02*
X551500D01*
X555500D01*
X559000Y231500D02*
Y232500D01*
Y238500D02*
Y239500D01*
X535000Y231500D02*
Y232500D01*
Y238500D02*
Y239500D01*
D14*
X439000Y394500D02*
X574500D01*
X439000Y431000D02*
X574500D01*
Y394500D02*
Y431000D01*
X439000Y394500D02*
Y431000D01*
X239500Y232000D02*
X291500D01*
X239500Y296000D02*
X291500D01*
Y232000D02*
Y296000D01*
X239500Y232000D02*
Y296000D01*
X498500Y218000D02*
X500500D01*
X517000Y235500D02*
Y237500D01*
X500500Y216000D02*
X502500Y218000D01*
X517000Y233500D02*
Y235500D01*
Y237500D02*
X519000Y235500D01*
X498500Y218000D02*
X500500Y216000D01*
Y218000D02*
X502500D01*
X517000Y233500D02*
X519000Y235500D01*
X480000Y236000D02*
X482000Y234000D01*
Y236000D01*
X480000D02*
X482000Y238000D01*
Y236000D02*
Y238000D01*
X499500Y255000D02*
X501500Y253000D01*
X497500D02*
X499500D01*
X497500D02*
X499500Y255000D01*
Y253000D02*
X501500D01*
X392502Y346501D02*
Y352499D01*
X395501D01*
X396501Y351499D01*
Y349500D01*
X395501Y348500D01*
X392502D01*
X394502D02*
X396501Y346501D01*
X402499Y352499D02*
X398500D01*
Y346501D01*
X402499D01*
X398500Y349500D02*
X400500D01*
X404498Y346501D02*
X406498D01*
X405498D01*
Y352499D01*
X404498Y351499D01*
D15*
X309547Y377847D02*
X353248D01*
X309547Y421153D02*
X353248D01*
X365453Y389500D02*
Y409500D01*
X309547Y377847D02*
Y421153D01*
D16*
X457000Y223500D02*
Y224500D01*
X447000D02*
X457000D01*
X447000Y223500D02*
Y224500D01*
X447500Y246500D02*
X457000D01*
X447500D02*
Y247500D01*
X457000Y246500D02*
Y247500D01*
X542000Y246500D02*
Y247500D01*
Y246500D02*
X552000D01*
Y247500D01*
X542000Y224500D02*
X551500D01*
Y223500D02*
Y224500D01*
X542000Y223500D02*
Y224500D01*
D17*
X421700Y414800D02*
X422700D01*
Y415466D01*
Y415800D02*
X422034D01*
X421700Y416133D01*
X422034Y416466D01*
X422700D01*
X422200D01*
Y415800D01*
X421867Y417466D02*
X421700Y417299D01*
Y416966D01*
X421867Y416799D01*
X422034D01*
X422200Y416966D01*
Y417299D01*
X422367Y417466D01*
X422533D01*
X422700Y417299D01*
Y416966D01*
X422533Y416799D01*
X421700Y418466D02*
Y417799D01*
X422700D01*
Y418466D01*
X422200Y417799D02*
Y418132D01*
X422700Y418799D02*
X421700D01*
Y419299D01*
X421867Y419465D01*
X422200D01*
X422367Y419299D01*
Y418799D01*
Y419132D02*
X422700Y419465D01*
X421700Y389800D02*
X422700D01*
Y390300D01*
X422533Y390466D01*
X422367D01*
X422200Y390300D01*
Y389800D01*
Y390300D01*
X422034Y390466D01*
X421867D01*
X421700Y390300D01*
Y389800D01*
X422700Y390800D02*
X422034D01*
X421700Y391133D01*
X422034Y391466D01*
X422700D01*
X422200D01*
Y390800D01*
X421700Y391799D02*
Y392466D01*
Y392133D01*
X422700D01*
X421700Y392799D02*
Y393465D01*
Y393132D01*
X422700D01*
X421700Y394465D02*
Y393799D01*
X422700D01*
Y394465D01*
X422200Y393799D02*
Y394132D01*
X422700Y394798D02*
X421700D01*
Y395298D01*
X421867Y395465D01*
X422200D01*
X422367Y395298D01*
Y394798D01*
Y395132D02*
X422700Y395465D01*
X421700Y395798D02*
X421867D01*
X422200Y396131D01*
X421867Y396464D01*
X421700D01*
X422200Y396131D02*
X422700D01*
X292700Y419216D02*
Y418550D01*
X293700D01*
Y419216D01*
X293200Y418550D02*
Y418883D01*
X292867Y420216D02*
X292700Y420049D01*
Y419716D01*
X292867Y419550D01*
X293034D01*
X293200Y419716D01*
Y420049D01*
X293367Y420216D01*
X293533D01*
X293700Y420049D01*
Y419716D01*
X293533Y419550D01*
X293700Y420549D02*
X292700D01*
Y421049D01*
X292867Y421216D01*
X293200D01*
X293367Y421049D01*
Y420549D01*
M02*
