M48
;Layer_Color=9474304
;FILE_FORMAT=2:5
INCH,LZ
;TYPE=PLATED
T01F00S00C0.01000
T02F00S00C0.02000
T03F00S00C0.03150
T04F00S00C0.03346
T05F00S00C0.03900
T06F00S00C0.03937
T07F00S00C0.04000
T08F00S00C0.04016
T09F00S00C0.04213
T10F00S00C0.04724
;TYPE=NON_PLATED
T12F00S00C0.03150
T13F00S00C0.04331
%
T01
X04975Y02255
X05055Y02415
X05165Y02605
X0531Y02575
Y02705
Y02795
X0513Y0281
X04995Y0266
X0426Y03095
X0376Y02645
X03505Y02845
X02915Y0326
X0304Y0343
X0311Y0389
X0324Y0392
X03275Y04045
X0336404Y0413404
X03505Y03505
X03575Y03535
X03505Y0332
X03715Y0327
X0396Y03325
X04025
X04225Y03305
X04335Y0367
X04345Y0376
Y0382
X0413Y03865
X0397Y03955
X0396Y0365
X0405Y0367
X0453Y0402
X0442669Y0413169
X048Y0413
X0491Y0345
X0499Y03285
X0511Y0338
X0518Y0319
X05155Y03605
X0554Y03765
X05615Y035
Y03415
X0562Y0328
Y0317
T02
X03215Y02715
X03385Y03015
X0301Y03195
X03205Y0332
X0336Y0321
X0338Y043
X04Y0426
T03
X0371Y02215
Y02315
Y02415
Y02515
Y02615
Y02715
Y02815
Y02915
X03
Y02815
Y02715
Y02615
Y02515
Y02415
Y02315
Y02215
X0383539Y04045
X0413461
T04
X0394158Y0224201
X0404
X0413842
Y0236799
X0404
X0394158
Y0249201
X0404
X0413842
Y0261799
X0404
X0394158
Y0273701
X0404
X0413842
Y0286299
X0404
X0394158
Y0298201
X0404
X0413842
Y0310799
X0404
X0394158
X0259851Y0409604
X0250008
X0240166
Y0422203
X0250008
X0259851
T05
X05425Y0285
Y0295
Y0305
X05725
Y0295
Y0285
Y0315
Y0325
Y0335
Y0345
Y0355
Y0365
X05425
Y0355
Y0345
Y0335
Y0325
Y0315
T06
X0533Y0308
X058Y02775
Y02675
X0463Y0298
Y0308
X02955Y03345
Y03445
Y03545
Y03645
Y03745
Y03845
Y03945
X02855Y0416
X02755
X02355Y03945
Y03845
Y03745
Y03645
Y03545
Y03445
Y03345
X0463Y0338
Y0348
Y0328
Y0318
X0533
Y0328
Y0338
X05145Y03735
X05045
X04945
X04845
X058Y03725
Y03825
T07
X05342Y02266
Y02444
X05598
Y02266
X04648
Y02444
X04392
Y02266
T08
X0245508Y0289904
X0255508
X0265508
X0275508
X0285508
T09
X0583Y03
Y031
X03005Y0415
Y0425
X0313008Y0366904
X0323008
X0333008
X0343008
X0353008
X0363008
X043Y0388
Y0398
Y0412
Y0422
X0583Y035
Y034
Y033
Y032
T10
X0389657Y0319472
X03995
X0409342
Y0376559
X0389657
T12
X0494211Y0240789
T13
X0504789Y0230211
M30
