G04*
G04 #@! TF.GenerationSoftware,Altium Limited,Altium Designer,24.4.1 (13)*
G04*
G04 Layer_Physical_Order=2*
G04 Layer_Color=32768*
%FSLAX25Y25*%
%MOIN*%
G70*
G04*
G04 #@! TF.SameCoordinates,2570C4FB-6661-4DCD-87E8-F51DF0FCECC1*
G04*
G04*
G04 #@! TF.FilePolarity,Negative*
G04*
G01*
G75*
%ADD80C,0.04000*%
%ADD81C,0.07347*%
%ADD82C,0.07150*%
%ADD83C,0.07937*%
%ADD84C,0.07900*%
%ADD85C,0.08331*%
%ADD86R,0.11874X0.13055*%
%ADD87C,0.08724*%
%ADD88C,0.08213*%
%ADD89C,0.08000*%
%ADD90C,0.08016*%
%ADD91C,0.06000*%
%ADD92C,0.05000*%
G36*
X431367Y445154D02*
X432531Y444672D01*
X433580Y443971D01*
X434471Y443080D01*
X435172Y442031D01*
X435654Y440867D01*
X435900Y439630D01*
Y439000D01*
Y438370D01*
X435654Y437133D01*
X435172Y435968D01*
X434471Y434920D01*
X433580Y434029D01*
X432531Y433328D01*
X431367Y432846D01*
X430130Y432600D01*
X428870D01*
X427633Y432846D01*
X426469Y433328D01*
X425420Y434029D01*
X424529Y434920D01*
X423828Y435968D01*
X423346Y437133D01*
X423100Y438370D01*
Y439000D01*
Y439630D01*
X423346Y440867D01*
X423828Y442031D01*
X424529Y443080D01*
X425420Y443971D01*
X426469Y444672D01*
X427633Y445154D01*
X428870Y445400D01*
X430130D01*
X431367Y445154D01*
D02*
G37*
G36*
X552062Y388557D02*
X552357Y388557D01*
X552936Y388442D01*
X553482Y388217D01*
X553973Y387889D01*
X554391Y387472D01*
X554719Y386981D01*
X554946Y386436D01*
X555061Y385857D01*
X555061Y385561D01*
X555061Y385266D01*
X554946Y384687D01*
X554719Y384142D01*
X554391Y383651D01*
X553973Y383234D01*
X553482Y382907D01*
X552936Y382681D01*
X552357Y382566D01*
X552062Y382567D01*
X552041Y382567D01*
X447061Y382567D01*
X446766Y382566D01*
X446187Y382681D01*
X445641Y382907D01*
X445150Y383234D01*
X444732Y383651D01*
X444404Y384142D01*
X444177Y384687D01*
X444062Y385266D01*
X444062Y385562D01*
X444062Y385857D01*
X444177Y386436D01*
X444404Y386981D01*
X444732Y387472D01*
X445150Y387889D01*
X445641Y388217D01*
X446187Y388442D01*
X446766Y388557D01*
X447061Y388557D01*
X447062Y388557D01*
X491652Y388602D01*
X507472D01*
X552062Y388557D01*
D02*
G37*
G36*
X582867Y251654D02*
X584031Y251172D01*
X585080Y250471D01*
X585971Y249580D01*
X586672Y248532D01*
X587154Y247367D01*
X587400Y246130D01*
Y245500D01*
Y244870D01*
X587154Y243633D01*
X586672Y242469D01*
X585971Y241420D01*
X585080Y240529D01*
X584031Y239828D01*
X582867Y239346D01*
X581630Y239100D01*
X580370D01*
X579133Y239346D01*
X577969Y239828D01*
X576920Y240529D01*
X576029Y241420D01*
X575328Y242469D01*
X574846Y243633D01*
X574600Y244870D01*
Y245500D01*
Y246130D01*
X574846Y247367D01*
X575328Y248532D01*
X576029Y249580D01*
X576920Y250471D01*
X577969Y251172D01*
X579133Y251654D01*
X580370Y251900D01*
X581630D01*
X582867Y251654D01*
D02*
G37*
G36*
X285867Y225154D02*
X287032Y224672D01*
X288080Y223971D01*
X288971Y223080D01*
X289672Y222031D01*
X290154Y220867D01*
X290400Y219630D01*
Y219000D01*
Y218370D01*
X290154Y217133D01*
X289672Y215968D01*
X288971Y214920D01*
X288080Y214029D01*
X287032Y213328D01*
X285867Y212846D01*
X284630Y212600D01*
X283370D01*
X282133Y212846D01*
X280968Y213328D01*
X279920Y214029D01*
X279029Y214920D01*
X278328Y215968D01*
X277846Y217133D01*
X277600Y218370D01*
Y219000D01*
Y219630D01*
X277846Y220867D01*
X278328Y222031D01*
X279029Y223080D01*
X279920Y223971D01*
X280968Y224672D01*
X282133Y225154D01*
X283370Y225400D01*
X284630D01*
X285867Y225154D01*
D02*
G37*
D80*
X430130Y445400D02*
X431367Y445154D01*
X432531Y444672D01*
X433580Y443971D01*
X434471Y443080D01*
X435172Y442031D01*
X435654Y440867D01*
X435900Y439630D01*
Y439000D02*
Y439630D01*
Y438370D02*
Y439000D01*
X435654Y437133D02*
X435900Y438370D01*
X435172Y435968D02*
X435654Y437133D01*
X434471Y434920D02*
X435172Y435968D01*
X433580Y434029D02*
X434471Y434920D01*
X432531Y433328D02*
X433580Y434029D01*
X431367Y432846D02*
X432531Y433328D01*
X430130Y432600D02*
X431367Y432846D01*
X428870Y432600D02*
X430130D01*
X427633Y432846D02*
X428870Y432600D01*
X426469Y433328D02*
X427633Y432846D01*
X425420Y434029D02*
X426469Y433328D01*
X424529Y434920D02*
X425420Y434029D01*
X423828Y435968D02*
X424529Y434920D01*
X423346Y437133D02*
X423828Y435968D01*
X423100Y438370D02*
X423346Y437133D01*
X423100Y438370D02*
Y439000D01*
Y439630D01*
X423346Y440867D01*
X423828Y442031D01*
X424529Y443080D01*
X425420Y443971D01*
X426469Y444672D01*
X427633Y445154D01*
X428870Y445400D01*
X430130D01*
X284630Y225400D02*
X285867Y225154D01*
X287032Y224672D01*
X288080Y223971D01*
X288971Y223080D01*
X289672Y222031D01*
X290154Y220867D01*
X290400Y219630D01*
Y219000D02*
Y219630D01*
Y218370D02*
Y219000D01*
X290154Y217133D02*
X290400Y218370D01*
X289672Y215968D02*
X290154Y217133D01*
X288971Y214920D02*
X289672Y215968D01*
X288080Y214029D02*
X288971Y214920D01*
X287032Y213328D02*
X288080Y214029D01*
X285867Y212846D02*
X287032Y213328D01*
X284630Y212600D02*
X285867Y212846D01*
X283370Y212600D02*
X284630D01*
X282133Y212846D02*
X283370Y212600D01*
X280968Y213328D02*
X282133Y212846D01*
X279920Y214029D02*
X280968Y213328D01*
X279029Y214920D02*
X279920Y214029D01*
X278328Y215968D02*
X279029Y214920D01*
X277846Y217133D02*
X278328Y215968D01*
X277600Y218370D02*
X277846Y217133D01*
X277600Y218370D02*
Y219000D01*
Y219630D01*
X277846Y220867D01*
X278328Y222031D01*
X279029Y223080D01*
X279920Y223971D01*
X280968Y224672D01*
X282133Y225154D01*
X283370Y225400D01*
X284630D01*
X491888Y450006D02*
X492650Y449868D01*
X491500Y450000D02*
X491888Y450006D01*
X363500Y203870D02*
X363500Y204000D01*
X363500Y203870D02*
X363506Y203482D01*
X363670Y202725D01*
X363979Y202013D01*
X364420Y201376D01*
X364977Y200837D01*
X365629Y200417D01*
X366350Y200132D01*
X367112Y199994D01*
X367500Y200000D01*
X503472Y446102D02*
X503478Y446489D01*
X503472Y446102D02*
X503500Y446000D01*
Y445606D02*
Y446000D01*
Y445606D02*
X503654Y444833D01*
X503955Y444105D01*
X504393Y443450D01*
X504950Y442893D01*
X505605Y442455D01*
X506333Y442154D01*
X507106Y442000D01*
X507500D01*
X552000Y442000D01*
X552294Y441986D01*
X552870Y441872D01*
X553413Y441647D01*
X553902Y441321D01*
X554318Y440906D01*
X554645Y440418D01*
X554870Y439875D01*
X554985Y439299D01*
X555000Y439000D01*
X554985Y438706D02*
X555000Y439000D01*
X554870Y438130D02*
X554985Y438706D01*
X554645Y437587D02*
X554870Y438130D01*
X554318Y437099D02*
X554645Y437587D01*
X553902Y436684D02*
X554318Y437099D01*
X553413Y436358D02*
X553902Y436684D01*
X552870Y436133D02*
X553413Y436358D01*
X552294Y436019D02*
X552870Y436133D01*
X552000Y436000D02*
X552294Y436019D01*
X447000Y436000D02*
X552000D01*
X446706Y436014D02*
X447000Y436000D01*
X446130Y436128D02*
X446706Y436014D01*
X445587Y436353D02*
X446130Y436128D01*
X445098Y436679D02*
X445587Y436353D01*
X444682Y437094D02*
X445098Y436679D01*
X444355Y437582D02*
X444682Y437094D01*
X444130Y438125D02*
X444355Y437582D01*
X444015Y438701D02*
X444130Y438125D01*
X444000Y439005D02*
X444015Y438701D01*
X444000Y439005D02*
X444015Y439299D01*
X444130Y439875D01*
X444355Y440418D01*
X444682Y440906D01*
X445098Y441321D01*
X445587Y441647D01*
X446130Y441872D01*
X446706Y441986D01*
X447000Y442000D01*
X491894D01*
X492667Y442154D01*
X493395Y442455D01*
X494050Y442893D01*
X494607Y443450D01*
X495045Y444105D01*
X495346Y444833D01*
X495500Y445606D01*
Y446000D01*
X495500Y446130D02*
X495500Y446000D01*
X495494Y446518D02*
X495500Y446130D01*
X495330Y447275D02*
X495494Y446518D01*
X495021Y447987D02*
X495330Y447275D01*
X494580Y448624D02*
X495021Y447987D01*
X494023Y449163D02*
X494580Y448624D01*
X493371Y449583D02*
X494023Y449163D01*
X492650Y449868D02*
X493371Y449583D01*
X581630Y251900D02*
X582867Y251654D01*
X584031Y251172D01*
X585080Y250471D01*
X585971Y249580D01*
X586672Y248532D01*
X587154Y247367D01*
X587400Y246130D01*
Y245500D02*
Y246130D01*
Y244870D02*
Y245500D01*
X587154Y243633D02*
X587400Y244870D01*
X586672Y242469D02*
X587154Y243633D01*
X585971Y241420D02*
X586672Y242469D01*
X585080Y240529D02*
X585971Y241420D01*
X584031Y239828D02*
X585080Y240529D01*
X582867Y239346D02*
X584031Y239828D01*
X581630Y239100D02*
X582867Y239346D01*
X580370Y239100D02*
X581630D01*
X579133Y239346D02*
X580370Y239100D01*
X577969Y239828D02*
X579133Y239346D01*
X576920Y240529D02*
X577969Y239828D01*
X576029Y241420D02*
X576920Y240529D01*
X575328Y242469D02*
X576029Y241420D01*
X574846Y243633D02*
X575328Y242469D01*
X574600Y244870D02*
X574846Y243633D01*
X574600Y244870D02*
Y245500D01*
Y246130D01*
X574846Y247367D01*
X575328Y248532D01*
X576029Y249580D01*
X576920Y250471D01*
X577969Y251172D01*
X579133Y251654D01*
X580370Y251900D01*
X581630D01*
X367106Y450000D02*
X491500D01*
X366333Y449846D02*
X367106Y450000D01*
X365605Y449545D02*
X366333Y449846D01*
X364950Y449107D02*
X365605Y449545D01*
X364393Y448550D02*
X364950Y449107D01*
X363955Y447895D02*
X364393Y448550D01*
X363654Y447167D02*
X363955Y447895D01*
X363500Y446394D02*
X363654Y447167D01*
X363500Y446000D02*
Y446394D01*
Y445606D02*
Y446000D01*
Y445606D02*
X363654Y444833D01*
X363955Y444105D01*
X364393Y443450D01*
X364950Y442893D01*
X365605Y442455D01*
X366333Y442154D01*
X367106Y442000D01*
X367500D01*
X412000Y442002D01*
X412294Y441988D01*
X412872Y441874D01*
X413415Y441649D01*
X413905Y441322D01*
X414321Y440905D01*
X414647Y440416D01*
X414872Y439872D01*
X414986Y439294D01*
X415000Y439000D01*
X414985Y438706D02*
X415000Y439000D01*
X414870Y438130D02*
X414985Y438706D01*
X414645Y437587D02*
X414870Y438130D01*
X414318Y437099D02*
X414645Y437587D01*
X413902Y436684D02*
X414318Y437099D01*
X413413Y436358D02*
X413902Y436684D01*
X412870Y436133D02*
X413413Y436358D01*
X412294Y436019D02*
X412870Y436133D01*
X412000Y436000D02*
X412294Y436019D01*
X307000Y436000D02*
X412000D01*
X306706Y436014D02*
X307000Y436000D01*
X306130Y436128D02*
X306706Y436014D01*
X305587Y436353D02*
X306130Y436128D01*
X305098Y436679D02*
X305587Y436353D01*
X304682Y437094D02*
X305098Y436679D01*
X304355Y437582D02*
X304682Y437094D01*
X304130Y438125D02*
X304355Y437582D01*
X304015Y438701D02*
X304130Y438125D01*
X304000Y439000D02*
X304015Y438701D01*
X304000Y439000D02*
X304015Y439294D01*
X304130Y439870D01*
X304355Y440413D01*
X304682Y440901D01*
X305098Y441316D01*
X305587Y441642D01*
X306130Y441867D01*
X306706Y441981D01*
X307000Y442000D01*
X351894D01*
X352667Y442154D01*
X353395Y442455D01*
X354050Y442893D01*
X354607Y443450D01*
X355045Y444105D01*
X355346Y444833D01*
X355500Y445606D01*
Y445912D01*
X355500Y445910D02*
X355500Y445912D01*
X355500Y445910D02*
X355500Y446000D01*
Y445912D02*
Y446000D01*
Y445912D02*
X355504Y446308D01*
X355358Y447091D02*
X355504Y446308D01*
X355061Y447831D02*
X355358Y447091D01*
X354626Y448498D02*
X355061Y447831D01*
X354068Y449068D02*
X354626Y448498D01*
X353411Y449518D02*
X354068Y449068D01*
X352678Y449831D02*
X353411Y449518D01*
X351898Y449996D02*
X352678Y449831D01*
X351500Y450000D02*
X351898Y449996D01*
X236015Y425500D02*
X237000Y425500D01*
X234083Y425116D02*
X236015Y425500D01*
X232263Y424362D02*
X234083Y425116D01*
X230625Y423268D02*
X232263Y424362D01*
X229233Y421875D02*
X230625Y423268D01*
X228138Y420237D02*
X229233Y421875D01*
X227384Y418417D02*
X228138Y420237D01*
X227000Y416485D02*
X227384Y418417D01*
X227000Y415500D02*
Y416485D01*
X237000Y234500D02*
Y316000D01*
X237000Y234008D02*
X237000Y234500D01*
X237000Y234008D02*
X237192Y233042D01*
X237569Y232132D01*
X238116Y231313D01*
X238813Y230616D01*
X239632Y230069D01*
X240542Y229692D01*
X241508Y229500D01*
X242000Y229500D01*
X266500Y229500D01*
X267137Y229469D01*
X268387Y229220D01*
X269564Y228732D01*
X270623Y228025D01*
X271525Y227123D01*
X272233Y226064D01*
X272720Y224887D01*
X272969Y223637D01*
X273000Y223000D01*
X273000Y213000D02*
X273000Y223000D01*
X273000Y212148D02*
Y213000D01*
Y212148D02*
X273222Y210458D01*
X273663Y208812D01*
X274316Y207238D01*
X275168Y205762D01*
X276205Y204410D01*
X277410Y203205D01*
X278762Y202168D01*
X280238Y201316D01*
X281812Y200663D01*
X283458Y200222D01*
X285148Y200000D01*
X286000D01*
X351500Y200000D01*
X351887Y199994D01*
X352650Y200132D01*
X353371Y200417D01*
X354023Y200837D01*
X354580Y201376D01*
X355021Y202013D01*
X355330Y202725D01*
X355494Y203482D01*
X355500Y203870D01*
X355500Y204000D01*
Y204394D01*
X355346Y205167D02*
X355500Y204394D01*
X355045Y205895D02*
X355346Y205167D01*
X354607Y206550D02*
X355045Y205895D01*
X354050Y207107D02*
X354607Y206550D01*
X353395Y207545D02*
X354050Y207107D01*
X352667Y207846D02*
X353395Y207545D01*
X351894Y208000D02*
X352667Y207846D01*
X307000Y208000D02*
X351894D01*
X306706Y208014D02*
X307000Y208000D01*
X306130Y208128D02*
X306706Y208014D01*
X305587Y208353D02*
X306130Y208128D01*
X305098Y208679D02*
X305587Y208353D01*
X304682Y209094D02*
X305098Y208679D01*
X304355Y209582D02*
X304682Y209094D01*
X304130Y210125D02*
X304355Y209582D01*
X304015Y210701D02*
X304130Y210125D01*
X304000Y211000D02*
X304015Y210701D01*
X304000Y211000D02*
X304015Y211294D01*
X304130Y211870D01*
X304355Y212413D01*
X304682Y212901D01*
X305098Y213316D01*
X305587Y213642D01*
X306130Y213867D01*
X306706Y213981D01*
X307000Y214000D01*
X412000Y214000D01*
X412294Y213986D01*
X412870Y213872D01*
X413413Y213647D01*
X413902Y213321D01*
X414318Y212906D01*
X414645Y212418D01*
X414870Y211875D01*
X414985Y211299D01*
X415000Y211000D01*
X414985Y210706D02*
X415000Y211000D01*
X414870Y210130D02*
X414985Y210706D01*
X414645Y209587D02*
X414870Y210130D01*
X414318Y209099D02*
X414645Y209587D01*
X413902Y208684D02*
X414318Y209099D01*
X413413Y208358D02*
X413902Y208684D01*
X412870Y208133D02*
X413413Y208358D01*
X412294Y208019D02*
X412870Y208133D01*
X412000Y208000D02*
X412294Y208019D01*
X367106Y208000D02*
X412000D01*
X366333Y207846D02*
X367106Y208000D01*
X365605Y207545D02*
X366333Y207846D01*
X364950Y207107D02*
X365605Y207545D01*
X364393Y206550D02*
X364950Y207107D01*
X363955Y205895D02*
X364393Y206550D01*
X363654Y205167D02*
X363955Y205895D01*
X363500Y204394D02*
X363654Y205167D01*
X363500Y204000D02*
Y204394D01*
X367500Y200000D02*
X491894D01*
X492667Y200154D01*
X493395Y200455D01*
X494050Y200893D01*
X494607Y201450D01*
X495045Y202105D01*
X495346Y202833D01*
X495500Y203606D01*
Y204000D01*
Y204394D01*
X495346Y205167D02*
X495500Y204394D01*
X495045Y205895D02*
X495346Y205167D01*
X494607Y206550D02*
X495045Y205895D01*
X494050Y207107D02*
X494607Y206550D01*
X493395Y207545D02*
X494050Y207107D01*
X492667Y207846D02*
X493395Y207545D01*
X491894Y208000D02*
X492667Y207846D01*
X447000Y208000D02*
X491894D01*
X446706Y208014D02*
X447000Y208000D01*
X446130Y208128D02*
X446706Y208014D01*
X445587Y208353D02*
X446130Y208128D01*
X445098Y208679D02*
X445587Y208353D01*
X444682Y209094D02*
X445098Y208679D01*
X444355Y209582D02*
X444682Y209094D01*
X444130Y210125D02*
X444355Y209582D01*
X444015Y210701D02*
X444130Y210125D01*
X444000Y211000D02*
X444015Y210701D01*
X444000Y211000D02*
X444015Y211294D01*
X444130Y211870D01*
X444355Y212413D01*
X444682Y212901D01*
X445098Y213316D01*
X445587Y213642D01*
X446130Y213867D01*
X446706Y213981D01*
X447000Y214000D01*
X552000Y214000D01*
X552294Y213986D01*
X552870Y213872D01*
X553413Y213647D01*
X553902Y213321D01*
X554318Y212906D01*
X554645Y212418D01*
X554870Y211875D01*
X554985Y211299D01*
X555000Y211000D01*
X554985Y210706D02*
X555000Y211000D01*
X554870Y210130D02*
X554985Y210706D01*
X554645Y209587D02*
X554870Y210130D01*
X554318Y209099D02*
X554645Y209587D01*
X553902Y208684D02*
X554318Y209099D01*
X553413Y208358D02*
X553902Y208684D01*
X552870Y208133D02*
X553413Y208358D01*
X552294Y208019D02*
X552870Y208133D01*
X552000Y208000D02*
X552294Y208019D01*
X507106Y208000D02*
X552000D01*
X506333Y207846D02*
X507106Y208000D01*
X505605Y207545D02*
X506333Y207846D01*
X504950Y207107D02*
X505605Y207545D01*
X504393Y206550D02*
X504950Y207107D01*
X503955Y205895D02*
X504393Y206550D01*
X503654Y205167D02*
X503955Y205895D01*
X503500Y204394D02*
X503654Y205167D01*
X503500Y204090D02*
Y204394D01*
X503496Y203692D02*
X503500Y204090D01*
X503496Y203692D02*
X503642Y202908D01*
X503939Y202169D01*
X504374Y201501D01*
X504931Y200932D01*
X505589Y200482D01*
X506322Y200169D01*
X507102Y200004D01*
X507500Y200000D01*
X579500Y215500D02*
Y230500D01*
X579519Y230892D01*
X579672Y231661D01*
X579972Y232386D01*
X580408Y233038D01*
X580962Y233592D01*
X581614Y234028D01*
X582339Y234328D01*
X583108Y234481D01*
X583500Y234500D01*
X584337D01*
X585979Y234827D01*
X587526Y235467D01*
X588918Y236398D01*
X590102Y237582D01*
X591033Y238974D01*
X591673Y240521D01*
X592000Y242163D01*
X592000Y243000D01*
X592000Y394500D02*
X592000Y243000D01*
X592000Y394500D02*
X592000Y395239D01*
X591712Y396688D02*
X592000Y395239D01*
X591146Y398053D02*
X591712Y396688D01*
X590326Y399281D02*
X591146Y398053D01*
X589281Y400326D02*
X590326Y399281D01*
X588053Y401146D02*
X589281Y400326D01*
X586688Y401712D02*
X588053Y401146D01*
X507472Y388602D02*
X552062Y388557D01*
X552357Y388557D01*
X552936Y388442D01*
X553482Y388217D01*
X553973Y387889D01*
X554391Y387472D01*
X554719Y386981D01*
X554946Y386436D01*
X555061Y385857D01*
X555061Y385561D01*
X555061Y385266D02*
X555061Y385561D01*
X554946Y384687D02*
X555061Y385266D01*
X554719Y384142D02*
X554946Y384687D01*
X554391Y383651D02*
X554719Y384142D01*
X553973Y383234D02*
X554391Y383651D01*
X553482Y382907D02*
X553973Y383234D01*
X552936Y382681D02*
X553482Y382907D01*
X552357Y382566D02*
X552936Y382681D01*
X552062Y382567D02*
X552357Y382566D01*
X552041Y382567D02*
X552062Y382567D01*
X447061D02*
X552041Y382567D01*
X446766Y382566D02*
X447061Y382567D01*
X446187Y382681D02*
X446766Y382566D01*
X445641Y382907D02*
X446187Y382681D01*
X445150Y383234D02*
X445641Y382907D01*
X444732Y383651D02*
X445150Y383234D01*
X444404Y384142D02*
X444732Y383651D01*
X444177Y384687D02*
X444404Y384142D01*
X444062Y385266D02*
X444177Y384687D01*
X444062Y385562D02*
X444062Y385266D01*
X444062Y385562D02*
X444062Y385857D01*
X444177Y386436D01*
X444404Y386981D01*
X444732Y387472D01*
X445150Y387889D01*
X445641Y388217D01*
X446187Y388442D01*
X446766Y388557D01*
X447061Y388557D01*
X447062Y388557D01*
X491652Y388602D01*
X507472D01*
X305000Y450000D02*
X351500Y450000D01*
X304050Y450000D02*
X305000D01*
X302165Y449752D02*
X304050Y450000D01*
X300329Y449260D02*
X302165Y449752D01*
X298573Y448532D02*
X300329Y449260D01*
X296927Y447582D02*
X298573Y448532D01*
X295419Y446425D02*
X296927Y447582D01*
X294075Y445081D02*
X295419Y446425D01*
X292918Y443573D02*
X294075Y445081D01*
X291967Y441927D02*
X292918Y443573D01*
X291240Y440171D02*
X291967Y441927D01*
X290748Y438335D02*
X291240Y440171D01*
X290500Y436450D02*
X290748Y438335D01*
X290500Y435500D02*
Y436450D01*
X290452Y434520D02*
X290500Y435500D01*
X290069Y432597D02*
X290452Y434520D01*
X289319Y430786D02*
X290069Y432597D01*
X288230Y429156D02*
X289319Y430786D01*
X286844Y427770D02*
X288230Y429156D01*
X285214Y426681D02*
X286844Y427770D01*
X283403Y425931D02*
X285214Y426681D01*
X281480Y425548D02*
X283403Y425931D01*
X280500Y425500D02*
X281480Y425548D01*
X237000Y425500D02*
X280500Y425500D01*
X227000Y326000D02*
Y415500D01*
X227000Y325507D02*
X227000Y326000D01*
X227000Y325507D02*
X227192Y324541D01*
X227569Y323632D01*
X228116Y322813D01*
X228813Y322116D01*
X229632Y321569D01*
X230541Y321192D01*
X231507Y321000D01*
X232000Y321000D01*
X232490Y320976D01*
X233451Y320785D01*
X234357Y320410D01*
X235172Y319865D01*
X235865Y319172D01*
X236410Y318357D01*
X236785Y317451D01*
X236976Y316490D01*
X237000Y316000D01*
X507500Y200000D02*
X565016D01*
X567030Y200265D01*
X568993Y200791D01*
X570870Y201569D01*
X572630Y202585D01*
X574242Y203821D01*
X575678Y205258D01*
X576915Y206870D01*
X577931Y208630D01*
X578709Y210507D01*
X579235Y212470D01*
X579500Y214484D01*
X579500Y215500D01*
X585239Y402000D02*
X586688Y401712D01*
X584500Y402000D02*
X585239D01*
X584010Y402024D02*
X584500Y402000D01*
X583049Y402215D02*
X584010Y402024D01*
X582143Y402590D02*
X583049Y402215D01*
X581328Y403135D02*
X582143Y402590D01*
X580635Y403828D02*
X581328Y403135D01*
X580090Y404643D02*
X580635Y403828D01*
X579715Y405549D02*
X580090Y404643D01*
X579524Y406510D02*
X579715Y405549D01*
X579500Y407000D02*
X579524Y406510D01*
X579500Y434500D02*
X579500Y407000D01*
X579500Y434500D02*
Y435516D01*
X579235Y437530D02*
X579500Y435516D01*
X578709Y439493D02*
X579235Y437530D01*
X577931Y441370D02*
X578709Y439493D01*
X576915Y443130D02*
X577931Y441370D01*
X575678Y444742D02*
X576915Y443130D01*
X574242Y446178D02*
X575678Y444742D01*
X572630Y447415D02*
X574242Y446178D01*
X570870Y448431D02*
X572630Y447415D01*
X568993Y449209D02*
X570870Y448431D01*
X567030Y449735D02*
X568993Y449209D01*
X565016Y450000D02*
X567030Y449735D01*
X564000Y450000D02*
X565016Y450000D01*
X507472Y449971D02*
X564000Y450000D01*
X507084Y449978D02*
X507472Y449971D01*
X506321Y449839D02*
X507084Y449978D01*
X505600Y449554D02*
X506321Y449839D01*
X504949Y449134D02*
X505600Y449554D01*
X504391Y448595D02*
X504949Y449134D01*
X503950Y447958D02*
X504391Y448595D01*
X503642Y447247D02*
X503950Y447958D01*
X503478Y446489D02*
X503642Y447247D01*
D81*
X394158Y249201D02*
D03*
Y261799D02*
D03*
X404000Y249201D02*
D03*
Y261799D02*
D03*
X413842Y249201D02*
D03*
Y261799D02*
D03*
Y310799D02*
D03*
Y298201D02*
D03*
X404000Y310799D02*
D03*
Y298201D02*
D03*
X394158Y310799D02*
D03*
Y298201D02*
D03*
X259851Y422203D02*
D03*
Y409604D02*
D03*
X250008Y422203D02*
D03*
Y409604D02*
D03*
X240166Y422203D02*
D03*
Y409604D02*
D03*
X394158Y273701D02*
D03*
Y286299D02*
D03*
X404000Y273701D02*
D03*
Y286299D02*
D03*
X413842Y273701D02*
D03*
Y286299D02*
D03*
Y236799D02*
D03*
Y224201D02*
D03*
X404000Y236799D02*
D03*
Y224201D02*
D03*
X394158Y236799D02*
D03*
Y224201D02*
D03*
D82*
X300000Y261500D02*
D03*
Y251500D02*
D03*
X371000Y261500D02*
D03*
Y251500D02*
D03*
X300000Y241500D02*
D03*
Y271500D02*
D03*
X371000D02*
D03*
Y241500D02*
D03*
X300000Y281500D02*
D03*
X371000D02*
D03*
X300000Y291500D02*
D03*
X371000D02*
D03*
X300000Y221500D02*
D03*
X371000D02*
D03*
X494211Y240789D02*
D03*
X383539Y404500D02*
D03*
D83*
X285500Y416000D02*
D03*
X463000Y348000D02*
D03*
Y298000D02*
D03*
Y338000D02*
D03*
Y308000D02*
D03*
Y328000D02*
D03*
X533000Y308000D02*
D03*
Y328000D02*
D03*
Y318000D02*
D03*
X295500Y334500D02*
D03*
Y344500D02*
D03*
Y354500D02*
D03*
Y364500D02*
D03*
Y374500D02*
D03*
Y384500D02*
D03*
Y394500D02*
D03*
X235500D02*
D03*
Y384500D02*
D03*
Y374500D02*
D03*
Y364500D02*
D03*
Y354500D02*
D03*
Y334500D02*
D03*
X514500Y373500D02*
D03*
X504500D02*
D03*
X494500D02*
D03*
X580000Y372500D02*
D03*
Y267500D02*
D03*
D84*
X542500Y365000D02*
D03*
Y355000D02*
D03*
Y345000D02*
D03*
Y335000D02*
D03*
Y325000D02*
D03*
Y315000D02*
D03*
Y305000D02*
D03*
Y295000D02*
D03*
Y285000D02*
D03*
X572500Y295000D02*
D03*
Y305000D02*
D03*
Y315000D02*
D03*
Y355000D02*
D03*
Y365000D02*
D03*
D85*
X504789Y230211D02*
D03*
D86*
X421547Y349000D02*
D03*
X377453D02*
D03*
D87*
X389657Y376559D02*
D03*
X409342Y319472D02*
D03*
X389657D02*
D03*
D88*
X430000Y422000D02*
D03*
Y412000D02*
D03*
Y388000D02*
D03*
X363008Y366904D02*
D03*
X343008D02*
D03*
X333008D02*
D03*
X323008D02*
D03*
X313008D02*
D03*
X300500Y415000D02*
D03*
X583000Y300000D02*
D03*
Y320000D02*
D03*
Y330000D02*
D03*
Y340000D02*
D03*
Y350000D02*
D03*
D89*
X464800Y226600D02*
D03*
X439200D02*
D03*
X534200Y244400D02*
D03*
X559800D02*
D03*
D90*
X285508Y289904D02*
D03*
X275508D02*
D03*
X265508D02*
D03*
X245508D02*
D03*
D91*
X336000Y321000D02*
D03*
D92*
X376000Y264500D02*
D03*
X397000Y395500D02*
D03*
X396000Y365000D02*
D03*
X350500Y284500D02*
D03*
X304000Y343000D02*
D03*
X434500Y376000D02*
D03*
Y382000D02*
D03*
X422500Y330500D02*
D03*
X433500Y367000D02*
D03*
X531000Y279500D02*
D03*
X324000Y392000D02*
D03*
X396000Y332500D02*
D03*
X531000Y270500D02*
D03*
X516500Y260500D02*
D03*
X513000Y281000D02*
D03*
X497500Y225500D02*
D03*
X531000Y257500D02*
D03*
X499500Y266000D02*
D03*
X515500Y360500D02*
D03*
X413000Y386500D02*
D03*
X426000Y309500D02*
D03*
X402500Y332500D02*
D03*
X357500Y353500D02*
D03*
X405000Y367000D02*
D03*
X350500Y350500D02*
D03*
X511000Y338000D02*
D03*
X518000Y319000D02*
D03*
X491000Y345000D02*
D03*
X499000Y328500D02*
D03*
X561500Y341500D02*
D03*
Y350000D02*
D03*
X562000Y317000D02*
D03*
Y328000D02*
D03*
X336404Y413404D02*
D03*
X327500Y404500D02*
D03*
X350500Y332000D02*
D03*
X311000Y389000D02*
D03*
X291500Y326000D02*
D03*
X371500Y327000D02*
D03*
M02*
