G04*
G04 #@! TF.GenerationSoftware,Altium Limited,Altium Designer,24.4.1 (13)*
G04*
G04 Layer_Color=32768*
%FSLAX25Y25*%
%MOIN*%
G70*
G04*
G04 #@! TF.SameCoordinates,2570C4FB-6661-4DCD-87E8-F51DF0FCECC1*
G04*
G04*
G04 #@! TF.FilePolarity,Positive*
G04*
G01*
G75*
%ADD12C,0.00500*%
%ADD108C,0.00197*%
D12*
X294673Y416000D02*
G03*
X294673Y416000I-14173J0D01*
G01*
X594173Y377500D02*
G03*
X594173Y377500I-14173J0D01*
G01*
Y272500D02*
G03*
X594173Y272500I-14173J0D01*
G01*
D108*
X423106Y404500D02*
G03*
X423106Y404500I-24606J0D01*
G01*
X386283Y245500D02*
X421716D01*
Y265500D01*
X386283D02*
X421716D01*
X386283Y245500D02*
Y265500D01*
Y294500D02*
Y314500D01*
X421716D01*
Y294500D02*
Y314500D01*
X386283Y294500D02*
X421716D01*
X294516Y297484D02*
X376484D01*
Y215516D02*
Y297484D01*
X294516Y215516D02*
X376484D01*
X294516D02*
Y297484D01*
X538276Y380370D02*
X551724D01*
X538276Y372630D02*
X551724D01*
X538276D02*
Y380370D01*
X551724Y372630D02*
Y380370D01*
X538984Y269516D02*
Y376484D01*
X457016D02*
X538984D01*
X457016Y269516D02*
Y376484D01*
Y269516D02*
X538984D01*
X457276Y394630D02*
Y402370D01*
X470724Y394630D02*
Y402370D01*
X457276D02*
X470724D01*
X457276Y394630D02*
X470724D01*
X463276Y409130D02*
Y416870D01*
X476724Y409130D02*
Y416870D01*
X463276D02*
X476724D01*
X463276Y409130D02*
X476724D01*
X332776Y347370D02*
X346224D01*
X332776Y339630D02*
X346224D01*
X332776D02*
Y347370D01*
X346224Y339630D02*
Y347370D01*
X229516Y406823D02*
X301484D01*
Y322177D02*
Y406823D01*
X284201Y322177D02*
X301484D01*
X284201Y316114D02*
Y322177D01*
X246799Y316114D02*
X284201D01*
X246799D02*
Y322177D01*
X229516D02*
X246799D01*
X229516D02*
Y406823D01*
X470408Y235361D02*
X499361Y206408D01*
X528592Y235639D01*
X499639Y264592D02*
X528592Y235639D01*
X470408Y235361D02*
X499639Y264592D01*
X370563Y381087D02*
X428437D01*
Y314945D02*
Y381087D01*
X370563Y314945D02*
X428437D01*
X370563D02*
Y381087D01*
X424016Y406016D02*
X435984D01*
Y427984D01*
X424016D02*
X435984D01*
X424016Y406016D02*
Y427984D01*
X232292Y405904D02*
Y425904D01*
X267725D01*
Y405904D02*
Y425904D01*
X232292Y405904D02*
X267725D01*
X317630Y290169D02*
X325370D01*
X317630Y276720D02*
X325370D01*
Y290169D01*
X317630Y276720D02*
Y290169D01*
X417724Y422130D02*
Y429870D01*
X404276Y422130D02*
Y429870D01*
Y422130D02*
X417724D01*
X404276Y429870D02*
X417724D01*
X332476Y316134D02*
Y321547D01*
X328047Y325976D02*
X332476Y321547D01*
X304524Y325976D02*
X328047D01*
X304524Y316134D02*
Y325976D01*
Y298024D02*
Y307866D01*
Y298024D02*
X328047D01*
X332476Y302453D01*
Y307866D01*
X335626D02*
Y316134D01*
X332476D02*
X335626D01*
X301374D02*
X304524D01*
X301374Y307866D02*
Y316134D01*
Y307866D02*
X304524D01*
X332476D02*
X335626D01*
X369976Y316134D02*
Y321547D01*
X365547Y325976D02*
X369976Y321547D01*
X342024Y325976D02*
X365547D01*
X342024Y316134D02*
Y325976D01*
Y298024D02*
Y307866D01*
Y298024D02*
X365547D01*
X369976Y302453D01*
Y307866D01*
X373126D02*
Y316134D01*
X369976D02*
X373126D01*
X338874D02*
X342024D01*
X338874Y307866D02*
Y316134D01*
Y307866D02*
X342024D01*
X369976D02*
X373126D01*
X448370Y393126D02*
Y406575D01*
X440630Y393126D02*
Y406575D01*
X448370D01*
X440630Y393126D02*
X448370D01*
X324776Y335870D02*
X338224D01*
X324776Y328130D02*
X338224D01*
X324776D02*
Y335870D01*
X338224Y328130D02*
Y335870D01*
X283276Y307630D02*
Y315370D01*
X296724Y307630D02*
Y315370D01*
X283276D02*
X296724D01*
X283276Y307630D02*
X296724D01*
X558776Y371630D02*
Y379370D01*
X572224Y371630D02*
Y379370D01*
X558776D02*
X572224D01*
X558776Y371630D02*
X572224D01*
X552276Y265130D02*
Y272870D01*
X565724Y265130D02*
Y272870D01*
X552276D02*
X565724D01*
X552276Y265130D02*
X565724D01*
X254276Y389130D02*
Y396870D01*
X267724Y389130D02*
Y396870D01*
X254276D02*
X267724D01*
X254276Y389130D02*
X267724D01*
X424016Y382016D02*
X435984D01*
Y403984D01*
X424016D02*
X435984D01*
X424016Y382016D02*
Y403984D01*
X386283Y270000D02*
X421716D01*
Y290000D01*
X386283D02*
X421716D01*
X386283Y270000D02*
Y290000D01*
Y220500D02*
Y240500D01*
X421716D01*
Y220500D02*
Y240500D01*
X386283Y220500D02*
X421716D01*
X447335Y276059D02*
Y380390D01*
Y276059D02*
X551665D01*
Y380390D01*
X447335D02*
X551665D01*
X369977Y360919D02*
Y372888D01*
X306040D02*
X369977D01*
X306040Y360919D02*
Y372888D01*
Y360919D02*
X369977D01*
X239524Y295888D02*
X291493D01*
X239524Y283919D02*
Y295888D01*
Y283919D02*
X291493D01*
Y295888D01*
X294516Y430984D02*
X306484Y430984D01*
X294516Y409016D02*
Y430984D01*
Y409016D02*
X306484Y409016D01*
Y430984D01*
X588984Y293032D02*
Y356968D01*
X577016Y293032D02*
X588984D01*
X577016D02*
Y356968D01*
X588984D01*
M02*
