G04*
G04 #@! TF.GenerationSoftware,Altium Limited,Altium Designer,24.4.1 (13)*
G04*
G04 Layer_Color=255*
%FSLAX25Y25*%
%MOIN*%
G70*
G04*
G04 #@! TF.SameCoordinates,2570C4FB-6661-4DCD-87E8-F51DF0FCECC1*
G04*
G04*
G04 #@! TF.FilePolarity,Positive*
G04*
G01*
G75*
%ADD18R,0.09449X0.07874*%
G04:AMPARAMS|DCode=19|XSize=78.74mil|YSize=70.87mil|CornerRadius=0mil|HoleSize=0mil|Usage=FLASHONLY|Rotation=45.000|XOffset=0mil|YOffset=0mil|HoleType=Round|Shape=Rectangle|*
%AMROTATEDRECTD19*
4,1,4,-0.00278,-0.05289,-0.05289,-0.00278,0.00278,0.05289,0.05289,0.00278,-0.00278,-0.05289,0.0*
%
%ADD19ROTATEDRECTD19*%

G04:AMPARAMS|DCode=20|XSize=78.74mil|YSize=39.37mil|CornerRadius=0mil|HoleSize=0mil|Usage=FLASHONLY|Rotation=45.000|XOffset=0mil|YOffset=0mil|HoleType=Round|Shape=Rectangle|*
%AMROTATEDRECTD20*
4,1,4,-0.01392,-0.04176,-0.04176,-0.01392,0.01392,0.04176,0.04176,0.01392,-0.01392,-0.04176,0.0*
%
%ADD20ROTATEDRECTD20*%

%ADD21R,0.12598X0.06299*%
%ADD54R,0.05347X0.05347*%
%ADD55C,0.05347*%
%ADD56C,0.05150*%
%ADD57R,0.05150X0.05150*%
%ADD58C,0.05937*%
%ADD59R,0.05937X0.05937*%
%ADD60C,0.05900*%
%ADD61R,0.05900X0.05900*%
%ADD62C,0.07600*%
%ADD63R,0.06299X0.06299*%
%ADD64C,0.06299*%
%ADD65C,0.04331*%
%ADD66C,0.03150*%
%ADD67O,0.11811X0.23622*%
%ADD68C,0.07087*%
%ADD69R,0.07087X0.07087*%
%ADD70C,0.06319*%
%ADD71R,0.06319X0.06319*%
%ADD72C,0.07874*%
%ADD73O,0.12000X0.06000*%
%ADD74R,0.06319X0.06319*%
%ADD75C,0.05394*%
%ADD76R,0.05394X0.05394*%
%ADD77R,0.05937X0.05937*%
D18*
X361591Y418791D02*
D03*
Y380209D02*
D03*
D19*
X510775Y224225D02*
D03*
X488225Y246775D02*
D03*
D20*
X506669Y250603D02*
D03*
X510636Y246636D02*
D03*
X514603Y242669D02*
D03*
X492332Y220397D02*
D03*
X484397Y228331D02*
D03*
X488365Y224364D02*
D03*
D21*
X308658Y312000D02*
D03*
X328343D02*
D03*
X346158D02*
D03*
X365843D02*
D03*
D54*
X394158Y249201D02*
D03*
Y298201D02*
D03*
X240166Y409604D02*
D03*
X394158Y273701D02*
D03*
Y224201D02*
D03*
D55*
Y261799D02*
D03*
X404000Y249201D02*
D03*
Y261799D02*
D03*
X413842Y249201D02*
D03*
Y261799D02*
D03*
Y310799D02*
D03*
Y298201D02*
D03*
X404000Y310799D02*
D03*
Y298201D02*
D03*
X394158Y310799D02*
D03*
X259851Y422203D02*
D03*
Y409604D02*
D03*
X250008Y422203D02*
D03*
Y409604D02*
D03*
X240166Y422203D02*
D03*
X394158Y286299D02*
D03*
X404000Y273701D02*
D03*
Y286299D02*
D03*
X413842Y273701D02*
D03*
Y286299D02*
D03*
Y236799D02*
D03*
Y224201D02*
D03*
X404000Y236799D02*
D03*
Y224201D02*
D03*
X394158Y236799D02*
D03*
D56*
X300000Y261500D02*
D03*
Y251500D02*
D03*
X371000Y261500D02*
D03*
Y251500D02*
D03*
X300000Y241500D02*
D03*
Y271500D02*
D03*
X371000D02*
D03*
Y241500D02*
D03*
X300000Y281500D02*
D03*
X371000D02*
D03*
X300000Y231500D02*
D03*
X371000D02*
D03*
Y291500D02*
D03*
X300000Y221500D02*
D03*
X371000D02*
D03*
D57*
X300000Y291500D02*
D03*
D58*
X285500Y416000D02*
D03*
X514500Y373500D02*
D03*
X504500D02*
D03*
X494500D02*
D03*
X580000Y372500D02*
D03*
Y267500D02*
D03*
D59*
X275500Y416000D02*
D03*
X484500Y373500D02*
D03*
D60*
X542500Y365000D02*
D03*
Y355000D02*
D03*
Y345000D02*
D03*
Y335000D02*
D03*
Y325000D02*
D03*
Y315000D02*
D03*
Y305000D02*
D03*
Y295000D02*
D03*
Y285000D02*
D03*
X572500D02*
D03*
Y295000D02*
D03*
Y305000D02*
D03*
Y315000D02*
D03*
Y325000D02*
D03*
Y335000D02*
D03*
Y345000D02*
D03*
Y355000D02*
D03*
D61*
Y365000D02*
D03*
D62*
X463000Y348000D02*
D03*
Y298000D02*
D03*
Y338000D02*
D03*
Y308000D02*
D03*
Y328000D02*
D03*
Y318000D02*
D03*
X533000Y338000D02*
D03*
Y308000D02*
D03*
Y328000D02*
D03*
Y318000D02*
D03*
D63*
X295500Y334500D02*
D03*
D64*
Y344500D02*
D03*
Y354500D02*
D03*
Y364500D02*
D03*
Y374500D02*
D03*
Y384500D02*
D03*
Y394500D02*
D03*
X235500D02*
D03*
Y384500D02*
D03*
Y374500D02*
D03*
Y364500D02*
D03*
Y354500D02*
D03*
Y344500D02*
D03*
Y334500D02*
D03*
D65*
X504789Y230211D02*
D03*
D66*
X494211Y240789D02*
D03*
D67*
X421547Y349000D02*
D03*
X377453D02*
D03*
D68*
X409342Y376559D02*
D03*
X399500Y319472D02*
D03*
X409342D02*
D03*
X389657D02*
D03*
D69*
Y376559D02*
D03*
D70*
X430000Y422000D02*
D03*
Y398000D02*
D03*
X353008Y366904D02*
D03*
X343008D02*
D03*
X333008D02*
D03*
X323008D02*
D03*
X313008D02*
D03*
X300500Y415000D02*
D03*
X583000Y300000D02*
D03*
Y310000D02*
D03*
Y320000D02*
D03*
Y330000D02*
D03*
Y340000D02*
D03*
D71*
X430000Y412000D02*
D03*
Y388000D02*
D03*
X300500Y425000D02*
D03*
X583000Y350000D02*
D03*
D72*
X413461Y404500D02*
D03*
X383539D02*
D03*
D73*
X464800Y226600D02*
D03*
Y244400D02*
D03*
X439200Y226600D02*
D03*
Y244400D02*
D03*
X534200D02*
D03*
Y226600D02*
D03*
X559800Y244400D02*
D03*
Y226600D02*
D03*
D74*
X363008Y366904D02*
D03*
D75*
X285508Y289904D02*
D03*
X275508D02*
D03*
X265508D02*
D03*
X255508D02*
D03*
D76*
X245508D02*
D03*
D77*
X580000Y382500D02*
D03*
Y277500D02*
D03*
M02*
