G04*
G04 #@! TF.GenerationSoftware,Altium Limited,Altium Designer,24.4.1 (13)*
G04*
G04 Layer_Color=32896*
%FSLAX25Y25*%
%MOIN*%
G70*
G04*
G04 #@! TF.SameCoordinates,2570C4FB-6661-4DCD-87E8-F51DF0FCECC1*
G04*
G04*
G04 #@! TF.FilePolarity,Positive*
G04*
G01*
G75*
%ADD11C,0.00000*%
%ADD12C,0.00500*%
%ADD13C,0.00600*%
%ADD14C,0.01000*%
D11*
X556300Y371000D02*
G03*
X558700Y371000I1200J0D01*
G01*
D12*
X458000Y280500D02*
G03*
X468000Y270500I10000J0D01*
G01*
Y375500D02*
G03*
X458000Y365500I0J-10000D01*
G01*
X538000D02*
G03*
X528000Y375500I-10000J0D01*
G01*
Y270500D02*
G03*
X538000Y280500I0J10000D01*
G01*
X468000Y375500D02*
X528000D01*
X468000Y270500D02*
X528000D01*
X458000Y353060D02*
Y365500D01*
Y280500D02*
Y292940D01*
X538000Y343060D02*
Y365500D01*
Y280500D02*
Y302940D01*
X463291Y395665D02*
X464709D01*
X463291Y401335D02*
X464709D01*
X338791Y340665D02*
X340209D01*
X338791Y346335D02*
X340209D01*
X441665Y399142D02*
Y400559D01*
X447335Y399142D02*
Y400559D01*
X330791Y329165D02*
X332209D01*
X330791Y334835D02*
X332209D01*
X289291Y308665D02*
X290709D01*
X289291Y314335D02*
X290709D01*
X564791Y372665D02*
X566209D01*
X564791Y378335D02*
X566209D01*
X558291Y266165D02*
X559709D01*
X558291Y271835D02*
X559709D01*
X260291Y390165D02*
X261709D01*
X260291Y395835D02*
X261709D01*
X452833Y409500D02*
X451500D01*
X452166D01*
Y407500D01*
X450834D02*
X450167D01*
X450500D01*
Y409500D01*
X450834Y409166D01*
X445500Y401516D02*
X443500D01*
Y400517D01*
X443833Y400184D01*
X444500D01*
X444833Y400517D01*
Y401516D01*
Y400850D02*
X445500Y400184D01*
X443833Y399517D02*
X443500Y399184D01*
Y398517D01*
X443833Y398184D01*
X444167D01*
X444500Y398517D01*
X444833Y398184D01*
X445166D01*
X445500Y398517D01*
Y399184D01*
X445166Y399517D01*
X444833D01*
X444500Y399184D01*
X444167Y399517D01*
X443833D01*
X444500Y399184D02*
Y398517D01*
X465666Y397500D02*
Y399500D01*
X464666D01*
X464333Y399166D01*
Y398500D01*
X464666Y398167D01*
X465666D01*
X465000D02*
X464333Y397500D01*
X463667Y399500D02*
X462334D01*
Y399166D01*
X463667Y397834D01*
Y397500D01*
X333166Y331000D02*
Y333000D01*
X332166D01*
X331833Y332666D01*
Y332000D01*
X332166Y331667D01*
X333166D01*
X332500D02*
X331833Y331000D01*
X329834Y333000D02*
X330500Y332666D01*
X331167Y332000D01*
Y331334D01*
X330834Y331000D01*
X330167D01*
X329834Y331334D01*
Y331667D01*
X330167Y332000D01*
X331167D01*
X338500Y341834D02*
X340500D01*
Y342834D01*
X340166Y343167D01*
X339500D01*
X339167Y342834D01*
Y341834D01*
Y342500D02*
X338500Y343167D01*
X340500Y345166D02*
Y343833D01*
X339500D01*
X339833Y344500D01*
Y344833D01*
X339500Y345166D01*
X338834D01*
X338500Y344833D01*
Y344166D01*
X338834Y343833D01*
X291265Y310500D02*
Y312500D01*
X290265D01*
X289932Y312167D01*
Y311500D01*
X290265Y311167D01*
X291265D01*
X290598D02*
X289932Y310500D01*
X288265D02*
Y312500D01*
X289265Y311500D01*
X287932D01*
X567166Y374500D02*
Y376500D01*
X566166D01*
X565833Y376167D01*
Y375500D01*
X566166Y375167D01*
X567166D01*
X566500D02*
X565833Y374500D01*
X565167Y376167D02*
X564833Y376500D01*
X564167D01*
X563834Y376167D01*
Y375833D01*
X564167Y375500D01*
X564500D01*
X564167D01*
X563834Y375167D01*
Y374834D01*
X564167Y374500D01*
X564833D01*
X565167Y374834D01*
X560666Y268000D02*
Y270000D01*
X559666D01*
X559333Y269667D01*
Y269000D01*
X559666Y268667D01*
X560666D01*
X560000D02*
X559333Y268000D01*
X557334D02*
X558667D01*
X557334Y269333D01*
Y269667D01*
X557667Y270000D01*
X558333D01*
X558667Y269667D01*
X262333Y392000D02*
Y394000D01*
X261333D01*
X261000Y393667D01*
Y393000D01*
X261333Y392667D01*
X262333D01*
X261666D02*
X261000Y392000D01*
X260334D02*
X259667D01*
X260000D01*
Y394000D01*
X260334Y393667D01*
X469667Y412333D02*
X469334Y412000D01*
X468667D01*
X468334Y412333D01*
Y413666D01*
X468667Y414000D01*
X469334D01*
X469667Y413666D01*
X470333D02*
X470667Y414000D01*
X471333D01*
X471666Y413666D01*
Y412333D01*
X471333Y412000D01*
X470667D01*
X470333Y412333D01*
Y412667D01*
X470667Y413000D01*
X471666D01*
X321833Y284111D02*
X322166Y284445D01*
X322833D01*
X323166Y284111D01*
Y282778D01*
X322833Y282445D01*
X322166D01*
X321833Y282778D01*
X319834Y284445D02*
X321167D01*
Y283445D01*
X320500Y283778D01*
X320167D01*
X319834Y283445D01*
Y282778D01*
X320167Y282445D01*
X320833D01*
X321167Y282778D01*
X411333Y426666D02*
X411666Y427000D01*
X412333D01*
X412666Y426666D01*
Y425334D01*
X412333Y425000D01*
X411666D01*
X411333Y425334D01*
X409334Y425000D02*
X410667D01*
X409334Y426333D01*
Y426666D01*
X409667Y427000D01*
X410333D01*
X410667Y426666D01*
X545000Y377167D02*
X545333Y377500D01*
X546000D01*
X546333Y377167D01*
Y375834D01*
X546000Y375500D01*
X545333D01*
X545000Y375834D01*
X544334Y375500D02*
X543667D01*
X544000D01*
Y377500D01*
X544334Y377167D01*
D13*
X571500Y279000D02*
Y280900D01*
Y369300D02*
Y371000D01*
X558700D02*
X571500D01*
X556300D02*
X558700D01*
X543500D02*
X556300D01*
X543500Y279000D02*
Y280900D01*
Y279000D02*
X571500D01*
X543500Y369100D02*
Y371000D01*
D14*
X456999Y377999D02*
Y373001D01*
X455999Y372001D01*
X454000D01*
X453000Y373001D01*
Y377999D01*
X451001Y372001D02*
X449001D01*
X450001D01*
Y377999D01*
X451001Y376999D01*
M02*
