G04*
G04 #@! TF.GenerationSoftware,Altium Limited,Altium Designer,24.4.1 (13)*
G04*
G04 Layer_Color=2752767*
%FSLAX25Y25*%
%MOIN*%
G70*
G04*
G04 #@! TF.SameCoordinates,2570C4FB-6661-4DCD-87E8-F51DF0FCECC1*
G04*
G04*
G04 #@! TF.FilePolarity,Positive*
G04*
G01*
G75*
%ADD12C,0.00500*%
%ADD109C,0.00667*%
%ADD110C,0.00400*%
D12*
X299000Y260500D02*
Y259500D01*
X301000D01*
Y260500D01*
X302000D01*
Y262500D01*
X301000D01*
Y263500D01*
X299000D01*
Y262500D01*
X298000D01*
Y260500D01*
X299000D01*
Y250500D02*
Y249500D01*
X301000D01*
Y250500D01*
X302000D01*
Y252500D01*
X301000D01*
Y253500D01*
X299000D01*
Y252500D01*
X298000D01*
Y250500D01*
X299000D01*
X370000Y260500D02*
Y259500D01*
X372000D01*
Y260500D01*
X373000D01*
Y262500D01*
X372000D01*
Y263500D01*
X370000D01*
Y262500D01*
X369000D01*
Y260500D01*
X370000D01*
Y250500D02*
Y249500D01*
X372000D01*
Y250500D01*
X373000D01*
Y252500D01*
X372000D01*
Y253500D01*
X370000D01*
Y252500D01*
X369000D01*
Y250500D01*
X370000D01*
X299000Y240500D02*
Y239500D01*
X301000D01*
Y240500D01*
X302000D01*
Y242500D01*
X301000D01*
Y243500D01*
X299000D01*
Y242500D01*
X298000D01*
Y240500D01*
X299000D01*
Y270500D02*
Y269500D01*
X301000D01*
Y270500D01*
X302000D01*
Y272500D01*
X301000D01*
Y273500D01*
X299000D01*
Y272500D01*
X298000D01*
Y270500D01*
X299000D01*
X370000D02*
Y269500D01*
X372000D01*
Y270500D01*
X373000D01*
Y272500D01*
X372000D01*
Y273500D01*
X370000D01*
Y272500D01*
X369000D01*
Y270500D01*
X370000D01*
Y240500D02*
Y239500D01*
X372000D01*
Y240500D01*
X373000D01*
Y242500D01*
X372000D01*
Y243500D01*
X370000D01*
Y242500D01*
X369000D01*
Y240500D01*
X370000D01*
X299000Y280500D02*
Y279500D01*
X301000D01*
Y280500D01*
X302000D01*
Y282500D01*
X301000D01*
Y283500D01*
X299000D01*
Y282500D01*
X298000D01*
Y280500D01*
X299000D01*
X370000D02*
Y279500D01*
X372000D01*
Y280500D01*
X373000D01*
Y282500D01*
X372000D01*
Y283500D01*
X370000D01*
Y282500D01*
X369000D01*
Y280500D01*
X370000D01*
X299000Y230500D02*
Y229500D01*
X301000D01*
Y230500D01*
X302000D01*
Y232500D01*
X301000D01*
Y233500D01*
X299000D01*
Y232500D01*
X298000D01*
Y230500D01*
X299000D01*
X370000D02*
Y229500D01*
X372000D01*
Y230500D01*
X373000D01*
Y232500D01*
X372000D01*
Y233500D01*
X370000D01*
Y232500D01*
X369000D01*
Y230500D01*
X370000D01*
X299000Y290500D02*
Y289500D01*
X301000D01*
Y290500D01*
X302000D01*
Y292500D01*
X301000D01*
Y293500D01*
X299000D01*
Y292500D01*
X298000D01*
Y290500D01*
X299000D01*
X370000D02*
Y289500D01*
X372000D01*
Y290500D01*
X373000D01*
Y292500D01*
X372000D01*
Y293500D01*
X370000D01*
Y292500D01*
X369000D01*
Y290500D01*
X370000D01*
X299000Y220500D02*
Y219500D01*
X301000D01*
Y220500D01*
X302000D01*
Y222500D01*
X301000D01*
Y223500D01*
X299000D01*
Y222500D01*
X298000D01*
Y220500D01*
X299000D01*
X370000D02*
Y219500D01*
X372000D01*
Y220500D01*
X373000D01*
Y222500D01*
X372000D01*
Y223500D01*
X370000D01*
Y222500D01*
X369000D01*
Y220500D01*
X370000D01*
X283500Y414000D02*
X284500Y416000D01*
X283500Y418000D01*
X285500Y417000D01*
X287500Y418000D01*
X286500Y416000D01*
X287500Y414000D01*
X285500Y415000D01*
X283500Y414000D01*
X273500D02*
X274500Y416000D01*
X273500Y418000D01*
X275500Y417000D01*
X277500Y418000D01*
X276500Y416000D01*
X277500Y414000D01*
X275500Y415000D01*
X273500Y414000D01*
X540500Y363000D02*
Y367000D01*
X544500D01*
Y363000D01*
X540500D01*
X541300Y363800D02*
Y366200D01*
X543700D01*
Y363800D01*
X541300D01*
X540500Y353000D02*
Y357000D01*
X544500D01*
Y353000D01*
X540500D01*
X541300Y353800D02*
Y356200D01*
X543700D01*
Y353800D01*
X541300D01*
X540500Y343000D02*
Y347000D01*
X544500D01*
Y343000D01*
X540500D01*
X541300Y343800D02*
Y346200D01*
X543700D01*
Y343800D01*
X541300D01*
X540500Y333000D02*
Y337000D01*
X544500D01*
Y333000D01*
X540500D01*
X541300Y333800D02*
Y336200D01*
X543700D01*
Y333800D01*
X541300D01*
X540500Y323000D02*
Y327000D01*
X544500D01*
Y323000D01*
X540500D01*
X541300Y323800D02*
Y326200D01*
X543700D01*
Y323800D01*
X541300D01*
X540500Y313000D02*
Y317000D01*
X544500D01*
Y313000D01*
X540500D01*
X541300Y313800D02*
Y316200D01*
X543700D01*
Y313800D01*
X541300D01*
X540500Y303000D02*
Y307000D01*
X544500D01*
Y303000D01*
X540500D01*
X541300Y303800D02*
Y306200D01*
X543700D01*
Y303800D01*
X541300D01*
X540500Y293000D02*
Y297000D01*
X544500D01*
Y293000D01*
X540500D01*
X541300Y293800D02*
Y296200D01*
X543700D01*
Y293800D01*
X541300D01*
X540500Y283000D02*
Y287000D01*
X544500D01*
Y283000D01*
X540500D01*
X541300Y283800D02*
Y286200D01*
X543700D01*
Y283800D01*
X541300D01*
X570500Y283000D02*
Y287000D01*
X574500D01*
Y283000D01*
X570500D01*
X571300Y283800D02*
Y286200D01*
X573700D01*
Y283800D01*
X571300D01*
X570500Y293000D02*
Y297000D01*
X574500D01*
Y293000D01*
X570500D01*
X571300Y293800D02*
Y296200D01*
X573700D01*
Y293800D01*
X571300D01*
X570500Y303000D02*
Y307000D01*
X574500D01*
Y303000D01*
X570500D01*
X571300Y303800D02*
Y306200D01*
X573700D01*
Y303800D01*
X571300D01*
X570500Y313000D02*
Y317000D01*
X574500D01*
Y313000D01*
X570500D01*
X571300Y313800D02*
Y316200D01*
X573700D01*
Y313800D01*
X571300D01*
X570500Y323000D02*
Y327000D01*
X574500D01*
Y323000D01*
X570500D01*
X571300Y323800D02*
Y326200D01*
X573700D01*
Y323800D01*
X571300D01*
X570500Y333000D02*
Y337000D01*
X574500D01*
Y333000D01*
X570500D01*
X571300Y333800D02*
Y336200D01*
X573700D01*
Y333800D01*
X571300D01*
X570500Y343000D02*
Y347000D01*
X574500D01*
Y343000D01*
X570500D01*
X571300Y343800D02*
Y346200D01*
X573700D01*
Y343800D01*
X571300D01*
X570500Y353000D02*
Y357000D01*
X574500D01*
Y353000D01*
X570500D01*
X571300Y353800D02*
Y356200D01*
X573700D01*
Y353800D01*
X571300D01*
X570500Y363000D02*
Y367000D01*
X574500D01*
Y363000D01*
X570500D01*
X571300Y363800D02*
Y366200D01*
X573700D01*
Y363800D01*
X571300D01*
X461000Y346000D02*
X462000Y348000D01*
X461000Y350000D01*
X463000Y349000D01*
X465000Y350000D01*
X464000Y348000D01*
X465000Y346000D01*
X463000Y347000D01*
X461000Y346000D01*
Y296000D02*
X462000Y298000D01*
X461000Y300000D01*
X463000Y299000D01*
X465000Y300000D01*
X464000Y298000D01*
X465000Y296000D01*
X463000Y297000D01*
X461000Y296000D01*
Y336000D02*
X462000Y338000D01*
X461000Y340000D01*
X463000Y339000D01*
X465000Y340000D01*
X464000Y338000D01*
X465000Y336000D01*
X463000Y337000D01*
X461000Y336000D01*
Y306000D02*
X462000Y308000D01*
X461000Y310000D01*
X463000Y309000D01*
X465000Y310000D01*
X464000Y308000D01*
X465000Y306000D01*
X463000Y307000D01*
X461000Y306000D01*
Y326000D02*
X462000Y328000D01*
X461000Y330000D01*
X463000Y329000D01*
X465000Y330000D01*
X464000Y328000D01*
X465000Y326000D01*
X463000Y327000D01*
X461000Y326000D01*
Y316000D02*
X462000Y318000D01*
X461000Y320000D01*
X463000Y319000D01*
X465000Y320000D01*
X464000Y318000D01*
X465000Y316000D01*
X463000Y317000D01*
X461000Y316000D01*
X531000Y336000D02*
X532000Y338000D01*
X531000Y340000D01*
X533000Y339000D01*
X535000Y340000D01*
X534000Y338000D01*
X535000Y336000D01*
X533000Y337000D01*
X531000Y336000D01*
Y306000D02*
X532000Y308000D01*
X531000Y310000D01*
X533000Y309000D01*
X535000Y310000D01*
X534000Y308000D01*
X535000Y306000D01*
X533000Y307000D01*
X531000Y306000D01*
Y326000D02*
X532000Y328000D01*
X531000Y330000D01*
X533000Y329000D01*
X535000Y330000D01*
X534000Y328000D01*
X535000Y326000D01*
X533000Y327000D01*
X531000Y326000D01*
Y316000D02*
X532000Y318000D01*
X531000Y320000D01*
X533000Y319000D01*
X535000Y320000D01*
X534000Y318000D01*
X535000Y316000D01*
X533000Y317000D01*
X531000Y316000D01*
X293500Y332500D02*
X294500Y334500D01*
X293500Y336500D01*
X295500Y335500D01*
X297500Y336500D01*
X296500Y334500D01*
X297500Y332500D01*
X295500Y333500D01*
X293500Y332500D01*
Y342500D02*
X294500Y344500D01*
X293500Y346500D01*
X295500Y345500D01*
X297500Y346500D01*
X296500Y344500D01*
X297500Y342500D01*
X295500Y343500D01*
X293500Y342500D01*
Y352500D02*
X294500Y354500D01*
X293500Y356500D01*
X295500Y355500D01*
X297500Y356500D01*
X296500Y354500D01*
X297500Y352500D01*
X295500Y353500D01*
X293500Y352500D01*
Y362500D02*
X294500Y364500D01*
X293500Y366500D01*
X295500Y365500D01*
X297500Y366500D01*
X296500Y364500D01*
X297500Y362500D01*
X295500Y363500D01*
X293500Y362500D01*
Y372500D02*
X294500Y374500D01*
X293500Y376500D01*
X295500Y375500D01*
X297500Y376500D01*
X296500Y374500D01*
X297500Y372500D01*
X295500Y373500D01*
X293500Y372500D01*
Y382500D02*
X294500Y384500D01*
X293500Y386500D01*
X295500Y385500D01*
X297500Y386500D01*
X296500Y384500D01*
X297500Y382500D01*
X295500Y383500D01*
X293500Y382500D01*
Y392500D02*
X294500Y394500D01*
X293500Y396500D01*
X295500Y395500D01*
X297500Y396500D01*
X296500Y394500D01*
X297500Y392500D01*
X295500Y393500D01*
X293500Y392500D01*
X233500D02*
X234500Y394500D01*
X233500Y396500D01*
X235500Y395500D01*
X237500Y396500D01*
X236500Y394500D01*
X237500Y392500D01*
X235500Y393500D01*
X233500Y392500D01*
Y382500D02*
X234500Y384500D01*
X233500Y386500D01*
X235500Y385500D01*
X237500Y386500D01*
X236500Y384500D01*
X237500Y382500D01*
X235500Y383500D01*
X233500Y382500D01*
Y372500D02*
X234500Y374500D01*
X233500Y376500D01*
X235500Y375500D01*
X237500Y376500D01*
X236500Y374500D01*
X237500Y372500D01*
X235500Y373500D01*
X233500Y372500D01*
Y362500D02*
X234500Y364500D01*
X233500Y366500D01*
X235500Y365500D01*
X237500Y366500D01*
X236500Y364500D01*
X237500Y362500D01*
X235500Y363500D01*
X233500Y362500D01*
Y352500D02*
X234500Y354500D01*
X233500Y356500D01*
X235500Y355500D01*
X237500Y356500D01*
X236500Y354500D01*
X237500Y352500D01*
X235500Y353500D01*
X233500Y352500D01*
Y342500D02*
X234500Y344500D01*
X233500Y346500D01*
X235500Y345500D01*
X237500Y346500D01*
X236500Y344500D01*
X237500Y342500D01*
X235500Y343500D01*
X233500Y342500D01*
Y332500D02*
X234500Y334500D01*
X233500Y336500D01*
X235500Y335500D01*
X237500Y336500D01*
X236500Y334500D01*
X237500Y332500D01*
X235500Y333500D01*
X233500Y332500D01*
X502789Y228211D02*
X503789Y230211D01*
X502789Y232211D01*
X504789Y231211D01*
X506789Y232211D01*
X505789Y230211D01*
X506789Y228211D01*
X504789Y229211D01*
X502789Y228211D01*
X503589Y229011D02*
X504189Y230211D01*
X503589Y231411D01*
X504789Y230811D01*
X505989Y231411D01*
X505389Y230211D01*
X505989Y229011D01*
X504789Y229611D01*
X503589Y229011D01*
X494211Y238789D02*
X495211Y239789D01*
X496211D01*
X495211Y240789D01*
X496211Y241789D01*
X495211D01*
X494211Y242789D01*
X493211Y241789D01*
X492211D01*
X493211Y240789D01*
X492211Y239789D01*
X493211D01*
X494211Y238789D01*
Y239589D02*
X494811Y240189D01*
X495411D01*
X494811Y240789D01*
X495411Y241389D01*
X494811D01*
X494211Y241989D01*
X493611Y241389D01*
X493011D01*
X493611Y240789D01*
X493011Y240189D01*
X493611D01*
X494211Y239589D01*
X421547Y347000D02*
X422547Y348000D01*
X423547D01*
X422547Y349000D01*
X423547Y350000D01*
X422547D01*
X421547Y351000D01*
X420547Y350000D01*
X419547D01*
X420547Y349000D01*
X419547Y348000D01*
X420547D01*
X421547Y347000D01*
X377453D02*
X378453Y348000D01*
X379453D01*
X378453Y349000D01*
X379453Y350000D01*
X378453D01*
X377453Y351000D01*
X376453Y350000D01*
X375453D01*
X376453Y349000D01*
X375453Y348000D01*
X376453D01*
X377453Y347000D01*
X407342Y374559D02*
X408343D01*
X409342Y375559D01*
X410343Y374559D01*
X411342D01*
Y375559D01*
X410343Y376559D01*
X411342Y377559D01*
Y378559D01*
X410343D01*
X409342Y377559D01*
X408343Y378559D01*
X407342D01*
Y377559D01*
X408343Y376559D01*
X407342Y375559D01*
Y374559D01*
X387657D02*
X388657D01*
X389657Y375559D01*
X390657Y374559D01*
X391657D01*
Y375559D01*
X390657Y376559D01*
X391657Y377559D01*
Y378559D01*
X390657D01*
X389657Y377559D01*
X388657Y378559D01*
X387657D01*
Y377559D01*
X388657Y376559D01*
X387657Y375559D01*
Y374559D01*
X397500Y317472D02*
X398500D01*
X399500Y318472D01*
X400500Y317472D01*
X401500D01*
Y318472D01*
X400500Y319472D01*
X401500Y320472D01*
Y321472D01*
X400500D01*
X399500Y320472D01*
X398500Y321472D01*
X397500D01*
Y320472D01*
X398500Y319472D01*
X397500Y318472D01*
Y317472D01*
X407342D02*
X408343D01*
X409342Y318472D01*
X410343Y317472D01*
X411342D01*
Y318472D01*
X410343Y319472D01*
X411342Y320472D01*
Y321472D01*
X410343D01*
X409342Y320472D01*
X408343Y321472D01*
X407342D01*
Y320472D01*
X408343Y319472D01*
X407342Y318472D01*
Y317472D01*
X387657D02*
X388657D01*
X389657Y318472D01*
X390657Y317472D01*
X391657D01*
Y318472D01*
X390657Y319472D01*
X391657Y320472D01*
Y321472D01*
X390657D01*
X389657Y320472D01*
X388657Y321472D01*
X387657D01*
Y320472D01*
X388657Y319472D01*
X387657Y318472D01*
Y317472D01*
X430000Y420000D02*
X428000Y424000D01*
X432000D01*
X430000Y420000D01*
Y410000D02*
X428000Y414000D01*
X432000D01*
X430000Y410000D01*
X412461Y403500D02*
Y402500D01*
X414461D01*
Y403500D01*
X415461D01*
Y405500D01*
X414461D01*
Y406500D01*
X412461D01*
Y405500D01*
X411461D01*
Y403500D01*
X412461D01*
X382539D02*
Y402500D01*
X384539D01*
Y403500D01*
X385539D01*
Y405500D01*
X384539D01*
Y406500D01*
X382539D01*
Y405500D01*
X381539D01*
Y403500D01*
X382539D01*
X430000Y396000D02*
X428000Y400000D01*
X432000D01*
X430000Y396000D01*
Y386000D02*
X428000Y390000D01*
X432000D01*
X430000Y386000D01*
X512500Y371500D02*
X513500Y373500D01*
X512500Y375500D01*
X514500Y374500D01*
X516500Y375500D01*
X515500Y373500D01*
X516500Y371500D01*
X514500Y372500D01*
X512500Y371500D01*
X502500D02*
X503500Y373500D01*
X502500Y375500D01*
X504500Y374500D01*
X506500Y375500D01*
X505500Y373500D01*
X506500Y371500D01*
X504500Y372500D01*
X502500Y371500D01*
X492500D02*
X493500Y373500D01*
X492500Y375500D01*
X494500Y374500D01*
X496500Y375500D01*
X495500Y373500D01*
X496500Y371500D01*
X494500Y372500D01*
X492500Y371500D01*
X482500D02*
X483500Y373500D01*
X482500Y375500D01*
X484500Y374500D01*
X486500Y375500D01*
X485500Y373500D01*
X486500Y371500D01*
X484500Y372500D01*
X482500Y371500D01*
X462800Y226600D02*
X464800Y228600D01*
X466800Y226600D01*
X464800Y224600D01*
X462800Y226600D01*
Y244400D02*
X464800Y246400D01*
X466800Y244400D01*
X464800Y242400D01*
X462800Y244400D01*
X437200Y226600D02*
X439200Y228600D01*
X441200Y226600D01*
X439200Y224600D01*
X437200Y226600D01*
Y244400D02*
X439200Y246400D01*
X441200Y244400D01*
X439200Y242400D01*
X437200Y244400D01*
X532200D02*
X534200Y246400D01*
X536200Y244400D01*
X534200Y242400D01*
X532200Y244400D01*
Y226600D02*
X534200Y228600D01*
X536200Y226600D01*
X534200Y224600D01*
X532200Y226600D01*
X557800Y244400D02*
X559800Y246400D01*
X561800Y244400D01*
X559800Y242400D01*
X557800Y244400D01*
Y226600D02*
X559800Y228600D01*
X561800Y226600D01*
X559800Y224600D01*
X557800Y226600D01*
X363008Y364904D02*
X361008Y368904D01*
X365008D01*
X363008Y364904D01*
X353008D02*
X351008Y368904D01*
X355008D01*
X353008Y364904D01*
X343008D02*
X341008Y368904D01*
X345008D01*
X343008Y364904D01*
X333008D02*
X331008Y368904D01*
X335008D01*
X333008Y364904D01*
X323008D02*
X321008Y368904D01*
X325008D01*
X323008Y364904D01*
X313008D02*
X311008Y368904D01*
X315008D01*
X313008Y364904D01*
X283508Y287904D02*
Y291904D01*
X287508D01*
Y287904D01*
X283508D01*
X273508D02*
Y291904D01*
X277508D01*
Y287904D01*
X273508D01*
X263508D02*
Y291904D01*
X267508D01*
Y287904D01*
X263508D01*
X253508D02*
Y291904D01*
X257508D01*
Y287904D01*
X253508D01*
X243508D02*
Y291904D01*
X247508D01*
Y287904D01*
X243508D01*
X300500Y413000D02*
X298500Y417000D01*
X302500D01*
X300500Y413000D01*
Y423000D02*
X298500Y427000D01*
X302500D01*
X300500Y423000D01*
X583000Y298000D02*
X581000Y302000D01*
X585000D01*
X583000Y298000D01*
Y308000D02*
X581000Y312000D01*
X585000D01*
X583000Y308000D01*
Y318000D02*
X581000Y322000D01*
X585000D01*
X583000Y318000D01*
Y328000D02*
X581000Y332000D01*
X585000D01*
X583000Y328000D01*
Y338000D02*
X581000Y342000D01*
X585000D01*
X583000Y338000D01*
Y348000D02*
X581000Y352000D01*
X585000D01*
X583000Y348000D01*
X578000Y370500D02*
X579000Y372500D01*
X578000Y374500D01*
X580000Y373500D01*
X582000Y374500D01*
X581000Y372500D01*
X582000Y370500D01*
X580000Y371500D01*
X578000Y370500D01*
Y380500D02*
X579000Y382500D01*
X578000Y384500D01*
X580000Y383500D01*
X582000Y384500D01*
X581000Y382500D01*
X582000Y380500D01*
X580000Y381500D01*
X578000Y380500D01*
Y265500D02*
X579000Y267500D01*
X578000Y269500D01*
X580000Y268500D01*
X582000Y269500D01*
X581000Y267500D01*
X582000Y265500D01*
X580000Y266500D01*
X578000Y265500D01*
Y275500D02*
X579000Y277500D01*
X578000Y279500D01*
X580000Y278500D01*
X582000Y279500D01*
X581000Y277500D01*
X582000Y275500D01*
X580000Y276500D01*
X578000Y275500D01*
X336000Y319000D02*
X334000Y323000D01*
X338000D01*
X336000Y319000D01*
Y319800D02*
X334800Y322200D01*
X337200D01*
X336000Y319800D01*
X338500Y299500D02*
X336500Y303500D01*
X340500D01*
X338500Y299500D01*
Y300300D02*
X337300Y302700D01*
X339700D01*
X338500Y300300D01*
X338000Y428000D02*
X336000Y432000D01*
X340000D01*
X338000Y428000D01*
Y428800D02*
X336800Y431200D01*
X339200D01*
X338000Y428800D01*
X320500Y330000D02*
X318500Y334000D01*
X322500D01*
X320500Y330000D01*
Y330800D02*
X319300Y333200D01*
X321700D01*
X320500Y330800D01*
X301000Y317500D02*
X299000Y321500D01*
X303000D01*
X301000Y317500D01*
Y318300D02*
X299800Y320700D01*
X302200D01*
X301000Y318300D01*
X400000Y424000D02*
X398000Y428000D01*
X402000D01*
X400000Y424000D01*
Y424800D02*
X398800Y427200D01*
X401200D01*
X400000Y424800D01*
X321500Y269500D02*
X319500Y273500D01*
X323500D01*
X321500Y269500D01*
Y270300D02*
X320300Y272700D01*
X322700D01*
X321500Y270300D01*
D109*
X396158Y249201D02*
G03*
X396158Y249201I-2000J0D01*
G01*
Y261799D02*
G03*
X396158Y261799I-2000J0D01*
G01*
X406000Y249201D02*
G03*
X406000Y249201I-2000J0D01*
G01*
Y261799D02*
G03*
X406000Y261799I-2000J0D01*
G01*
X415842Y249201D02*
G03*
X415842Y249201I-2000J0D01*
G01*
Y261799D02*
G03*
X415842Y261799I-2000J0D01*
G01*
Y310799D02*
G03*
X415842Y310799I-2000J0D01*
G01*
Y298201D02*
G03*
X415842Y298201I-2000J0D01*
G01*
X406000Y310799D02*
G03*
X406000Y310799I-2000J0D01*
G01*
Y298201D02*
G03*
X406000Y298201I-2000J0D01*
G01*
X396158Y310799D02*
G03*
X396158Y310799I-2000J0D01*
G01*
Y298201D02*
G03*
X396158Y298201I-2000J0D01*
G01*
X261851Y422203D02*
G03*
X261851Y422203I-2000J0D01*
G01*
Y409604D02*
G03*
X261851Y409604I-2000J0D01*
G01*
X252008Y422203D02*
G03*
X252008Y422203I-2000J0D01*
G01*
Y409604D02*
G03*
X252008Y409604I-2000J0D01*
G01*
X242166Y422203D02*
G03*
X242166Y422203I-2000J0D01*
G01*
Y409604D02*
G03*
X242166Y409604I-2000J0D01*
G01*
X396158Y273701D02*
G03*
X396158Y273701I-2000J0D01*
G01*
Y286299D02*
G03*
X396158Y286299I-2000J0D01*
G01*
X406000Y273701D02*
G03*
X406000Y273701I-2000J0D01*
G01*
Y286299D02*
G03*
X406000Y286299I-2000J0D01*
G01*
X415842Y273701D02*
G03*
X415842Y273701I-2000J0D01*
G01*
Y286299D02*
G03*
X415842Y286299I-2000J0D01*
G01*
Y236799D02*
G03*
X415842Y236799I-2000J0D01*
G01*
Y224201D02*
G03*
X415842Y224201I-2000J0D01*
G01*
X406000Y236799D02*
G03*
X406000Y236799I-2000J0D01*
G01*
Y224201D02*
G03*
X406000Y224201I-2000J0D01*
G01*
X396158Y236799D02*
G03*
X396158Y236799I-2000J0D01*
G01*
Y224201D02*
G03*
X396158Y224201I-2000J0D01*
G01*
X378000Y264500D02*
G03*
X378000Y264500I-2000J0D01*
G01*
X399000Y395500D02*
G03*
X399000Y395500I-2000J0D01*
G01*
X398000Y365000D02*
G03*
X398000Y365000I-2000J0D01*
G01*
X352500Y284500D02*
G03*
X352500Y284500I-2000J0D01*
G01*
X306000Y343000D02*
G03*
X306000Y343000I-2000J0D01*
G01*
X436500Y376000D02*
G03*
X436500Y376000I-2000J0D01*
G01*
Y382000D02*
G03*
X436500Y382000I-2000J0D01*
G01*
X424500Y330500D02*
G03*
X424500Y330500I-2000J0D01*
G01*
X435500Y367000D02*
G03*
X435500Y367000I-2000J0D01*
G01*
X455000Y402000D02*
G03*
X455000Y402000I-2000J0D01*
G01*
X444669Y413169D02*
G03*
X444669Y413169I-2000J0D01*
G01*
X533000Y279500D02*
G03*
X533000Y279500I-2000J0D01*
G01*
X326000Y392000D02*
G03*
X326000Y392000I-2000J0D01*
G01*
X398000Y332500D02*
G03*
X398000Y332500I-2000J0D01*
G01*
X507500Y241500D02*
G03*
X507500Y241500I-2000J0D01*
G01*
X533000Y270500D02*
G03*
X533000Y270500I-2000J0D01*
G01*
X518500Y260500D02*
G03*
X518500Y260500I-2000J0D01*
G01*
X515000Y281000D02*
G03*
X515000Y281000I-2000J0D01*
G01*
X499500Y225500D02*
G03*
X499500Y225500I-2000J0D01*
G01*
X533000Y257500D02*
G03*
X533000Y257500I-2000J0D01*
G01*
X501500Y266000D02*
G03*
X501500Y266000I-2000J0D01*
G01*
X517500Y360500D02*
G03*
X517500Y360500I-2000J0D01*
G01*
X415000Y386500D02*
G03*
X415000Y386500I-2000J0D01*
G01*
X428000Y309500D02*
G03*
X428000Y309500I-2000J0D01*
G01*
X404500Y332500D02*
G03*
X404500Y332500I-2000J0D01*
G01*
X359500Y353500D02*
G03*
X359500Y353500I-2000J0D01*
G01*
X407000Y367000D02*
G03*
X407000Y367000I-2000J0D01*
G01*
X352500Y350500D02*
G03*
X352500Y350500I-2000J0D01*
G01*
X513000Y338000D02*
G03*
X513000Y338000I-2000J0D01*
G01*
X520000Y319000D02*
G03*
X520000Y319000I-2000J0D01*
G01*
X493000Y345000D02*
G03*
X493000Y345000I-2000J0D01*
G01*
X501000Y328500D02*
G03*
X501000Y328500I-2000J0D01*
G01*
X563500Y341500D02*
G03*
X563500Y341500I-2000J0D01*
G01*
Y350000D02*
G03*
X563500Y350000I-2000J0D01*
G01*
X564000Y317000D02*
G03*
X564000Y317000I-2000J0D01*
G01*
Y328000D02*
G03*
X564000Y328000I-2000J0D01*
G01*
X338404Y413404D02*
G03*
X338404Y413404I-2000J0D01*
G01*
X329500Y404500D02*
G03*
X329500Y404500I-2000J0D01*
G01*
X352500Y332000D02*
G03*
X352500Y332000I-2000J0D01*
G01*
X313000Y389000D02*
G03*
X313000Y389000I-2000J0D01*
G01*
X293500Y326000D02*
G03*
X293500Y326000I-2000J0D01*
G01*
X373500Y327000D02*
G03*
X373500Y327000I-2000J0D01*
G01*
X482000Y413000D02*
G03*
X482000Y413000I-2000J0D01*
G01*
X556000Y376500D02*
G03*
X556000Y376500I-2000J0D01*
G01*
D110*
X377200Y264500D02*
G03*
X377200Y264500I-1200J0D01*
G01*
X398200Y395500D02*
G03*
X398200Y395500I-1200J0D01*
G01*
X397200Y365000D02*
G03*
X397200Y365000I-1200J0D01*
G01*
X351700Y284500D02*
G03*
X351700Y284500I-1200J0D01*
G01*
X305200Y343000D02*
G03*
X305200Y343000I-1200J0D01*
G01*
X435700Y376000D02*
G03*
X435700Y376000I-1200J0D01*
G01*
Y382000D02*
G03*
X435700Y382000I-1200J0D01*
G01*
X423700Y330500D02*
G03*
X423700Y330500I-1200J0D01*
G01*
X434700Y367000D02*
G03*
X434700Y367000I-1200J0D01*
G01*
X454200Y402000D02*
G03*
X454200Y402000I-1200J0D01*
G01*
X443869Y413169D02*
G03*
X443869Y413169I-1200J0D01*
G01*
X532200Y279500D02*
G03*
X532200Y279500I-1200J0D01*
G01*
X325200Y392000D02*
G03*
X325200Y392000I-1200J0D01*
G01*
X397200Y332500D02*
G03*
X397200Y332500I-1200J0D01*
G01*
X506700Y241500D02*
G03*
X506700Y241500I-1200J0D01*
G01*
X532200Y270500D02*
G03*
X532200Y270500I-1200J0D01*
G01*
X517700Y260500D02*
G03*
X517700Y260500I-1200J0D01*
G01*
X514200Y281000D02*
G03*
X514200Y281000I-1200J0D01*
G01*
X498700Y225500D02*
G03*
X498700Y225500I-1200J0D01*
G01*
X532200Y257500D02*
G03*
X532200Y257500I-1200J0D01*
G01*
X500700Y266000D02*
G03*
X500700Y266000I-1200J0D01*
G01*
X516700Y360500D02*
G03*
X516700Y360500I-1200J0D01*
G01*
X414200Y386500D02*
G03*
X414200Y386500I-1200J0D01*
G01*
X427200Y309500D02*
G03*
X427200Y309500I-1200J0D01*
G01*
X403700Y332500D02*
G03*
X403700Y332500I-1200J0D01*
G01*
X358700Y353500D02*
G03*
X358700Y353500I-1200J0D01*
G01*
X406200Y367000D02*
G03*
X406200Y367000I-1200J0D01*
G01*
X351700Y350500D02*
G03*
X351700Y350500I-1200J0D01*
G01*
X512200Y338000D02*
G03*
X512200Y338000I-1200J0D01*
G01*
X519200Y319000D02*
G03*
X519200Y319000I-1200J0D01*
G01*
X492200Y345000D02*
G03*
X492200Y345000I-1200J0D01*
G01*
X500200Y328500D02*
G03*
X500200Y328500I-1200J0D01*
G01*
X562700Y341500D02*
G03*
X562700Y341500I-1200J0D01*
G01*
Y350000D02*
G03*
X562700Y350000I-1200J0D01*
G01*
X563200Y317000D02*
G03*
X563200Y317000I-1200J0D01*
G01*
Y328000D02*
G03*
X563200Y328000I-1200J0D01*
G01*
X337604Y413404D02*
G03*
X337604Y413404I-1200J0D01*
G01*
X328700Y404500D02*
G03*
X328700Y404500I-1200J0D01*
G01*
X351700Y332000D02*
G03*
X351700Y332000I-1200J0D01*
G01*
X312200Y389000D02*
G03*
X312200Y389000I-1200J0D01*
G01*
X292700Y326000D02*
G03*
X292700Y326000I-1200J0D01*
G01*
X372700Y327000D02*
G03*
X372700Y327000I-1200J0D01*
G01*
X481200Y413000D02*
G03*
X481200Y413000I-1200J0D01*
G01*
X555200Y376500D02*
G03*
X555200Y376500I-1200J0D01*
G01*
M02*
