G04*
G04 #@! TF.GenerationSoftware,Altium Limited,Altium Designer,24.4.1 (13)*
G04*
G04 Layer_Color=8388736*
%FSLAX25Y25*%
%MOIN*%
G70*
G04*
G04 #@! TF.SameCoordinates,2570C4FB-6661-4DCD-87E8-F51DF0FCECC1*
G04*
G04*
G04 #@! TF.FilePolarity,Negative*
G04*
G01*
G75*
%ADD22R,0.10249X0.08674*%
G04:AMPARAMS|DCode=23|XSize=86.74mil|YSize=78.87mil|CornerRadius=0mil|HoleSize=0mil|Usage=FLASHONLY|Rotation=45.000|XOffset=0mil|YOffset=0mil|HoleType=Round|Shape=Rectangle|*
%AMROTATEDRECTD23*
4,1,4,-0.00278,-0.05855,-0.05855,-0.00278,0.00278,0.05855,0.05855,0.00278,-0.00278,-0.05855,0.0*
%
%ADD23ROTATEDRECTD23*%

G04:AMPARAMS|DCode=24|XSize=86.74mil|YSize=47.37mil|CornerRadius=0mil|HoleSize=0mil|Usage=FLASHONLY|Rotation=45.000|XOffset=0mil|YOffset=0mil|HoleType=Round|Shape=Rectangle|*
%AMROTATEDRECTD24*
4,1,4,-0.01392,-0.04742,-0.04742,-0.01392,0.01392,0.04742,0.04742,0.01392,-0.01392,-0.04742,0.0*
%
%ADD24ROTATEDRECTD24*%

%ADD25R,0.13398X0.07099*%
%ADD26R,0.06147X0.06147*%
%ADD27C,0.06147*%
%ADD28C,0.05950*%
%ADD29R,0.05950X0.05950*%
%ADD30C,0.06737*%
%ADD31R,0.06737X0.06737*%
%ADD32C,0.06700*%
%ADD33R,0.06700X0.06700*%
%ADD34C,0.08400*%
%ADD35R,0.07099X0.07099*%
%ADD36C,0.07099*%
%ADD37C,0.05131*%
%ADD38C,0.03950*%
%ADD39O,0.12611X0.24422*%
%ADD40C,0.07887*%
%ADD41R,0.07887X0.07887*%
%ADD42C,0.07119*%
%ADD43R,0.07119X0.07119*%
%ADD44C,0.08674*%
%ADD45O,0.12800X0.06800*%
%ADD46R,0.07119X0.07119*%
%ADD47C,0.06194*%
%ADD48R,0.06194X0.06194*%
%ADD49R,0.06737X0.06737*%
D22*
X361591Y418791D02*
D03*
Y380209D02*
D03*
D23*
X510775Y224225D02*
D03*
X488225Y246775D02*
D03*
D24*
X506669Y250603D02*
D03*
X510636Y246636D02*
D03*
X514603Y242669D02*
D03*
X492332Y220397D02*
D03*
X484397Y228331D02*
D03*
X488365Y224364D02*
D03*
D25*
X308658Y312000D02*
D03*
X328343D02*
D03*
X346158D02*
D03*
X365843D02*
D03*
D26*
X394158Y249201D02*
D03*
Y298201D02*
D03*
X240166Y409604D02*
D03*
X394158Y273701D02*
D03*
Y224201D02*
D03*
D27*
Y261799D02*
D03*
X404000Y249201D02*
D03*
Y261799D02*
D03*
X413842Y249201D02*
D03*
Y261799D02*
D03*
Y310799D02*
D03*
Y298201D02*
D03*
X404000Y310799D02*
D03*
Y298201D02*
D03*
X394158Y310799D02*
D03*
X259851Y422203D02*
D03*
Y409604D02*
D03*
X250008Y422203D02*
D03*
Y409604D02*
D03*
X240166Y422203D02*
D03*
X394158Y286299D02*
D03*
X404000Y273701D02*
D03*
Y286299D02*
D03*
X413842Y273701D02*
D03*
Y286299D02*
D03*
Y236799D02*
D03*
Y224201D02*
D03*
X404000Y236799D02*
D03*
Y224201D02*
D03*
X394158Y236799D02*
D03*
D28*
X300000Y261500D02*
D03*
Y251500D02*
D03*
X371000Y261500D02*
D03*
Y251500D02*
D03*
X300000Y241500D02*
D03*
Y271500D02*
D03*
X371000D02*
D03*
Y241500D02*
D03*
X300000Y281500D02*
D03*
X371000D02*
D03*
X300000Y231500D02*
D03*
X371000D02*
D03*
Y291500D02*
D03*
X300000Y221500D02*
D03*
X371000D02*
D03*
D29*
X300000Y291500D02*
D03*
D30*
X285500Y416000D02*
D03*
X514500Y373500D02*
D03*
X504500D02*
D03*
X494500D02*
D03*
X580000Y372500D02*
D03*
Y267500D02*
D03*
D31*
X275500Y416000D02*
D03*
X484500Y373500D02*
D03*
D32*
X542500Y365000D02*
D03*
Y355000D02*
D03*
Y345000D02*
D03*
Y335000D02*
D03*
Y325000D02*
D03*
Y315000D02*
D03*
Y305000D02*
D03*
Y295000D02*
D03*
Y285000D02*
D03*
X572500D02*
D03*
Y295000D02*
D03*
Y305000D02*
D03*
Y315000D02*
D03*
Y325000D02*
D03*
Y335000D02*
D03*
Y345000D02*
D03*
Y355000D02*
D03*
D33*
Y365000D02*
D03*
D34*
X463000Y348000D02*
D03*
Y298000D02*
D03*
Y338000D02*
D03*
Y308000D02*
D03*
Y328000D02*
D03*
Y318000D02*
D03*
X533000Y338000D02*
D03*
Y308000D02*
D03*
Y328000D02*
D03*
Y318000D02*
D03*
D35*
X295500Y334500D02*
D03*
D36*
Y344500D02*
D03*
Y354500D02*
D03*
Y364500D02*
D03*
Y374500D02*
D03*
Y384500D02*
D03*
Y394500D02*
D03*
X235500D02*
D03*
Y384500D02*
D03*
Y374500D02*
D03*
Y364500D02*
D03*
Y354500D02*
D03*
Y344500D02*
D03*
Y334500D02*
D03*
D37*
X504789Y230211D02*
D03*
D38*
X494211Y240789D02*
D03*
D39*
X421547Y349000D02*
D03*
X377453D02*
D03*
D40*
X409342Y376559D02*
D03*
X399500Y319472D02*
D03*
X409342D02*
D03*
X389657D02*
D03*
D41*
Y376559D02*
D03*
D42*
X430000Y422000D02*
D03*
Y398000D02*
D03*
X353008Y366904D02*
D03*
X343008D02*
D03*
X333008D02*
D03*
X323008D02*
D03*
X313008D02*
D03*
X300500Y415000D02*
D03*
X583000Y300000D02*
D03*
Y310000D02*
D03*
Y320000D02*
D03*
Y330000D02*
D03*
Y340000D02*
D03*
D43*
X430000Y412000D02*
D03*
Y388000D02*
D03*
X300500Y425000D02*
D03*
X583000Y350000D02*
D03*
D44*
X413461Y404500D02*
D03*
X383539D02*
D03*
D45*
X464800Y226600D02*
D03*
Y244400D02*
D03*
X439200Y226600D02*
D03*
Y244400D02*
D03*
X534200D02*
D03*
Y226600D02*
D03*
X559800Y244400D02*
D03*
Y226600D02*
D03*
D46*
X363008Y366904D02*
D03*
D47*
X285508Y289904D02*
D03*
X275508D02*
D03*
X265508D02*
D03*
X255508D02*
D03*
D48*
X245508D02*
D03*
D49*
X580000Y382500D02*
D03*
Y277500D02*
D03*
M02*
