G04*
G04 #@! TF.GenerationSoftware,Altium Limited,Altium Designer,24.4.1 (13)*
G04*
G04 Layer_Color=16711935*
%FSLAX25Y25*%
%MOIN*%
G70*
G04*
G04 #@! TF.SameCoordinates,2570C4FB-6661-4DCD-87E8-F51DF0FCECC1*
G04*
G04*
G04 #@! TF.FilePolarity,Positive*
G04*
G01*
G75*
%ADD14C,0.01000*%
D14*
X273000Y213000D02*
G03*
X286000Y200000I13000J0D01*
G01*
X273000Y223000D02*
G03*
X266500Y229500I-6500J-0D01*
G01*
X237000Y234500D02*
G03*
X242000Y229500I5000J-0D01*
G01*
X237000Y316000D02*
G03*
X232000Y321000I-5000J0D01*
G01*
X227000Y326000D02*
G03*
X232000Y321000I5000J-0D01*
G01*
X237000Y425500D02*
G03*
X227000Y415500I0J-10000D01*
G01*
X280500Y425500D02*
G03*
X290500Y435500I0J10000D01*
G01*
X305000Y450000D02*
G03*
X290500Y435500I0J-14500D01*
G01*
X579500Y434500D02*
G03*
X564000Y450000I-15500J-0D01*
G01*
X579500Y407000D02*
G03*
X584500Y402000I5000J-0D01*
G01*
X592000Y394500D02*
G03*
X584500Y402000I-7500J0D01*
G01*
X583500Y234500D02*
G03*
X592000Y243000I0J8500D01*
G01*
X583500Y234500D02*
G03*
X579500Y230500I0J-4000D01*
G01*
X564000Y200000D02*
G03*
X579500Y215500I-0J15500D01*
G01*
X290400Y219000D02*
G03*
X290400Y219000I-6400J0D01*
G01*
X435900Y439000D02*
G03*
X435900Y439000I-6400J0D01*
G01*
X412000Y436005D02*
G03*
X415000Y439000I2J2998D01*
G01*
X587400Y245500D02*
G03*
X587400Y245500I-6400J0D01*
G01*
X447062Y388557D02*
G03*
X444062Y385562I-2J-2998D01*
G01*
X555062D02*
G03*
X552062Y388557I-2998J-2D01*
G01*
Y382567D02*
G03*
X555062Y385562I2J2998D01*
G01*
X444062D02*
G03*
X447062Y382567I2998J2D01*
G01*
X503500Y446000D02*
G03*
X507500Y442000I4000J0D01*
G01*
X495500Y446130D02*
G03*
X491500Y450000I-3935J-65D01*
G01*
Y442000D02*
G03*
X495500Y446000I0J4000D01*
G01*
X507472Y449971D02*
G03*
X503472Y446102I-65J-3935D01*
G01*
X555000Y211005D02*
G03*
X552000Y214000I-2998J-2D01*
G01*
Y208005D02*
G03*
X555000Y211000I2J2998D01*
G01*
X444000Y438995D02*
G03*
X447000Y436000I2998J2D01*
G01*
X304000Y438995D02*
G03*
X307000Y436000I2998J2D01*
G01*
Y441995D02*
G03*
X304000Y439000I-2J-2998D01*
G01*
Y210995D02*
G03*
X307000Y208000I2998J2D01*
G01*
Y213995D02*
G03*
X304000Y211000I-2J-2998D01*
G01*
X552000Y436005D02*
G03*
X555000Y439000I2J2998D01*
G01*
Y439005D02*
G03*
X552000Y442000I-2998J-2D01*
G01*
X355500Y204000D02*
G03*
X351500Y208000I-4000J0D01*
G01*
X351500Y200000D02*
G03*
X355500Y203870I65J3935D01*
G01*
X367500Y208000D02*
G03*
X363500Y204000I0J-4000D01*
G01*
X503500Y204090D02*
G03*
X507500Y200000I4045J-45D01*
G01*
X495500Y204000D02*
G03*
X491500Y208000I-4000J0D01*
G01*
Y200000D02*
G03*
X495500Y204000I0J4000D01*
G01*
X363500Y203870D02*
G03*
X367500Y200000I3935J65D01*
G01*
X507500Y208000D02*
G03*
X503500Y204000I0J-4000D01*
G01*
X363500Y446000D02*
G03*
X367500Y442000I4000J0D01*
G01*
X355500Y445910D02*
G03*
X351500Y450000I-4045J45D01*
G01*
X415000Y439000D02*
G03*
X412000Y442002I-2998J5D01*
G01*
X367500Y450000D02*
G03*
X363500Y446000I0J-4000D01*
G01*
X351500Y442000D02*
G03*
X355500Y446000I0J4000D01*
G01*
X447000Y442000D02*
G03*
X444000Y439005I-2J-2998D01*
G01*
Y210995D02*
G03*
X447000Y208000I2998J2D01*
G01*
X412000Y208005D02*
G03*
X415000Y211000I2J2998D01*
G01*
X447000Y213995D02*
G03*
X444000Y211000I-2J-2998D01*
G01*
X415000Y211005D02*
G03*
X412000Y214000I-2998J-2D01*
G01*
X447061Y382567D02*
X552062D01*
X447062Y388557D02*
X552062D01*
X307000Y214000D02*
X412000D01*
X286000Y200000D02*
X301000D01*
X307000Y208000D02*
X351500D01*
X301000Y200000D02*
X351500D01*
X273000Y213000D02*
Y223000D01*
X242000Y229500D02*
X266500D01*
X237000Y234500D02*
Y316000D01*
X227000Y326000D02*
Y415500D01*
X237000Y425500D02*
X280500D01*
X305000Y450000D02*
X351500D01*
X307000Y442000D02*
X351500D01*
X307000Y436000D02*
X412000D01*
X367500Y442000D02*
X412000D01*
X367500Y450000D02*
X491500D01*
X447000Y442000D02*
X491500D01*
X447000Y436000D02*
X552000D01*
X507500Y442000D02*
X552000D01*
X507500Y450000D02*
X564000D01*
X579500Y407000D02*
Y434500D01*
X592000Y255500D02*
Y394500D01*
Y243000D02*
Y255500D01*
X579500Y215500D02*
Y230500D01*
X507500Y200000D02*
X564000D01*
X507500Y208000D02*
X552000D01*
X447000Y214000D02*
X552000D01*
X447000Y208000D02*
X491500D01*
X367500Y200000D02*
X491500D01*
X367500Y208000D02*
X412000D01*
M02*
